Amstelvar-Roman_opsz8_wght800.ufo
<glyph name="exclam" format="2">
  <advance width="733"/>
  <unicode hex="0021"/>
  <outline>
    <contour>
      <point x="159" y="178" type="qcurve" smooth="yes"/>
      <point x="159" y="262"/>
      <point x="275" y="380"/>
      <point x="366" y="380" type="qcurve" smooth="yes"/>
      <point x="457" y="380"/>
      <point x="574" y="262"/>
      <point x="574" y="178" type="qcurve" smooth="yes"/>
      <point x="574" y="96"/>
      <point x="457" y="-23"/>
      <point x="366" y="-23" type="qcurve" smooth="yes"/>
      <point x="275" y="-23"/>
      <point x="159" y="96"/>
    </contour>
    <contour>
      <point x="158" y="1282" type="line" smooth="yes"/>
      <point x="134" y="1412"/>
      <point x="255" y="1531"/>
      <point x="362" y="1531" type="qcurve" smooth="yes"/>
      <point x="468" y="1531"/>
      <point x="599" y="1410"/>
      <point x="575" y="1288" type="qcurve" smooth="yes"/>
      <point x="546" y="1108" type="line"/>
      <point x="481" y="800" type="line"/>
      <point x="441" y="505" type="line"/>
      <point x="287" y="505" type="line"/>
      <point x="247" y="800" type="line"/>
      <point x="183" y="1108" type="line"/>
    </contour>
  </outline>
</glyph>
<glyph name="quotedbl" format="2">
  <advance width="1117"/>
  <unicode hex="0022"/>
  <outline>
    <contour>
      <point x="265" y="838" type="line"/>
      <point x="123" y="1354" type="line"/>
      <point x="123" y="1426"/>
      <point x="217" y="1558"/>
      <point x="316" y="1558" type="qcurve" smooth="yes"/>
      <point x="416" y="1558"/>
      <point x="508" y="1426"/>
      <point x="508" y="1354" type="qcurve"/>
      <point x="364" y="838" type="line"/>
    </contour>
    <contour>
      <point x="752" y="838" type="line"/>
      <point x="609" y="1354" type="line"/>
      <point x="609" y="1426"/>
      <point x="702" y="1558"/>
      <point x="802" y="1558" type="qcurve" smooth="yes"/>
      <point x="901" y="1558"/>
      <point x="994" y="1426"/>
      <point x="994" y="1354" type="qcurve"/>
      <point x="851" y="838" type="line"/>
    </contour>
  </outline>
</glyph>
<glyph name="numbersign" format="2">
  <advance width="1459"/>
  <unicode hex="0023"/>
  <outline>
    <contour>
      <point x="80" y="352" type="line"/>
      <point x="80" y="588" type="line"/>
      <point x="1227" y="588" type="line"/>
      <point x="1227" y="352" type="line"/>
    </contour>
    <contour>
      <point x="195" y="906" type="line"/>
      <point x="195" y="1142" type="line"/>
      <point x="1379" y="1142" type="line"/>
      <point x="1379" y="906" type="line"/>
    </contour>
    <contour>
      <point x="149" y="-9" type="line"/>
      <point x="677" y="1552" type="line"/>
      <point x="822" y="1529" type="line"/>
      <point x="293" y="-31" type="line"/>
    </contour>
    <contour>
      <point x="635" y="-9" type="line"/>
      <point x="1165" y="1552" type="line"/>
      <point x="1308" y="1529" type="line"/>
      <point x="778" y="-31" type="line"/>
    </contour>
  </outline>
</glyph>
<glyph name="dollar" format="2">
  <advance width="1215"/>
  <unicode hex="0024"/>
  <outline>
    <contour>
      <point x="17" y="263" type="qcurve"/>
      <point x="175" y="443" type="line"/>
      <point x="238" y="363"/>
      <point x="477" y="218"/>
      <point x="597" y="218" type="qcurve" smooth="yes"/>
      <point x="711" y="218"/>
      <point x="843" y="287"/>
      <point x="843" y="370" type="qcurve" smooth="yes"/>
      <point x="843" y="452"/>
      <point x="683" y="553"/>
      <point x="503" y="613" type="qcurve" smooth="yes"/>
      <point x="285" y="686"/>
      <point x="78" y="932"/>
      <point x="78" y="1100" type="qcurve" smooth="yes"/>
      <point x="78" y="1283"/>
      <point x="354" y="1500"/>
      <point x="579" y="1500" type="qcurve" smooth="yes"/>
      <point x="735" y="1500"/>
      <point x="966" y="1432"/>
      <point x="1060" y="1359" type="qcurve"/>
      <point x="942" y="1169" type="line"/>
      <point x="870" y="1223"/>
      <point x="697" y="1302"/>
      <point x="585" y="1302" type="qcurve" smooth="yes"/>
      <point x="480" y="1302"/>
      <point x="385" y="1243"/>
      <point x="385" y="1178" type="qcurve" smooth="yes"/>
      <point x="385" y="1117"/>
      <point x="475" y="1046"/>
      <point x="670" y="984" type="qcurve" smooth="yes"/>
      <point x="895" y="912"/>
      <point x="1151" y="660"/>
      <point x="1151" y="455" type="qcurve" smooth="yes"/>
      <point x="1151" y="234"/>
      <point x="851" y="8"/>
      <point x="611" y="8" type="qcurve" smooth="yes"/>
      <point x="404" y="8"/>
      <point x="101" y="149"/>
    </contour>
    <contour>
      <point x="497" y="-225" type="line"/>
      <point x="497" y="56" type="line"/>
      <point x="521" y="56" type="line"/>
      <point x="521" y="799" type="line"/>
      <point x="676" y="778" type="line"/>
      <point x="676" y="56" type="line"/>
      <point x="704" y="56" type="line"/>
      <point x="704" y="-190" type="line"/>
    </contour>
    <contour>
      <point x="491" y="1620" type="line"/>
      <point x="698" y="1651" type="line"/>
      <point x="698" y="1419" type="line"/>
      <point x="671" y="1419" type="line"/>
      <point x="671" y="778" type="line"/>
      <point x="517" y="800" type="line"/>
      <point x="517" y="1419" type="line"/>
      <point x="491" y="1419" type="line"/>
    </contour>
  </outline>
</glyph>
<glyph name="percent" format="2">
  <advance width="2341"/>
  <unicode hex="0025"/>
  <outline>
    <contour>
      <point x="65" y="1057" type="qcurve" smooth="yes"/>
      <point x="65" y="1258"/>
      <point x="337" y="1521"/>
      <point x="556" y="1521" type="qcurve" smooth="yes"/>
      <point x="776" y="1521"/>
      <point x="1051" y="1278"/>
      <point x="1051" y="1062" type="qcurve" smooth="yes"/>
      <point x="1051" y="859"/>
      <point x="781" y="588"/>
      <point x="562" y="588" type="qcurve" smooth="yes"/>
      <point x="341" y="588"/>
      <point x="65" y="837"/>
    </contour>
    <contour>
      <point x="380" y="1065" type="qcurve" smooth="yes"/>
      <point x="380" y="895"/>
      <point x="474" y="733"/>
      <point x="555" y="733" type="qcurve" smooth="yes"/>
      <point x="641" y="733"/>
      <point x="731" y="881"/>
      <point x="731" y="1059" type="qcurve" smooth="yes"/>
      <point x="731" y="1216"/>
      <point x="638" y="1370"/>
      <point x="556" y="1370" type="qcurve" smooth="yes"/>
      <point x="469" y="1370"/>
      <point x="380" y="1235"/>
    </contour>
    <contour>
      <point x="555" y="52" type="line"/>
      <point x="1619" y="1530" type="line"/>
      <point x="1771" y="1435" type="line"/>
      <point x="706" y="-47" type="line"/>
    </contour>
    <contour>
      <point x="1291" y="450" type="qcurve" smooth="yes"/>
      <point x="1291" y="652"/>
      <point x="1561" y="904"/>
      <point x="1781" y="904" type="qcurve" smooth="yes"/>
      <point x="2000" y="904"/>
      <point x="2275" y="671"/>
      <point x="2275" y="455" type="qcurve" smooth="yes"/>
      <point x="2275" y="240"/>
      <point x="2007" y="-28"/>
      <point x="1787" y="-28" type="qcurve" smooth="yes"/>
      <point x="1567" y="-28"/>
      <point x="1291" y="220"/>
    </contour>
    <contour>
      <point x="1605" y="461" type="qcurve" smooth="yes"/>
      <point x="1605" y="279"/>
      <point x="1698" y="116"/>
      <point x="1780" y="116" type="qcurve" smooth="yes"/>
      <point x="1866" y="116"/>
      <point x="1956" y="262"/>
      <point x="1956" y="454" type="qcurve" smooth="yes"/>
      <point x="1956" y="613"/>
      <point x="1862" y="754"/>
      <point x="1780" y="754" type="qcurve" smooth="yes"/>
      <point x="1693" y="754"/>
      <point x="1604" y="631"/>
    </contour>
  </outline>
</glyph>
<glyph name="ampersand" format="2">
  <advance width="1848"/>
  <unicode hex="0026"/>
  <outline>
    <contour>
      <point x="610" y="-27" type="qcurve" smooth="yes"/>
      <point x="335" y="-27"/>
      <point x="44" y="213"/>
      <point x="55" y="389" type="qcurve" smooth="yes"/>
      <point x="65" y="554"/>
      <point x="329" y="782"/>
      <point x="579" y="870" type="qcurve"/>
      <point x="758" y="925"/>
      <point x="872" y="1069"/>
      <point x="872" y="1178" type="qcurve" smooth="yes"/>
      <point x="872" y="1250"/>
      <point x="774" y="1367"/>
      <point x="692" y="1367" type="qcurve" smooth="yes"/>
      <point x="612" y="1367"/>
      <point x="507" y="1271"/>
      <point x="506" y="1191" type="qcurve" smooth="yes"/>
      <point x="505" y="1100"/>
      <point x="613" y="966"/>
      <point x="753" y="907" type="qcurve"/>
      <point x="1285" y="297" type="line" smooth="yes"/>
      <point x="1347" y="226"/>
      <point x="1441" y="171"/>
      <point x="1505" y="171" type="qcurve" smooth="yes"/>
      <point x="1567" y="171"/>
      <point x="1652" y="223"/>
      <point x="1690" y="267" type="qcurve"/>
      <point x="1794" y="152" type="line"/>
      <point x="1744" y="94"/>
      <point x="1544" y="-22"/>
      <point x="1396" y="-34" type="qcurve" smooth="yes"/>
      <point x="1272" y="-46"/>
      <point x="1088" y="41"/>
      <point x="1035" y="102" type="qcurve" smooth="yes"/>
      <point x="447" y="785" type="line"/>
      <point x="338" y="859"/>
      <point x="216" y="1054"/>
      <point x="218" y="1172" type="qcurve" smooth="yes"/>
      <point x="220" y="1312"/>
      <point x="494" y="1530"/>
      <point x="696" y="1529" type="qcurve" smooth="yes"/>
      <point x="889" y="1529"/>
      <point x="1095" y="1351"/>
      <point x="1097" y="1201" type="qcurve" smooth="yes"/>
      <point x="1098" y="1044"/>
      <point x="875" y="816"/>
      <point x="696" y="755" type="qcurve"/>
      <point x="559" y="696"/>
      <point x="440" y="551"/>
      <point x="441" y="419" type="qcurve" smooth="yes"/>
      <point x="444" y="308"/>
      <point x="562" y="174"/>
      <point x="716" y="173" type="qcurve" smooth="yes"/>
      <point x="924" y="171"/>
      <point x="1373" y="571"/>
      <point x="1518" y="810" type="qcurve"/>
      <point x="1728" y="787" type="line"/>
      <point x="1546" y="503"/>
      <point x="953" y="-27"/>
    </contour>
    <contour>
      <point x="1121" y="846" type="line"/>
      <point x="1155" y="921"/>
      <point x="1278" y="1003"/>
      <point x="1336" y="1003" type="qcurve" smooth="yes"/>
      <point x="1392" y="1003"/>
      <point x="1493" y="948"/>
      <point x="1550" y="948" type="qcurve" smooth="yes"/>
      <point x="1588" y="948"/>
      <point x="1661" y="974"/>
      <point x="1692" y="1022" type="qcurve"/>
      <point x="1819" y="886" type="line"/>
      <point x="1736" y="785"/>
      <point x="1639" y="713"/>
      <point x="1581" y="713" type="qcurve" smooth="yes"/>
      <point x="1543" y="713"/>
      <point x="1407" y="805"/>
      <point x="1358" y="805" type="qcurve" smooth="yes"/>
      <point x="1308" y="805"/>
      <point x="1233" y="773"/>
      <point x="1204" y="751" type="qcurve"/>
    </contour>
  </outline>
</glyph>
<glyph name="quotesingle" format="2">
  <advance width="646"/>
  <unicode hex="0027"/>
  <outline>
    <contour>
      <point x="265" y="838" type="line"/>
      <point x="123" y="1354" type="line"/>
      <point x="123" y="1426"/>
      <point x="219" y="1558"/>
      <point x="323" y="1558" type="qcurve" smooth="yes"/>
      <point x="426" y="1558"/>
      <point x="522" y="1426"/>
      <point x="522" y="1354" type="qcurve"/>
      <point x="378" y="838" type="line"/>
    </contour>
  </outline>
</glyph>
<glyph name="parenleft" format="2">
  <advance width="840"/>
  <unicode hex="0028"/>
  <outline>
    <contour>
      <point x="72" y="513" type="qcurve" smooth="yes"/>
      <point x="72" y="825"/>
      <point x="432" y="1394"/>
      <point x="669" y="1525" type="qcurve"/>
      <point x="789" y="1409" type="line"/>
      <point x="683" y="1274"/>
      <point x="507" y="793"/>
      <point x="507" y="514" type="qcurve" smooth="yes"/>
      <point x="507" y="234"/>
      <point x="684" y="-230"/>
      <point x="789" y="-373" type="qcurve"/>
      <point x="678" y="-498" type="line"/>
      <point x="434" y="-357"/>
      <point x="72" y="199"/>
    </contour>
  </outline>
</glyph>
<glyph name="parenright" format="2">
  <advance width="840"/>
  <unicode hex="0029"/>
  <outline>
    <contour>
      <point x="768" y="513" type="qcurve" smooth="yes"/>
      <point x="768" y="199"/>
      <point x="406" y="-357"/>
      <point x="161" y="-498" type="qcurve"/>
      <point x="50" y="-373" type="line"/>
      <point x="156" y="-230"/>
      <point x="332" y="234"/>
      <point x="332" y="514" type="qcurve" smooth="yes"/>
      <point x="332" y="793"/>
      <point x="156" y="1274"/>
      <point x="51" y="1409" type="qcurve"/>
      <point x="171" y="1525" type="line"/>
      <point x="408" y="1394"/>
      <point x="768" y="825"/>
    </contour>
  </outline>
</glyph>
<glyph name="asterisk" format="2">
  <advance width="1048"/>
  <unicode hex="002A"/>
  <outline>
    <contour>
      <point x="532" y="535" type="qcurve" smooth="yes"/>
      <point x="464" y="535"/>
      <point x="396" y="625"/>
      <point x="411" y="689" type="qcurve" smooth="yes"/>
      <point x="498" y="967" type="line"/>
      <point x="490" y="971" type="line"/>
      <point x="288" y="760" type="line" smooth="yes"/>
      <point x="248" y="722"/>
      <point x="133" y="725"/>
      <point x="98" y="789" type="qcurve" smooth="yes"/>
      <point x="62" y="851"/>
      <point x="119" y="954"/>
      <point x="172" y="971" type="qcurve" smooth="yes"/>
      <point x="453" y="1037" type="line"/>
      <point x="453" y="1043" type="line"/>
      <point x="172" y="1109" type="line" smooth="yes"/>
      <point x="119" y="1126"/>
      <point x="62" y="1230"/>
      <point x="98" y="1294" type="qcurve" smooth="yes"/>
      <point x="133" y="1355"/>
      <point x="249" y="1361"/>
      <point x="288" y="1323" type="qcurve" smooth="yes"/>
      <point x="489" y="1109" type="line"/>
      <point x="496" y="1113" type="line"/>
      <point x="411" y="1392" type="line" smooth="yes"/>
      <point x="396" y="1458"/>
      <point x="467" y="1545"/>
      <point x="532" y="1545" type="qcurve" smooth="yes"/>
      <point x="601" y="1545"/>
      <point x="670" y="1455"/>
      <point x="654" y="1392" type="qcurve" smooth="yes"/>
      <point x="568" y="1115" type="line"/>
      <point x="576" y="1110" type="line"/>
      <point x="777" y="1323" type="line" smooth="yes"/>
      <point x="818" y="1361"/>
      <point x="933" y="1355"/>
      <point x="967" y="1293" type="qcurve" smooth="yes"/>
      <point x="1004" y="1230"/>
      <point x="947" y="1126"/>
      <point x="894" y="1109" type="qcurve" smooth="yes"/>
      <point x="612" y="1044" type="line"/>
      <point x="613" y="1039" type="line"/>
      <point x="894" y="972" type="line" smooth="yes"/>
      <point x="946" y="954"/>
      <point x="1004" y="851"/>
      <point x="967" y="788" type="qcurve" smooth="yes"/>
      <point x="933" y="725"/>
      <point x="818" y="720"/>
      <point x="777" y="760" type="qcurve" smooth="yes"/>
      <point x="577" y="971" type="line"/>
      <point x="570" y="967" type="line"/>
      <point x="655" y="689" type="line" smooth="yes"/>
      <point x="671" y="625"/>
      <point x="605" y="535"/>
    </contour>
  </outline>
</glyph>
<glyph name="plus" format="2">
  <advance width="1100"/>
  <unicode hex="002B"/>
  <outline>
    <contour>
      <point x="69" y="502" type="line"/>
      <point x="69" y="762" type="line"/>
      <point x="1032" y="762" type="line"/>
      <point x="1032" y="502" type="line"/>
    </contour>
    <contour>
      <point x="397" y="164" type="line"/>
      <point x="397" y="1100" type="line"/>
      <point x="704" y="1100" type="line"/>
      <point x="704" y="164" type="line"/>
    </contour>
  </outline>
</glyph>
<glyph name="comma" format="2">
  <advance width="673"/>
  <unicode hex="002C"/>
  <outline>
    <contour>
      <point x="106" y="-234" type="line"/>
      <point x="168" y="-200"/>
      <point x="298" y="-84"/>
      <point x="335" y="5" type="qcurve"/>
      <point x="213" y="13"/>
      <point x="116" y="124"/>
      <point x="116" y="208" type="qcurve" smooth="yes"/>
      <point x="116" y="289"/>
      <point x="241" y="416"/>
      <point x="338" y="416" type="qcurve" smooth="yes"/>
      <point x="433" y="416"/>
      <point x="561" y="302"/>
      <point x="561" y="190" type="qcurve" smooth="yes"/>
      <point x="561" y="35"/>
      <point x="330" y="-261"/>
      <point x="184" y="-322" type="qcurve"/>
    </contour>
  </outline>
</glyph>
<glyph name="hyphen" format="2">
  <advance width="909"/>
  <unicode hex="002D"/>
  <outline>
    <contour>
      <point x="87" y="518" type="line"/>
      <point x="87" y="850" type="line"/>
      <point x="455" y="846" type="line"/>
      <point x="822" y="850" type="line"/>
      <point x="822" y="518" type="line"/>
      <point x="455" y="522" type="line"/>
    </contour>
  </outline>
</glyph>
<glyph name="zero" format="2">
  <advance width="1409"/>
  <unicode hex="0030"/>
  <outline>
    <contour>
      <point x="65" y="751" type="qcurve" smooth="yes"/>
      <point x="65" y="1123"/>
      <point x="419" y="1523"/>
      <point x="706" y="1523" type="qcurve" smooth="yes"/>
      <point x="994" y="1523"/>
      <point x="1344" y="1131"/>
      <point x="1344" y="755" type="qcurve" smooth="yes"/>
      <point x="1344" y="389"/>
      <point x="1003" y="-33"/>
      <point x="713" y="-33" type="qcurve" smooth="yes"/>
      <point x="423" y="-33"/>
      <point x="64" y="373"/>
    </contour>
    <contour>
      <point x="498" y="770" type="qcurve" smooth="yes"/>
      <point x="499" y="434"/>
      <point x="595" y="158"/>
      <point x="704" y="158" type="qcurve" smooth="yes"/>
      <point x="814" y="158"/>
      <point x="909" y="407"/>
      <point x="911" y="753" type="qcurve" smooth="yes"/>
      <point x="912" y="1085"/>
      <point x="803" y="1325"/>
      <point x="705" y="1325" type="qcurve" smooth="yes"/>
      <point x="603" y="1325"/>
      <point x="498" y="1107"/>
    </contour>
  </outline>
</glyph>
<glyph name="one" format="2">
  <advance width="1148"/>
  <unicode hex="0031"/>
  <outline>
    <contour>
      <point x="98" y="0" type="line"/>
      <point x="98" y="164" type="line"/>
      <point x="369" y="199" type="line"/>
      <point x="369" y="754" type="line"/>
      <point x="367" y="1273" type="line"/>
      <point x="96" y="1307" type="line"/>
      <point x="96" y="1485" type="line"/>
      <point x="772" y="1508" type="line"/>
      <point x="804" y="1473" type="line"/>
      <point x="798" y="754" type="line"/>
      <point x="798" y="199" type="line"/>
      <point x="1059" y="164" type="line"/>
      <point x="1059" y="0" type="line"/>
    </contour>
  </outline>
</glyph>
<glyph name="two" format="2">
  <advance width="1164"/>
  <unicode hex="0032"/>
  <outline>
    <contour>
      <point x="54" y="0" type="line"/>
      <point x="54" y="149" type="line"/>
      <point x="57" y="281"/>
      <point x="230" y="576"/>
      <point x="382" y="693" type="qcurve" smooth="yes"/>
      <point x="513" y="793"/>
      <point x="625" y="978"/>
      <point x="625" y="1077" type="qcurve" smooth="yes"/>
      <point x="625" y="1170"/>
      <point x="511" y="1261"/>
      <point x="427" y="1261" type="qcurve" smooth="yes"/>
      <point x="363" y="1261"/>
      <point x="217" y="1195"/>
      <point x="148" y="1134" type="qcurve"/>
      <point x="60" y="1312" type="line"/>
      <point x="132" y="1391"/>
      <point x="419" y="1524"/>
      <point x="599" y="1524" type="qcurve" smooth="yes"/>
      <point x="828" y="1524"/>
      <point x="1082" y="1307"/>
      <point x="1085" y="1129" type="qcurve" smooth="yes"/>
      <point x="1089" y="938"/>
      <point x="911" y="694"/>
      <point x="692" y="576" type="qcurve" smooth="yes"/>
      <point x="498" y="476"/>
      <point x="367" y="375"/>
      <point x="345" y="309" type="qcurve"/>
      <point x="348" y="292" type="line"/>
      <point x="1098" y="292" type="line"/>
      <point x="1098" y="0" type="line"/>
    </contour>
  </outline>
</glyph>
<glyph name="three" format="2">
  <advance width="1173"/>
  <unicode hex="0033"/>
  <outline>
    <contour>
      <point x="-11" y="134" type="qcurve"/>
      <point x="87" y="309" type="line"/>
      <point x="155" y="247"/>
      <point x="289" y="182"/>
      <point x="367" y="182" type="qcurve" smooth="yes"/>
      <point x="470" y="182"/>
      <point x="592" y="305"/>
      <point x="592" y="442" type="qcurve" smooth="yes"/>
      <point x="592" y="589"/>
      <point x="426" y="701"/>
      <point x="279" y="701" type="qcurve" smooth="yes"/>
      <point x="222" y="701" type="line"/>
      <point x="178" y="881" type="line"/>
      <point x="294" y="886" type="line" smooth="yes"/>
      <point x="424" y="892"/>
      <point x="575" y="1000"/>
      <point x="573" y="1123" type="qcurve" smooth="yes"/>
      <point x="571" y="1207"/>
      <point x="479" y="1286"/>
      <point x="394" y="1286" type="qcurve" smooth="yes"/>
      <point x="329" y="1286"/>
      <point x="194" y="1233"/>
      <point x="133" y="1188" type="qcurve"/>
      <point x="47" y="1366" type="line"/>
      <point x="102" y="1416"/>
      <point x="370" y="1523"/>
      <point x="566" y="1523" type="qcurve" smooth="yes"/>
      <point x="777" y="1523"/>
      <point x="1048" y="1340"/>
      <point x="1048" y="1186" type="qcurve" smooth="yes"/>
      <point x="1048" y="1023"/>
      <point x="888" y="857"/>
      <point x="714" y="812" type="qcurve"/>
      <point x="714" y="805" type="line"/>
      <point x="877" y="786"/>
      <point x="1085" y="600"/>
      <point x="1085" y="419" type="qcurve" smooth="yes"/>
      <point x="1085" y="219"/>
      <point x="755" y="-29"/>
      <point x="515" y="-29" type="qcurve" smooth="yes"/>
      <point x="307" y="-29"/>
      <point x="50" y="74"/>
    </contour>
  </outline>
</glyph>
<glyph name="four" format="2">
  <advance width="1141"/>
  <unicode hex="0034"/>
  <outline>
    <contour>
      <point x="-11" y="569" type="line"/>
      <point x="606" y="1512" type="line"/>
      <point x="899" y="1497" type="line"/>
      <point x="969" y="1455" type="line"/>
      <point x="952" y="515" type="line"/>
      <point x="963" y="199" type="line"/>
      <point x="1141" y="164" type="line"/>
      <point x="1141" y="0" type="line"/>
      <point x="329" y="0" type="line"/>
      <point x="329" y="164" type="line"/>
      <point x="545" y="199" type="line"/>
      <point x="551" y="513" type="line"/>
      <point x="547" y="1140" type="line"/>
      <point x="224" y="624" type="line"/>
      <point x="225" y="608" type="line"/>
      <point x="1120" y="598" type="line"/>
      <point x="1120" y="425" type="line"/>
      <point x="9" y="417" type="line"/>
    </contour>
  </outline>
</glyph>
<glyph name="five" format="2">
  <advance width="1122"/>
  <unicode hex="0035"/>
  <outline>
    <contour>
      <point x="11" y="86" type="qcurve"/>
      <point x="80" y="269" type="line"/>
      <point x="139" y="227"/>
      <point x="259" y="186"/>
      <point x="346" y="186" type="qcurve" smooth="yes"/>
      <point x="465" y="186"/>
      <point x="596" y="333"/>
      <point x="596" y="484" type="qcurve" smooth="yes"/>
      <point x="596" y="622"/>
      <point x="449" y="764"/>
      <point x="245" y="747" type="qcurve" smooth="yes"/>
      <point x="191" y="743" type="line"/>
      <point x="114" y="846" type="line"/>
      <point x="150" y="1467" type="line"/>
      <point x="175" y="1500" type="line"/>
      <point x="982" y="1500" type="line"/>
      <point x="966" y="1198" type="line"/>
      <point x="324" y="1198" type="line"/>
      <point x="312" y="1183" type="line"/>
      <point x="301" y="900" type="line"/>
      <point x="447" y="921" type="line"/>
      <point x="767" y="941"/>
      <point x="1052" y="706"/>
      <point x="1052" y="498" type="qcurve" smooth="yes"/>
      <point x="1052" y="241"/>
      <point x="724" y="-29"/>
      <point x="465" y="-29" type="qcurve" smooth="yes"/>
      <point x="297" y="-29"/>
      <point x="71" y="36"/>
    </contour>
  </outline>
</glyph>
<glyph name="six" format="2">
  <advance width="1287"/>
  <unicode hex="0036"/>
  <outline>
    <contour>
      <point x="48" y="622" type="qcurve" smooth="yes"/>
      <point x="48" y="1008"/>
      <point x="548" y="1502"/>
      <point x="983" y="1583" type="qcurve"/>
      <point x="1026" y="1376" type="line"/>
      <point x="750" y="1310"/>
      <point x="478" y="914"/>
      <point x="478" y="555" type="qcurve" smooth="yes"/>
      <point x="479" y="310"/>
      <point x="578" y="150"/>
      <point x="682" y="150" type="qcurve" smooth="yes"/>
      <point x="777" y="150"/>
      <point x="878" y="301"/>
      <point x="878" y="471" type="qcurve" smooth="yes"/>
      <point x="878" y="644"/>
      <point x="805" y="771"/>
      <point x="724" y="771" type="qcurve" smooth="yes"/>
      <point x="678" y="771"/>
      <point x="620" y="752"/>
      <point x="604" y="744" type="qcurve"/>
      <point x="563" y="868" type="line"/>
      <point x="597" y="898"/>
      <point x="762" y="964"/>
      <point x="853" y="964" type="qcurve" smooth="yes"/>
      <point x="1047" y="964"/>
      <point x="1271" y="742"/>
      <point x="1271" y="507" type="qcurve" smooth="yes"/>
      <point x="1271" y="262"/>
      <point x="931" y="-28"/>
      <point x="655" y="-28" type="qcurve" smooth="yes"/>
      <point x="381" y="-28"/>
      <point x="48" y="289"/>
    </contour>
  </outline>
</glyph>
<glyph name="seven" format="2">
  <advance width="1105"/>
  <unicode hex="0037"/>
  <outline>
    <contour>
      <point x="31" y="957" type="line"/>
      <point x="63" y="1500" type="line"/>
      <point x="1132" y="1500" type="line"/>
      <point x="1132" y="1350" type="line"/>
      <point x="792" y="600" type="line"/>
      <point x="599" y="-8" type="line"/>
      <point x="250" y="-8" type="line"/>
      <point x="250" y="71" type="line"/>
      <point x="624" y="739" type="line"/>
      <point x="862" y="1192" type="line"/>
      <point x="846" y="1211" type="line"/>
      <point x="262" y="1211" type="line"/>
      <point x="188" y="957" type="line"/>
    </contour>
  </outline>
</glyph>
<glyph name="eight" format="2">
  <advance width="1225"/>
  <unicode hex="0038"/>
  <outline>
    <contour>
      <point x="6" y="362" type="qcurve" smooth="yes"/>
      <point x="6" y="547"/>
      <point x="255" y="777"/>
      <point x="494" y="834" type="qcurve"/>
      <point x="614" y="755" type="line"/>
      <point x="503" y="690"/>
      <point x="393" y="473"/>
      <point x="393" y="353" type="qcurve" smooth="yes"/>
      <point x="393" y="249"/>
      <point x="507" y="143"/>
      <point x="600" y="143" type="qcurve" smooth="yes"/>
      <point x="697" y="143"/>
      <point x="809" y="262"/>
      <point x="809" y="363" type="qcurve" smooth="yes"/>
      <point x="809" y="457"/>
      <point x="667" y="596"/>
      <point x="505" y="664" type="qcurve" smooth="yes"/>
      <point x="277" y="755"/>
      <point x="98" y="978"/>
      <point x="101" y="1145" type="qcurve" smooth="yes"/>
      <point x="103" y="1314"/>
      <point x="379" y="1517"/>
      <point x="616" y="1517" type="qcurve" smooth="yes"/>
      <point x="854" y="1517"/>
      <point x="1115" y="1353"/>
      <point x="1115" y="1202" type="qcurve" smooth="yes"/>
      <point x="1115" y="1070"/>
      <point x="910" y="854"/>
      <point x="725" y="783" type="qcurve"/>
      <point x="580" y="857" type="line"/>
      <point x="684" y="918"/>
      <point x="790" y="1092"/>
      <point x="790" y="1182" type="qcurve" smooth="yes"/>
      <point x="790" y="1265"/>
      <point x="692" y="1338"/>
      <point x="621" y="1338" type="qcurve" smooth="yes"/>
      <point x="549" y="1338"/>
      <point x="457" y="1264"/>
      <point x="457" y="1195" type="qcurve" smooth="yes"/>
      <point x="457" y="1115"/>
      <point x="563" y="1002"/>
      <point x="771" y="919" type="qcurve" smooth="yes"/>
      <point x="980" y="837"/>
      <point x="1219" y="595"/>
      <point x="1219" y="408" type="qcurve" smooth="yes"/>
      <point x="1219" y="224"/>
      <point x="902" y="-29"/>
      <point x="612" y="-29" type="qcurve" smooth="yes"/>
      <point x="320" y="-29"/>
      <point x="6" y="189"/>
    </contour>
  </outline>
</glyph>
<glyph name="nine" format="2">
  <advance width="1287"/>
  <unicode hex="0039"/>
  <outline>
    <contour>
      <point x="23" y="991" type="qcurve" smooth="yes"/>
      <point x="23" y="1236"/>
      <point x="363" y="1526"/>
      <point x="639" y="1526" type="qcurve" smooth="yes"/>
      <point x="913" y="1526"/>
      <point x="1246" y="1210"/>
      <point x="1246" y="877" type="qcurve" smooth="yes"/>
      <point x="1246" y="490"/>
      <point x="746" y="-3"/>
      <point x="311" y="-85" type="qcurve"/>
      <point x="268" y="122" type="line"/>
      <point x="544" y="189"/>
      <point x="816" y="584"/>
      <point x="816" y="944" type="qcurve" smooth="yes"/>
      <point x="815" y="1189"/>
      <point x="716" y="1347"/>
      <point x="612" y="1347" type="qcurve" smooth="yes"/>
      <point x="517" y="1347"/>
      <point x="416" y="1197"/>
      <point x="416" y="1028" type="qcurve" smooth="yes"/>
      <point x="416" y="854"/>
      <point x="493" y="727"/>
      <point x="570" y="727" type="qcurve" smooth="yes"/>
      <point x="616" y="727"/>
      <point x="674" y="746"/>
      <point x="690" y="754" type="qcurve"/>
      <point x="731" y="630" type="line"/>
      <point x="697" y="601"/>
      <point x="532" y="534"/>
      <point x="441" y="534" type="qcurve" smooth="yes"/>
      <point x="247" y="534"/>
      <point x="23" y="756"/>
    </contour>
  </outline>
</glyph>
<glyph name="colon" format="2">
  <advance width="739"/>
  <unicode hex="003A"/>
  <outline>
    <contour>
      <point x="142" y="195" type="qcurve" smooth="yes"/>
      <point x="142" y="280"/>
      <point x="271" y="410"/>
      <point x="370" y="410" type="qcurve" smooth="yes"/>
      <point x="470" y="410"/>
      <point x="597" y="280"/>
      <point x="597" y="195" type="qcurve" smooth="yes"/>
      <point x="597" y="111"/>
      <point x="471" y="-22"/>
      <point x="370" y="-22" type="qcurve" smooth="yes"/>
      <point x="269" y="-22"/>
      <point x="142" y="111"/>
    </contour>
    <contour>
      <point x="142" y="892" type="qcurve" smooth="yes"/>
      <point x="142" y="978"/>
      <point x="269" y="1109"/>
      <point x="370" y="1109" type="qcurve" smooth="yes"/>
      <point x="469" y="1109"/>
      <point x="597" y="978"/>
      <point x="597" y="892" type="qcurve" smooth="yes"/>
      <point x="597" y="809"/>
      <point x="468" y="678"/>
      <point x="370" y="678" type="qcurve" smooth="yes"/>
      <point x="271" y="678"/>
      <point x="142" y="809"/>
    </contour>
  </outline>
</glyph>
<glyph name="semicolon" format="2">
  <advance width="732"/>
  <unicode hex="003B"/>
  <outline>
    <contour>
      <point x="126" y="-230" type="line"/>
      <point x="185" y="-193"/>
      <point x="315" y="-85"/>
      <point x="352" y="4" type="qcurve"/>
      <point x="238" y="12"/>
      <point x="142" y="120"/>
      <point x="142" y="204" type="qcurve" smooth="yes"/>
      <point x="142" y="281"/>
      <point x="265" y="408"/>
      <point x="365" y="408" type="qcurve" smooth="yes"/>
      <point x="461" y="408"/>
      <point x="588" y="293"/>
      <point x="588" y="187" type="qcurve" smooth="yes"/>
      <point x="588" y="36"/>
      <point x="353" y="-261"/>
      <point x="207" y="-322" type="qcurve"/>
    </contour>
    <contour>
      <point x="142" y="892" type="qcurve" smooth="yes"/>
      <point x="142" y="978"/>
      <point x="269" y="1109"/>
      <point x="370" y="1109" type="qcurve" smooth="yes"/>
      <point x="469" y="1109"/>
      <point x="597" y="978"/>
      <point x="597" y="892" type="qcurve" smooth="yes"/>
      <point x="597" y="809"/>
      <point x="468" y="678"/>
      <point x="370" y="678" type="qcurve" smooth="yes"/>
      <point x="271" y="678"/>
      <point x="142" y="809"/>
    </contour>
  </outline>
</glyph>
<glyph name="less" format="2">
  <advance width="1063"/>
  <unicode hex="003C"/>
  <outline>
    <contour>
      <point x="120" y="634" type="qcurve"/>
      <point x="121" y="640"/>
      <point x="670" y="1081"/>
      <point x="741" y="1140" type="qcurve" smooth="yes"/>
      <point x="826" y="1211"/>
      <point x="971" y="1049"/>
      <point x="899" y="973" type="qcurve" smooth="yes"/>
      <point x="782" y="848"/>
      <point x="545" y="637"/>
      <point x="543" y="637" type="qcurve"/>
      <point x="545" y="637"/>
      <point x="791" y="422"/>
      <point x="901" y="311" type="qcurve" smooth="yes"/>
      <point x="975" y="237"/>
      <point x="825" y="76"/>
      <point x="750" y="137" type="qcurve" smooth="yes"/>
      <point x="678" y="196"/>
      <point x="121" y="627"/>
    </contour>
  </outline>
</glyph>
<glyph name="equal" format="2">
  <advance width="1063"/>
  <unicode hex="003D"/>
  <outline>
    <contour>
      <point x="83" y="253" type="line"/>
      <point x="83" y="526" type="line"/>
      <point x="532" y="522" type="line"/>
      <point x="981" y="526" type="line"/>
      <point x="981" y="253" type="line"/>
      <point x="532" y="257" type="line"/>
    </contour>
    <contour>
      <point x="83" y="713" type="line"/>
      <point x="83" y="985" type="line"/>
      <point x="532" y="981" type="line"/>
      <point x="981" y="985" type="line"/>
      <point x="981" y="713" type="line"/>
      <point x="532" y="717" type="line"/>
    </contour>
  </outline>
</glyph>
<glyph name="greater" format="2">
  <advance width="1063"/>
  <unicode hex="003E"/>
  <outline>
    <contour>
      <point x="162" y="311" type="qcurve" smooth="yes"/>
      <point x="272" y="422"/>
      <point x="519" y="637"/>
      <point x="520" y="637" type="qcurve"/>
      <point x="519" y="637"/>
      <point x="282" y="848"/>
      <point x="164" y="973" type="qcurve" smooth="yes"/>
      <point x="92" y="1049"/>
      <point x="238" y="1211"/>
      <point x="322" y="1140" type="qcurve" smooth="yes"/>
      <point x="394" y="1081"/>
      <point x="942" y="640"/>
      <point x="943" y="634" type="qcurve"/>
      <point x="942" y="627"/>
      <point x="386" y="196"/>
      <point x="313" y="137" type="qcurve" smooth="yes"/>
      <point x="238" y="76"/>
      <point x="88" y="237"/>
    </contour>
  </outline>
</glyph>
<glyph name="question" format="2">
  <advance width="1166"/>
  <unicode hex="003F"/>
  <outline>
    <contour>
      <point x="263" y="172" type="qcurve" smooth="yes"/>
      <point x="263" y="252"/>
      <point x="379" y="367"/>
      <point x="472" y="367" type="qcurve" smooth="yes"/>
      <point x="564" y="367"/>
      <point x="681" y="252"/>
      <point x="681" y="172" type="qcurve" smooth="yes"/>
      <point x="681" y="93"/>
      <point x="564" y="-22"/>
      <point x="472" y="-22" type="qcurve" smooth="yes"/>
      <point x="379" y="-22"/>
      <point x="263" y="93"/>
    </contour>
    <contour>
      <point x="56" y="1150" type="qcurve" smooth="yes"/>
      <point x="56" y="1295"/>
      <point x="321" y="1524"/>
      <point x="576" y="1524" type="qcurve" smooth="yes"/>
      <point x="846" y="1524"/>
      <point x="1125" y="1333"/>
      <point x="1125" y="1164" type="qcurve" smooth="yes"/>
      <point x="1125" y="1008"/>
      <point x="987" y="818"/>
      <point x="853" y="759" type="qcurve" smooth="yes"/>
      <point x="733" y="707"/>
      <point x="531" y="608"/>
      <point x="531" y="525" type="qcurve" smooth="yes"/>
      <point x="531" y="475" type="line"/>
      <point x="361" y="475" type="line"/>
      <point x="354" y="559" type="line" smooth="yes"/>
      <point x="342" y="677"/>
      <point x="444" y="869"/>
      <point x="565" y="934" type="qcurve" smooth="yes"/>
      <point x="651" y="979"/>
      <point x="729" y="1080"/>
      <point x="729" y="1167" type="qcurve" smooth="yes"/>
      <point x="729" y="1245"/>
      <point x="618" y="1339"/>
      <point x="503" y="1339" type="qcurve" smooth="yes"/>
      <point x="377" y="1339"/>
      <point x="262" y="1273"/>
      <point x="262" y="1222" type="qcurve" smooth="yes"/>
      <point x="262" y="1182"/>
      <point x="387" y="1107"/>
      <point x="387" y="1040" type="qcurve" smooth="yes"/>
      <point x="387" y="986"/>
      <point x="316" y="910"/>
      <point x="246" y="910" type="qcurve" smooth="yes"/>
      <point x="160" y="910"/>
      <point x="56" y="1048"/>
    </contour>
  </outline>
</glyph>
<glyph name="at" format="2">
  <advance width="1809"/>
  <unicode hex="0040"/>
  <outline>
    <contour>
      <point x="65" y="697" type="qcurve" smooth="yes"/>
      <point x="65" y="1088"/>
      <point x="550" y="1529"/>
      <point x="888" y="1529" type="qcurve" smooth="yes"/>
      <point x="1271" y="1529"/>
      <point x="1716" y="1120"/>
      <point x="1716" y="809" type="qcurve" smooth="yes"/>
      <point x="1716" y="559"/>
      <point x="1453" y="309"/>
      <point x="1279" y="309" type="qcurve" smooth="yes"/>
      <point x="1187" y="309"/>
      <point x="1078" y="361"/>
      <point x="1041" y="412" type="qcurve"/>
      <point x="1002" y="364"/>
      <point x="880" y="309"/>
      <point x="780" y="309" type="qcurve" smooth="yes"/>
      <point x="634" y="309"/>
      <point x="477" y="441"/>
      <point x="477" y="565" type="qcurve" smooth="yes"/>
      <point x="477" y="683"/>
      <point x="735" y="841"/>
      <point x="1050" y="903" type="qcurve"/>
      <point x="1059" y="797" type="line"/>
      <point x="885" y="752"/>
      <point x="755" y="641"/>
      <point x="755" y="578" type="qcurve" smooth="yes"/>
      <point x="755" y="519"/>
      <point x="803" y="467"/>
      <point x="859" y="467" type="qcurve" smooth="yes"/>
      <point x="927" y="467"/>
      <point x="999" y="520"/>
      <point x="1003" y="546" type="qcurve"/>
      <point x="1005" y="829" type="line" smooth="yes"/>
      <point x="1006" y="922"/>
      <point x="914" y="1020"/>
      <point x="823" y="1020" type="qcurve" smooth="yes"/>
      <point x="768" y="1020"/>
      <point x="680" y="978"/>
      <point x="649" y="950" type="qcurve"/>
      <point x="637" y="938"/>
      <point x="620" y="913"/>
      <point x="599" y="910" type="qcurve" smooth="yes"/>
      <point x="570" y="909"/>
      <point x="500" y="979"/>
      <point x="497" y="1008" type="qcurve" smooth="yes"/>
      <point x="495" y="1029"/>
      <point x="520" y="1052"/>
      <point x="532" y="1063" type="qcurve" smooth="yes"/>
      <point x="565" y="1096"/>
      <point x="751" y="1190"/>
      <point x="888" y="1190" type="qcurve" smooth="yes"/>
      <point x="1038" y="1190"/>
      <point x="1267" y="1037"/>
      <point x="1267" y="847" type="qcurve" smooth="yes"/>
      <point x="1265" y="483" type="line" smooth="yes"/>
      <point x="1277" y="467"/>
      <point x="1307" y="451"/>
      <point x="1347" y="451" type="qcurve" smooth="yes"/>
      <point x="1435" y="451"/>
      <point x="1564" y="598"/>
      <point x="1564" y="781" type="qcurve" smooth="yes"/>
      <point x="1564" y="1032"/>
      <point x="1212" y="1390"/>
      <point x="904" y="1390" type="qcurve" smooth="yes"/>
      <point x="624" y="1390"/>
      <point x="223" y="1031"/>
      <point x="225" y="723" type="qcurve" smooth="yes"/>
      <point x="227" y="404"/>
      <point x="599" y="67"/>
      <point x="879" y="67" type="qcurve" smooth="yes"/>
      <point x="988" y="67"/>
      <point x="1197" y="106"/>
      <point x="1273" y="144" type="qcurve"/>
      <point x="1324" y="15" type="line"/>
      <point x="1246" y="-35"/>
      <point x="994" y="-80"/>
      <point x="867" y="-80" type="qcurve" smooth="yes"/>
      <point x="522" y="-80"/>
      <point x="65" y="316"/>
    </contour>
  </outline>
</glyph>
<glyph name="A" format="2">
  <advance width="1658"/>
  <unicode hex="0041"/>
  <anchor x="829" y="0" name="bottom"/>
  <anchor x="989" y="0" name="ogonek"/>
  <anchor x="829" y="1500" name="top"/>
  <outline>
    <contour>
      <point x="12" y="0" type="line"/>
      <point x="12" y="169" type="line"/>
      <point x="182" y="203" type="line"/>
      <point x="339" y="659" type="line"/>
      <point x="629" y="1503" type="line"/>
      <point x="1026" y="1503" type="line"/>
      <point x="1302" y="725" type="line"/>
      <point x="1488" y="203" type="line"/>
      <point x="1646" y="169" type="line"/>
      <point x="1646" y="0" type="line"/>
      <point x="860" y="0" type="line"/>
      <point x="860" y="169" type="line"/>
      <point x="1016" y="202" type="line"/>
      <point x="889" y="598" type="line"/>
      <point x="688" y="1122" type="line"/>
      <point x="540" y="660" type="line"/>
      <point x="390" y="201" type="line"/>
      <point x="561" y="169" type="line"/>
      <point x="561" y="0" type="line"/>
    </contour>
    <contour>
      <point x="695" y="624" type="line"/>
      <point x="1042" y="632" type="line"/>
      <point x="1062" y="451" type="line"/>
      <point x="695" y="451" type="line"/>
    </contour>
    <contour>
      <point x="341" y="451" type="line"/>
      <point x="375" y="631" type="line"/>
      <point x="695" y="624" type="line"/>
      <point x="695" y="451" type="line"/>
    </contour>
  </outline>
</glyph>
<glyph name="B" format="2">
  <advance width="1613"/>
  <unicode hex="0042"/>
  <anchor x="806" y="0" name="bottom"/>
  <anchor x="806" y="1500" name="top"/>
  <outline>
    <contour>
      <point x="55" y="0" type="line"/>
      <point x="55" y="170" type="line"/>
      <point x="243" y="205" type="line"/>
      <point x="245" y="764" type="line"/>
      <point x="243" y="1282" type="line"/>
      <point x="55" y="1316" type="line"/>
      <point x="55" y="1500" type="line"/>
      <point x="999" y="1500" type="line" smooth="yes"/>
      <point x="1238" y="1500"/>
      <point x="1453" y="1313"/>
      <point x="1453" y="1170" type="qcurve" smooth="yes"/>
      <point x="1453" y="1035"/>
      <point x="1325" y="854"/>
      <point x="1204" y="831" type="qcurve"/>
      <point x="1204" y="824" type="line"/>
      <point x="1347" y="795"/>
      <point x="1536" y="604"/>
      <point x="1536" y="433" type="qcurve" smooth="yes"/>
      <point x="1536" y="246"/>
      <point x="1290" y="1"/>
      <point x="1026" y="0" type="qcurve" smooth="yes"/>
    </contour>
    <contour>
      <point x="678" y="208" type="line"/>
      <point x="715" y="188" type="line"/>
      <point x="810" y="188" type="line" smooth="yes"/>
      <point x="959" y="188"/>
      <point x="1097" y="307"/>
      <point x="1097" y="439" type="qcurve" smooth="yes"/>
      <point x="1097" y="573"/>
      <point x="968" y="698"/>
      <point x="855" y="698" type="qcurve" smooth="yes"/>
      <point x="676" y="698" type="line"/>
      <point x="675" y="687" type="line"/>
    </contour>
    <contour>
      <point x="677" y="894" type="line"/>
      <point x="675" y="875" type="line"/>
      <point x="800" y="875" type="line" smooth="yes"/>
      <point x="914" y="875"/>
      <point x="1017" y="992"/>
      <point x="1017" y="1117" type="qcurve" smooth="yes"/>
      <point x="1017" y="1224"/>
      <point x="909" y="1307"/>
      <point x="808" y="1307" type="qcurve" smooth="yes"/>
      <point x="701" y="1307" type="line"/>
      <point x="680" y="1292" type="line"/>
    </contour>
  </outline>
</glyph>
<glyph name="C" format="2">
  <advance width="1523"/>
  <unicode hex="0043"/>
  <anchor x="864" y="0" name="bottom"/>
  <anchor x="889" y="1500" name="top"/>
  <outline>
    <contour>
      <point x="70" y="698" type="qcurve" smooth="yes"/>
      <point x="70" y="1092"/>
      <point x="554" y="1520"/>
      <point x="887" y="1520" type="qcurve" smooth="yes"/>
      <point x="1029" y="1520"/>
      <point x="1202" y="1474"/>
      <point x="1258" y="1425" type="qcurve"/>
      <point x="1286" y="1501" type="line"/>
      <point x="1454" y="1501" type="line"/>
      <point x="1454" y="1013" type="line"/>
      <point x="1259" y="1013" type="line"/>
      <point x="1227" y="1163" type="line" smooth="yes"/>
      <point x="1211" y="1238"/>
      <point x="1097" y="1314"/>
      <point x="945" y="1314" type="qcurve" smooth="yes"/>
      <point x="759" y="1314"/>
      <point x="542" y="1048"/>
      <point x="543" y="743" type="qcurve" smooth="yes"/>
      <point x="543" y="438"/>
      <point x="790" y="188"/>
      <point x="971" y="188" type="qcurve" smooth="yes"/>
      <point x="1128" y="188"/>
      <point x="1340" y="309"/>
      <point x="1390" y="388" type="qcurve"/>
      <point x="1523" y="249" type="line"/>
      <point x="1435" y="117"/>
      <point x="1123" y="-28"/>
      <point x="865" y="-28" type="qcurve" smooth="yes"/>
      <point x="526" y="-28"/>
      <point x="70" y="385"/>
    </contour>
  </outline>
</glyph>
<glyph name="D" format="2">
  <advance width="1816"/>
  <unicode hex="0044"/>
  <anchor x="840" y="0" name="bottom"/>
  <anchor x="515" y="750" name="center"/>
  <anchor x="840" y="1500" name="top"/>
  <outline>
    <contour>
      <point x="55" y="0" type="line"/>
      <point x="55" y="170" type="line"/>
      <point x="243" y="205" type="line"/>
      <point x="245" y="754" type="line"/>
      <point x="243" y="1282" type="line"/>
      <point x="55" y="1316" type="line"/>
      <point x="55" y="1500" type="line"/>
      <point x="870" y="1500" type="line" smooth="yes"/>
      <point x="1267" y="1501"/>
      <point x="1744" y="1119"/>
      <point x="1744" y="778" type="qcurve" smooth="yes"/>
      <point x="1744" y="410"/>
      <point x="1265" y="0"/>
      <point x="820" y="0" type="qcurve" smooth="yes"/>
    </contour>
    <contour>
      <point x="681" y="198" type="line"/>
      <point x="707" y="192"/>
      <point x="815" y="179"/>
      <point x="870" y="179" type="qcurve" smooth="yes"/>
      <point x="1087" y="179"/>
      <point x="1284" y="467"/>
      <point x="1286" y="755" type="qcurve" smooth="yes"/>
      <point x="1288" y="1018"/>
      <point x="1051" y="1299"/>
      <point x="843" y="1299" type="qcurve" smooth="yes"/>
      <point x="806" y="1299"/>
      <point x="709" y="1286"/>
      <point x="681" y="1281" type="qcurve"/>
      <point x="679" y="749" type="line"/>
    </contour>
  </outline>
</glyph>
<glyph name="E" format="2">
  <advance width="1412"/>
  <unicode hex="0045"/>
  <anchor x="725" y="0" name="bottom"/>
  <anchor x="1362" y="0" name="ogonek"/>
  <anchor x="717" y="1500" name="top"/>
  <outline>
    <contour>
      <point x="55" y="0" type="line"/>
      <point x="55" y="170" type="line"/>
      <point x="243" y="206" type="line"/>
      <point x="245" y="764" type="line"/>
      <point x="243" y="1282" type="line"/>
      <point x="55" y="1316" type="line"/>
      <point x="55" y="1500" type="line"/>
      <point x="1308" y="1500" type="line"/>
      <point x="1308" y="1122" type="line"/>
      <point x="1124" y="1122" type="line"/>
      <point x="1089" y="1305" type="line"/>
      <point x="734" y="1305" type="line"/>
      <point x="681" y="1283" type="line"/>
      <point x="679" y="783" type="line"/>
      <point x="681" y="216" type="line"/>
      <point x="730" y="191" type="line"/>
      <point x="1145" y="191" type="line"/>
      <point x="1218" y="414" type="line"/>
      <point x="1401" y="414" type="line"/>
      <point x="1362" y="0" type="line"/>
    </contour>
    <contour>
      <point x="462" y="700" type="line"/>
      <point x="462" y="868" type="line"/>
      <point x="1000" y="878" type="line"/>
      <point x="1029" y="1026" type="line"/>
      <point x="1197" y="1026" type="line"/>
      <point x="1197" y="542" type="line"/>
      <point x="1029" y="542" type="line"/>
      <point x="1000" y="690" type="line"/>
    </contour>
  </outline>
</glyph>
<glyph name="F" format="2">
  <advance width="1313"/>
  <unicode hex="0046"/>
  <anchor x="657" y="0" name="bottom"/>
  <anchor x="690" y="1500" name="top"/>
  <outline>
    <contour>
      <point x="55" y="0" type="line"/>
      <point x="55" y="170" type="line"/>
      <point x="243" y="206" type="line"/>
      <point x="245" y="756" type="line"/>
      <point x="243" y="1282" type="line"/>
      <point x="55" y="1316" type="line"/>
      <point x="55" y="1500" type="line"/>
      <point x="1300" y="1500" type="line"/>
      <point x="1300" y="1119" type="line"/>
      <point x="1116" y="1119" type="line"/>
      <point x="1081" y="1305" type="line"/>
      <point x="718" y="1305" type="line"/>
      <point x="682" y="1283" type="line"/>
      <point x="684" y="760" type="line"/>
      <point x="686" y="204" type="line"/>
      <point x="884" y="171" type="line"/>
      <point x="884" y="0" type="line"/>
    </contour>
    <contour>
      <point x="464" y="677" type="line"/>
      <point x="464" y="851" type="line"/>
      <point x="999" y="860" type="line"/>
      <point x="1028" y="993" type="line"/>
      <point x="1189" y="993" type="line"/>
      <point x="1189" y="534" type="line"/>
      <point x="1028" y="534" type="line"/>
      <point x="999" y="668" type="line"/>
    </contour>
  </outline>
</glyph>
<glyph name="G" format="2">
  <advance width="1801"/>
  <unicode hex="0047"/>
  <anchor x="928" y="0" name="bottom"/>
  <anchor x="951" y="1500" name="top"/>
  <outline>
    <contour>
      <point x="70" y="737" type="qcurve" smooth="yes"/>
      <point x="70" y="1091"/>
      <point x="549" y="1519"/>
      <point x="952" y="1519" type="qcurve" smooth="yes"/>
      <point x="1050" y="1519"/>
      <point x="1230" y="1490"/>
      <point x="1316" y="1444" type="qcurve"/>
      <point x="1351" y="1487" type="line"/>
      <point x="1524" y="1487" type="line"/>
      <point x="1524" y="1035" type="line"/>
      <point x="1328" y="1035" type="line"/>
      <point x="1293" y="1195" type="line" smooth="yes"/>
      <point x="1285" y="1238"/>
      <point x="1130" y="1312"/>
      <point x="1004" y="1312" type="qcurve" smooth="yes"/>
      <point x="782" y="1312"/>
      <point x="543" y="1052"/>
      <point x="544" y="760" type="qcurve" smooth="yes"/>
      <point x="544" y="444"/>
      <point x="782" y="175"/>
      <point x="996" y="176" type="qcurve" smooth="yes"/>
      <point x="1061" y="176"/>
      <point x="1180" y="201"/>
      <point x="1228" y="223" type="qcurve"/>
      <point x="1228" y="494" type="line"/>
      <point x="1065" y="526" type="line"/>
      <point x="1065" y="706" type="line"/>
      <point x="1754" y="706" type="line"/>
      <point x="1754" y="526" type="line"/>
      <point x="1648" y="494" type="line"/>
      <point x="1648" y="206" type="line"/>
      <point x="1528" y="92"/>
      <point x="1150" y="-28"/>
      <point x="926" y="-28" type="qcurve" smooth="yes"/>
      <point x="555" y="-28"/>
      <point x="70" y="363"/>
    </contour>
  </outline>
</glyph>
<glyph name="H" format="2">
  <advance width="1963"/>
  <unicode hex="0048"/>
  <anchor x="981" y="0" name="bottom"/>
  <anchor x="981" y="1079" name="center"/>
  <anchor x="981" y="1500" name="top"/>
  <outline>
    <contour>
      <point x="55" y="0" type="line"/>
      <point x="55" y="170" type="line"/>
      <point x="243" y="205" type="line"/>
      <point x="245" y="754" type="line"/>
      <point x="243" y="1282" type="line"/>
      <point x="55" y="1316" type="line"/>
      <point x="55" y="1500" type="line"/>
      <point x="868" y="1500" type="line"/>
      <point x="868" y="1316" type="line"/>
      <point x="681" y="1282" type="line"/>
      <point x="679" y="754" type="line"/>
      <point x="681" y="205" type="line"/>
      <point x="868" y="170" type="line"/>
      <point x="868" y="0" type="line"/>
    </contour>
    <contour>
      <point x="464" y="678" type="line"/>
      <point x="464" y="880" type="line"/>
      <point x="982" y="872" type="line"/>
      <point x="1514" y="880" type="line"/>
      <point x="1514" y="678" type="line"/>
      <point x="982" y="678" type="line"/>
    </contour>
    <contour>
      <point x="1095" y="0" type="line"/>
      <point x="1095" y="170" type="line"/>
      <point x="1281" y="205" type="line"/>
      <point x="1283" y="754" type="line"/>
      <point x="1281" y="1282" type="line"/>
      <point x="1095" y="1316" type="line"/>
      <point x="1095" y="1500" type="line"/>
      <point x="1907" y="1500" type="line"/>
      <point x="1907" y="1316" type="line"/>
      <point x="1719" y="1282" type="line"/>
      <point x="1717" y="754" type="line"/>
      <point x="1719" y="205" type="line"/>
      <point x="1907" y="170" type="line"/>
      <point x="1907" y="0" type="line"/>
    </contour>
  </outline>
</glyph>
<glyph name="I" format="2">
  <advance width="945"/>
  <unicode hex="0049"/>
  <anchor x="472" y="0" name="bottom"/>
  <anchor x="172" y="0" name="ogonek"/>
  <anchor x="472" y="1500" name="top"/>
  <outline>
    <contour>
      <point x="55" y="0" type="line"/>
      <point x="55" y="170" type="line"/>
      <point x="253" y="205" type="line"/>
      <point x="255" y="754" type="line"/>
      <point x="253" y="1282" type="line"/>
      <point x="55" y="1316" type="line"/>
      <point x="55" y="1500" type="line"/>
      <point x="889" y="1500" type="line"/>
      <point x="889" y="1316" type="line"/>
      <point x="691" y="1282" type="line"/>
      <point x="689" y="754" type="line"/>
      <point x="691" y="205" type="line"/>
      <point x="889" y="170" type="line"/>
      <point x="889" y="0" type="line"/>
    </contour>
  </outline>
</glyph>
<glyph name="J" format="2">
  <advance width="912"/>
  <unicode hex="004A"/>
  <anchor x="456" y="-339" name="bottom"/>
  <anchor x="456" y="1500" name="top"/>
  <outline>
    <contour>
      <point x="-27" y="-327" type="qcurve"/>
      <point x="-27" y="-148" type="line"/>
      <point x="-10" y="-148"/>
      <point x="22" y="-146"/>
      <point x="57" y="-143" type="qcurve" smooth="yes"/>
      <point x="160" y="-135"/>
      <point x="239" y="-33"/>
      <point x="238" y="110" type="qcurve" smooth="yes"/>
      <point x="239" y="701" type="line"/>
      <point x="237" y="1282" type="line"/>
      <point x="9" y="1316" type="line"/>
      <point x="9" y="1500" type="line"/>
      <point x="857" y="1500" type="line"/>
      <point x="857" y="1316" type="line"/>
      <point x="675" y="1282" type="line"/>
      <point x="674" y="701" type="line"/>
      <point x="672" y="134" type="line" smooth="yes"/>
      <point x="672" y="-90"/>
      <point x="389" y="-339"/>
      <point x="149" y="-339" type="qcurve" smooth="yes"/>
      <point x="110" y="-339"/>
      <point x="12" y="-335"/>
    </contour>
  </outline>
</glyph>
<glyph name="K" format="2">
  <advance width="1756"/>
  <unicode hex="004B"/>
  <anchor x="901" y="0" name="bottom"/>
  <anchor x="890" y="1500" name="top"/>
  <outline>
    <contour>
      <point x="55" y="0" type="line"/>
      <point x="55" y="170" type="line"/>
      <point x="243" y="205" type="line"/>
      <point x="245" y="754" type="line"/>
      <point x="243" y="1282" type="line"/>
      <point x="55" y="1316" type="line"/>
      <point x="55" y="1500" type="line"/>
      <point x="875" y="1500" type="line"/>
      <point x="875" y="1316" type="line"/>
      <point x="681" y="1282" type="line"/>
      <point x="679" y="754" type="line"/>
      <point x="681" y="205" type="line"/>
      <point x="855" y="170" type="line"/>
      <point x="855" y="0" type="line"/>
    </contour>
    <contour>
      <point x="468" y="305" type="line"/>
      <point x="468" y="541" type="line"/>
      <point x="1190" y="1289" type="line"/>
      <point x="1048" y="1317" type="line"/>
      <point x="1048" y="1500" type="line"/>
      <point x="1621" y="1500" type="line"/>
      <point x="1621" y="1317" type="line"/>
      <point x="1423" y="1279" type="line"/>
      <point x="1000" y="852" type="line"/>
      <point x="960" y="811" type="line"/>
    </contour>
    <contour>
      <point x="787" y="764" type="line"/>
      <point x="1087" y="1064" type="line"/>
      <point x="1605" y="205" type="line"/>
      <point x="1766" y="170" type="line"/>
      <point x="1766" y="0" type="line"/>
      <point x="995" y="0" type="line"/>
      <point x="995" y="170" type="line"/>
      <point x="1124" y="205" type="line"/>
    </contour>
  </outline>
</glyph>
<glyph name="L" format="2">
  <advance width="1403"/>
  <unicode hex="004C"/>
  <anchor x="740" y="0" name="bottom"/>
  <anchor x="1146" y="818" name="center"/>
  <anchor x="608" y="1500" name="top"/>
  <anchor x="880" y="1084" name="topright"/>
  <outline>
    <contour>
      <point x="83" y="0" type="line"/>
      <point x="83" y="170" type="line"/>
      <point x="243" y="204" type="line"/>
      <point x="245" y="754" type="line"/>
      <point x="243" y="1282" type="line"/>
      <point x="55" y="1316" type="line"/>
      <point x="55" y="1500" type="line"/>
      <point x="890" y="1500" type="line"/>
      <point x="890" y="1316" type="line"/>
      <point x="682" y="1282" type="line"/>
      <point x="681" y="754" type="line"/>
      <point x="683" y="208" type="line"/>
      <point x="717" y="181" type="line"/>
      <point x="1117" y="181" type="line"/>
      <point x="1199" y="446" type="line"/>
      <point x="1383" y="446" type="line"/>
      <point x="1341" y="0" type="line"/>
    </contour>
  </outline>
</glyph>
<glyph name="M" format="2">
  <advance width="2234"/>
  <unicode hex="004D"/>
  <anchor x="1117" y="0" name="bottom"/>
  <anchor x="1117" y="1500" name="top"/>
  <outline>
    <contour>
      <point x="61" y="0" type="line"/>
      <point x="61" y="170" type="line"/>
      <point x="241" y="205" type="line"/>
      <point x="243" y="754" type="line"/>
      <point x="241" y="1283" type="line"/>
      <point x="61" y="1317" type="line"/>
      <point x="61" y="1500" type="line"/>
      <point x="719" y="1500" type="line"/>
      <point x="918" y="889" type="line"/>
      <point x="1082" y="397" type="line"/>
      <point x="1248" y="893" type="line"/>
      <point x="1444" y="1500" type="line"/>
      <point x="2179" y="1500" type="line"/>
      <point x="2179" y="1317" type="line"/>
      <point x="1998" y="1283" type="line"/>
      <point x="1996" y="754" type="line"/>
      <point x="1998" y="205" type="line"/>
      <point x="2179" y="170" type="line"/>
      <point x="2179" y="0" type="line"/>
      <point x="1375" y="0" type="line"/>
      <point x="1375" y="170" type="line"/>
      <point x="1559" y="205" type="line"/>
      <point x="1561" y="753" type="line"/>
      <point x="1559" y="1281" type="line"/>
      <point x="1389" y="751" type="line"/>
      <point x="1148" y="-6" type="line"/>
      <point x="783" y="-6" type="line"/>
      <point x="560" y="729" type="line"/>
      <point x="398" y="1237" type="line"/>
      <point x="405" y="754" type="line"/>
      <point x="407" y="205" type="line"/>
      <point x="575" y="170" type="line"/>
      <point x="575" y="0" type="line"/>
    </contour>
  </outline>
</glyph>
<glyph name="N" format="2">
  <advance width="1710"/>
  <unicode hex="004E"/>
  <anchor x="855" y="0" name="bottom"/>
  <anchor x="855" y="1500" name="top"/>
  <outline>
    <contour>
      <point x="55" y="0" type="line"/>
      <point x="55" y="170" type="line"/>
      <point x="227" y="205" type="line"/>
      <point x="229" y="754" type="line"/>
      <point x="227" y="1283" type="line"/>
      <point x="55" y="1317" type="line"/>
      <point x="55" y="1500" type="line"/>
      <point x="707" y="1500" type="line"/>
      <point x="1057" y="884" type="line"/>
      <point x="1303" y="479" type="line"/>
      <point x="1296" y="787" type="line"/>
      <point x="1294" y="1283" type="line"/>
      <point x="1131" y="1317" type="line"/>
      <point x="1131" y="1500" type="line"/>
      <point x="1654" y="1500" type="line"/>
      <point x="1654" y="1317" type="line"/>
      <point x="1484" y="1283" type="line"/>
      <point x="1482" y="771" type="line"/>
      <point x="1478" y="0" type="line"/>
      <point x="1086" y="0" type="line"/>
      <point x="693" y="670" type="line"/>
      <point x="407" y="1156" type="line"/>
      <point x="415" y="719" type="line"/>
      <point x="417" y="205" type="line"/>
      <point x="575" y="170" type="line"/>
      <point x="575" y="0" type="line"/>
    </contour>
  </outline>
</glyph>
<glyph name="O" format="2">
  <advance width="1920"/>
  <unicode hex="004F"/>
  <anchor x="960" y="0" name="bottom"/>
  <anchor x="960" y="750" name="center"/>
  <anchor x="1220" y="0" name="ogonek"/>
  <anchor x="960" y="1500" name="top"/>
  <anchor x="1217" y="1500" name="topright"/>
  <outline>
    <contour>
      <point x="70" y="741" type="qcurve" smooth="yes"/>
      <point x="70" y="1072"/>
      <point x="556" y="1525"/>
      <point x="960" y="1525" type="qcurve" smooth="yes"/>
      <point x="1365" y="1525"/>
      <point x="1850" y="1101"/>
      <point x="1850" y="756" type="qcurve" smooth="yes"/>
      <point x="1850" y="427"/>
      <point x="1369" y="-27"/>
      <point x="965" y="-27" type="qcurve" smooth="yes"/>
      <point x="563" y="-27"/>
      <point x="70" y="400"/>
    </contour>
    <contour>
      <point x="545" y="774" type="qcurve" smooth="yes"/>
      <point x="545" y="474"/>
      <point x="776" y="179"/>
      <point x="962" y="179" type="qcurve" smooth="yes"/>
      <point x="1164" y="179"/>
      <point x="1376" y="436"/>
      <point x="1376" y="752" type="qcurve" smooth="yes"/>
      <point x="1376" y="1035"/>
      <point x="1148" y="1315"/>
      <point x="961" y="1315" type="qcurve" smooth="yes"/>
      <point x="758" y="1315"/>
      <point x="545" y="1053"/>
    </contour>
  </outline>
</glyph>
<glyph name="P" format="2">
  <advance width="1606"/>
  <unicode hex="0050"/>
  <anchor x="803" y="0" name="bottom"/>
  <anchor x="803" y="1500" name="top"/>
  <outline>
    <contour>
      <point x="55" y="0" type="line"/>
      <point x="55" y="170" type="line"/>
      <point x="243" y="206" type="line"/>
      <point x="245" y="754" type="line"/>
      <point x="243" y="1282" type="line"/>
      <point x="55" y="1316" type="line"/>
      <point x="55" y="1500" type="line"/>
      <point x="1031" y="1500" type="line" smooth="yes"/>
      <point x="1295" y="1500"/>
      <point x="1559" y="1276"/>
      <point x="1559" y="1061" type="qcurve" smooth="yes"/>
      <point x="1559" y="811"/>
      <point x="1241" y="548"/>
      <point x="939" y="548" type="qcurve" smooth="yes"/>
      <point x="833" y="548"/>
      <point x="674" y="563"/>
      <point x="599" y="577" type="qcurve"/>
      <point x="608" y="753" type="line"/>
      <point x="663" y="743"/>
      <point x="757" y="734"/>
      <point x="836" y="734" type="qcurve" smooth="yes"/>
      <point x="968" y="734"/>
      <point x="1111" y="883"/>
      <point x="1108" y="1050" type="qcurve" smooth="yes"/>
      <point x="1106" y="1183"/>
      <point x="963" y="1299"/>
      <point x="838" y="1299" type="qcurve" smooth="yes"/>
      <point x="712" y="1299" type="line"/>
      <point x="682" y="1278" type="line"/>
      <point x="679" y="764" type="line"/>
      <point x="681" y="204" type="line"/>
      <point x="877" y="170" type="line"/>
      <point x="877" y="0" type="line"/>
    </contour>
  </outline>
</glyph>
<glyph name="Q" format="2">
  <advance width="1920"/>
  <unicode hex="0051"/>
  <anchor x="960" y="0" name="bottom"/>
  <anchor x="960" y="1500" name="top"/>
  <outline>
    <contour>
      <point x="70" y="744" type="qcurve" smooth="yes"/>
      <point x="70" y="1074"/>
      <point x="567" y="1525"/>
      <point x="960" y="1525" type="qcurve" smooth="yes"/>
      <point x="1357" y="1525"/>
      <point x="1850" y="1103"/>
      <point x="1850" y="757" type="qcurve" smooth="yes"/>
      <point x="1850" y="420"/>
      <point x="1352" y="-15"/>
      <point x="963" y="-15" type="qcurve" smooth="yes"/>
      <point x="572" y="-15"/>
      <point x="70" y="406"/>
    </contour>
    <contour>
      <point x="543" y="778" type="qcurve" smooth="yes"/>
      <point x="544" y="495"/>
      <point x="773" y="192"/>
      <point x="959" y="192" type="qcurve" smooth="yes"/>
      <point x="1160" y="192"/>
      <point x="1373" y="461"/>
      <point x="1374" y="755" type="qcurve" smooth="yes"/>
      <point x="1374" y="1037"/>
      <point x="1148" y="1315"/>
      <point x="960" y="1315" type="qcurve" smooth="yes"/>
      <point x="758" y="1315"/>
      <point x="542" y="1067"/>
    </contour>
    <contour>
      <point x="334" y="-463" type="qcurve"/>
      <point x="205" y="-348" type="line"/>
      <point x="272" y="-202"/>
      <point x="478" y="-55"/>
      <point x="579" y="-43" type="qcurve"/>
      <point x="761" y="163" type="line"/>
      <point x="890" y="74" type="line"/>
      <point x="749" y="-67" type="line"/>
      <point x="1380" y="-218" type="line"/>
      <point x="1488" y="-218"/>
      <point x="1625" y="-124"/>
      <point x="1661" y="-47" type="qcurve"/>
      <point x="1809" y="-123" type="line"/>
      <point x="1764" y="-280"/>
      <point x="1579" y="-501"/>
      <point x="1422" y="-501" type="qcurve"/>
      <point x="680" y="-314" type="line"/>
      <point x="548" y="-308"/>
      <point x="396" y="-370"/>
    </contour>
  </outline>
</glyph>
<glyph name="R" format="2">
  <advance width="1749"/>
  <unicode hex="0052"/>
  <anchor x="899" y="0" name="bottom"/>
  <anchor x="822" y="1500" name="top"/>
  <outline>
    <contour>
      <point x="55" y="0" type="line"/>
      <point x="55" y="170" type="line"/>
      <point x="243" y="205" type="line"/>
      <point x="245" y="727" type="line"/>
      <point x="243" y="1282" type="line"/>
      <point x="55" y="1316" type="line"/>
      <point x="55" y="1500" type="line"/>
      <point x="1051" y="1500" type="line" smooth="yes"/>
      <point x="1273" y="1500"/>
      <point x="1498" y="1274"/>
      <point x="1498" y="1085" type="qcurve" smooth="yes"/>
      <point x="1498" y="896"/>
      <point x="1240" y="647"/>
      <point x="1058" y="647" type="qcurve" smooth="yes"/>
      <point x="982" y="647"/>
      <point x="511" y="655"/>
      <point x="458" y="661" type="qcurve"/>
      <point x="458" y="840" type="line"/>
      <point x="817" y="840" type="line" smooth="yes"/>
      <point x="937" y="840"/>
      <point x="1045" y="937"/>
      <point x="1045" y="1067" type="qcurve" smooth="yes"/>
      <point x="1045" y="1177"/>
      <point x="944" y="1299"/>
      <point x="838" y="1299" type="qcurve" smooth="yes"/>
      <point x="707" y="1299" type="line"/>
      <point x="683" y="1282" type="line"/>
      <point x="680" y="707" type="line"/>
      <point x="681" y="205" type="line"/>
      <point x="873" y="170" type="line"/>
      <point x="873" y="0" type="line"/>
    </contour>
    <contour>
      <point x="819" y="729" type="line"/>
      <point x="1186" y="841" type="line"/>
      <point x="1436" y="393" type="line" smooth="yes"/>
      <point x="1505" y="270"/>
      <point x="1653" y="174"/>
      <point x="1737" y="170" type="qcurve"/>
      <point x="1737" y="0" type="line"/>
      <point x="1243" y="0" type="line"/>
      <point x="1145" y="99" type="line"/>
    </contour>
  </outline>
</glyph>
<glyph name="S" format="2">
  <advance width="1299"/>
  <unicode hex="0053"/>
  <anchor x="663" y="0" name="bottom"/>
  <anchor x="589" y="1500" name="top"/>
  <outline>
    <contour>
      <point x="26" y="-1" type="line"/>
      <point x="26" y="475" type="line"/>
      <point x="220" y="475" type="line"/>
      <point x="256" y="292" type="line" smooth="yes"/>
      <point x="309" y="252"/>
      <point x="488" y="173"/>
      <point x="606" y="173" type="qcurve" smooth="yes"/>
      <point x="720" y="173"/>
      <point x="878" y="276"/>
      <point x="878" y="366" type="qcurve" smooth="yes"/>
      <point x="878" y="457"/>
      <point x="715" y="563"/>
      <point x="517" y="614" type="qcurve" smooth="yes"/>
      <point x="266" y="683"/>
      <point x="52" y="922"/>
      <point x="52" y="1098" type="qcurve" smooth="yes"/>
      <point x="52" y="1287"/>
      <point x="327" y="1525"/>
      <point x="588" y="1525" type="qcurve" smooth="yes"/>
      <point x="721" y="1525"/>
      <point x="900" y="1492"/>
      <point x="974" y="1456" type="qcurve"/>
      <point x="995" y="1496" type="line"/>
      <point x="1154" y="1496" type="line"/>
      <point x="1154" y="1068" type="line"/>
      <point x="966" y="1068" type="line"/>
      <point x="930" y="1232" type="line" smooth="yes"/>
      <point x="875" y="1264"/>
      <point x="725" y="1309"/>
      <point x="631" y="1309" type="qcurve" smooth="yes"/>
      <point x="501" y="1309"/>
      <point x="399" y="1233"/>
      <point x="399" y="1166" type="qcurve" smooth="yes"/>
      <point x="399" y="1100"/>
      <point x="531" y="1016"/>
      <point x="741" y="953" type="qcurve" smooth="yes"/>
      <point x="1007" y="870"/>
      <point x="1251" y="647"/>
      <point x="1251" y="447" type="qcurve" smooth="yes"/>
      <point x="1251" y="241"/>
      <point x="931" y="-24"/>
      <point x="670" y="-24" type="qcurve" smooth="yes"/>
      <point x="529" y="-24"/>
      <point x="330" y="18"/>
      <point x="237" y="75" type="qcurve"/>
      <point x="198" y="-1" type="line"/>
    </contour>
  </outline>
</glyph>
<glyph name="T" format="2">
  <advance width="1481"/>
  <unicode hex="0054"/>
  <anchor x="741" y="0" name="bottom"/>
  <anchor x="741" y="750" name="center"/>
  <anchor x="741" y="1500" name="top"/>
  <outline>
    <contour>
      <point x="33" y="1041" type="line"/>
      <point x="33" y="1500" type="line"/>
      <point x="1448" y="1500" type="line"/>
      <point x="1448" y="1041" type="line"/>
      <point x="1264" y="1041" type="line"/>
      <point x="1226" y="1309" type="line"/>
      <point x="976" y="1309" type="line"/>
      <point x="958" y="1292" type="line"/>
      <point x="958" y="754" type="line"/>
      <point x="959" y="205" type="line"/>
      <point x="1157" y="170" type="line"/>
      <point x="1157" y="0" type="line"/>
      <point x="323" y="0" type="line"/>
      <point x="323" y="170" type="line"/>
      <point x="521" y="205" type="line"/>
      <point x="523" y="754" type="line"/>
      <point x="523" y="1292" type="line"/>
      <point x="513" y="1309" type="line"/>
      <point x="255" y="1309" type="line"/>
      <point x="216" y="1041" type="line"/>
    </contour>
  </outline>
</glyph>
<glyph name="U" format="2">
  <advance width="1738"/>
  <unicode hex="0055"/>
  <anchor x="869" y="0" name="bottom"/>
  <anchor x="1122" y="0" name="ogonek"/>
  <anchor x="869" y="1500" name="top"/>
  <anchor x="1674" y="1500" name="topright"/>
  <outline>
    <contour>
      <point x="48" y="1317" type="line"/>
      <point x="48" y="1500" type="line"/>
      <point x="867" y="1500" type="line"/>
      <point x="867" y="1317" type="line"/>
      <point x="693" y="1283" type="line"/>
      <point x="689" y="794" type="line"/>
      <point x="692" y="532" type="line" smooth="yes"/>
      <point x="691" y="370"/>
      <point x="828" y="193"/>
      <point x="1000" y="193" type="qcurve" smooth="yes"/>
      <point x="1158" y="193"/>
      <point x="1312" y="366"/>
      <point x="1313" y="548" type="qcurve" smooth="yes"/>
      <point x="1314" y="794" type="line"/>
      <point x="1313" y="1283" type="line"/>
      <point x="1128" y="1317" type="line"/>
      <point x="1128" y="1500" type="line"/>
      <point x="1674" y="1500" type="line"/>
      <point x="1674" y="1317" type="line"/>
      <point x="1501" y="1283" type="line"/>
      <point x="1500" y="794" type="line"/>
      <point x="1502" y="508" type="line" smooth="yes"/>
      <point x="1504" y="259"/>
      <point x="1184" y="-28"/>
      <point x="894" y="-28" type="qcurve" smooth="yes"/>
      <point x="575" y="-28"/>
      <point x="240" y="228"/>
      <point x="242" y="476" type="qcurve" smooth="yes"/>
      <point x="243" y="794" type="line"/>
      <point x="242" y="1283" type="line"/>
    </contour>
  </outline>
</glyph>
<glyph name="V" format="2">
  <advance width="1623"/>
  <unicode hex="0056"/>
  <anchor x="811" y="0" name="bottom"/>
  <anchor x="811" y="1500" name="top"/>
  <outline>
    <contour>
      <point x="-3" y="1317" type="line"/>
      <point x="-3" y="1500" type="line"/>
      <point x="785" y="1500" type="line"/>
      <point x="785" y="1317" type="line"/>
      <point x="627" y="1280" type="line"/>
      <point x="780" y="832" type="line"/>
      <point x="958" y="381" type="line"/>
      <point x="1121" y="829" type="line"/>
      <point x="1261" y="1283" type="line"/>
      <point x="1094" y="1317" type="line"/>
      <point x="1094" y="1500" type="line"/>
      <point x="1633" y="1500" type="line"/>
      <point x="1633" y="1317" type="line"/>
      <point x="1472" y="1281" type="line"/>
      <point x="1294" y="775" type="line"/>
      <point x="1033" y="-3" type="line"/>
      <point x="613" y="-3" type="line"/>
      <point x="350" y="749" type="line"/>
      <point x="160" y="1281" type="line"/>
    </contour>
  </outline>
</glyph>
<glyph name="W" format="2">
  <advance width="2399"/>
  <unicode hex="0057"/>
  <anchor x="1199" y="0" name="bottom"/>
  <anchor x="1199" y="1500" name="top"/>
  <outline>
    <contour>
      <point x="-3" y="1317" type="line"/>
      <point x="-3" y="1500" type="line"/>
      <point x="748" y="1500" type="line"/>
      <point x="748" y="1317" type="line"/>
      <point x="605" y="1280" type="line"/>
      <point x="746" y="831" type="line"/>
      <point x="888" y="396" type="line"/>
      <point x="1062" y="893" type="line"/>
      <point x="1178" y="1236" type="line"/>
      <point x="1296" y="979" type="line"/>
      <point x="1219" y="782" type="line"/>
      <point x="958" y="-3" type="line"/>
      <point x="576" y="-3" type="line"/>
      <point x="341" y="730" type="line"/>
      <point x="154" y="1281" type="line"/>
    </contour>
    <contour>
      <point x="918" y="1321" type="line"/>
      <point x="918" y="1500" type="line"/>
      <point x="1627" y="1500" type="line"/>
      <point x="1627" y="1321" type="line"/>
      <point x="1492" y="1285" type="line"/>
      <point x="1624" y="839" type="line"/>
      <point x="1763" y="412" type="line"/>
      <point x="1899" y="842" type="line"/>
      <point x="2029" y="1283" type="line"/>
      <point x="1863" y="1317" type="line"/>
      <point x="1863" y="1500" type="line"/>
      <point x="2409" y="1500" type="line"/>
      <point x="2409" y="1317" type="line"/>
      <point x="2238" y="1281" type="line"/>
      <point x="2078" y="784" type="line"/>
      <point x="1840" y="-3" type="line"/>
      <point x="1459" y="-3" type="line"/>
      <point x="1253" y="708" type="line"/>
      <point x="1062" y="1286" type="line"/>
    </contour>
  </outline>
</glyph>
<glyph name="X" format="2">
  <advance width="1616"/>
  <unicode hex="0058"/>
  <anchor x="808" y="0" name="bottom"/>
  <anchor x="808" y="1500" name="top"/>
  <outline>
    <contour>
      <point x="0" y="0" type="line"/>
      <point x="0" y="170" type="line"/>
      <point x="155" y="204" type="line"/>
      <point x="721" y="845" type="line"/>
      <point x="821" y="845" type="line"/>
      <point x="1156" y="1285" type="line"/>
      <point x="1021" y="1317" type="line"/>
      <point x="1021" y="1500" type="line"/>
      <point x="1547" y="1500" type="line"/>
      <point x="1547" y="1317" type="line"/>
      <point x="1386" y="1284" type="line"/>
      <point x="932" y="724" type="line"/>
      <point x="831" y="724" type="line"/>
      <point x="386" y="203" type="line"/>
      <point x="535" y="170" type="line"/>
      <point x="535" y="0" type="line"/>
    </contour>
    <contour>
      <point x="47" y="1317" type="line"/>
      <point x="47" y="1500" type="line"/>
      <point x="881" y="1500" type="line"/>
      <point x="881" y="1317" type="line"/>
      <point x="735" y="1283" type="line"/>
      <point x="1003" y="859" type="line"/>
      <point x="1445" y="204" type="line"/>
      <point x="1623" y="170" type="line"/>
      <point x="1623" y="0" type="line"/>
      <point x="786" y="0" type="line"/>
      <point x="786" y="170" type="line"/>
      <point x="929" y="204" type="line"/>
      <point x="609" y="723" type="line"/>
      <point x="225" y="1284" type="line"/>
    </contour>
  </outline>
</glyph>
<glyph name="Y" format="2">
  <advance width="1506"/>
  <unicode hex="0059"/>
  <anchor x="753" y="0" name="bottom"/>
  <anchor x="758" y="1500" name="top"/>
  <outline>
    <contour>
      <point x="-3" y="1317" type="line"/>
      <point x="-3" y="1500" type="line"/>
      <point x="789" y="1500" type="line"/>
      <point x="789" y="1317" type="line"/>
      <point x="639" y="1282" type="line"/>
      <point x="752" y="1070" type="line"/>
      <point x="887" y="825" type="line"/>
      <point x="1018" y="1055" type="line"/>
      <point x="1135" y="1285" type="line"/>
      <point x="983" y="1317" type="line"/>
      <point x="983" y="1500" type="line"/>
      <point x="1508" y="1500" type="line"/>
      <point x="1508" y="1317" type="line"/>
      <point x="1350" y="1285" type="line"/>
      <point x="1195" y="1017" type="line"/>
      <point x="978" y="610" type="line"/>
      <point x="979" y="204" type="line"/>
      <point x="1175" y="170" type="line"/>
      <point x="1175" y="0" type="line"/>
      <point x="340" y="0" type="line"/>
      <point x="340" y="170" type="line"/>
      <point x="539" y="204" type="line"/>
      <point x="541" y="612" type="line"/>
      <point x="327" y="990" type="line"/>
      <point x="149" y="1285" type="line"/>
    </contour>
  </outline>
</glyph>
<glyph name="Z" format="2">
  <advance width="1392"/>
  <unicode hex="005A"/>
  <anchor x="696" y="0" name="bottom"/>
  <anchor x="696" y="1500" name="top"/>
  <outline>
    <contour>
      <point x="86" y="0" type="line"/>
      <point x="40" y="126" type="line"/>
      <point x="797" y="1292" type="line"/>
      <point x="783" y="1312" type="line"/>
      <point x="313" y="1312" type="line"/>
      <point x="269" y="1068" type="line"/>
      <point x="75" y="1068" type="line"/>
      <point x="75" y="1500" type="line"/>
      <point x="1306" y="1500" type="line"/>
      <point x="1306" y="1346" type="line"/>
      <point x="581" y="209" type="line"/>
      <point x="596" y="184" type="line"/>
      <point x="1110" y="184" type="line"/>
      <point x="1180" y="433" type="line"/>
      <point x="1377" y="433" type="line"/>
      <point x="1335" y="0" type="line"/>
    </contour>
  </outline>
</glyph>
<glyph name="backslash" format="2">
  <advance width="837"/>
  <unicode hex="005C"/>
  <outline>
    <contour>
      <point x="-20" y="1499" type="line"/>
      <point x="257" y="1598" type="line"/>
      <point x="873" y="-78" type="line"/>
      <point x="596" y="-176" type="line"/>
    </contour>
  </outline>
</glyph>
<glyph name="bracketright" format="2">
  <advance width="791"/>
  <unicode hex="005D"/>
  <outline>
    <contour>
      <point x="75" y="-480" type="line"/>
      <point x="75" y="-321" type="line"/>
      <point x="268" y="-302" type="line"/>
      <point x="270" y="508" type="line"/>
      <point x="268" y="1322" type="line"/>
      <point x="85" y="1341" type="line"/>
      <point x="75" y="1500" type="line"/>
      <point x="662" y="1500" type="line"/>
      <point x="662" y="1382" type="line"/>
      <point x="653" y="1362" type="line"/>
      <point x="641" y="508" type="line"/>
      <point x="653" y="-342" type="line"/>
      <point x="662" y="-362" type="line"/>
      <point x="662" y="-480" type="line"/>
    </contour>
  </outline>
</glyph>
<glyph name="underscore" format="2">
  <advance width="1535"/>
  <unicode hex="005F"/>
  <outline>
    <contour>
      <point x="-20" y="-503" type="line"/>
      <point x="-20" y="-244" type="line"/>
      <point x="765" y="-242" type="line"/>
      <point x="1555" y="-244" type="line"/>
      <point x="1555" y="-503" type="line"/>
      <point x="765" y="-489" type="line"/>
    </contour>
  </outline>
</glyph>
<glyph name="grave" format="2">
  <advance width="1024"/>
  <unicode hex="0060"/>
  <outline>
    <contour>
      <point x="245" y="1640" type="qcurve" smooth="yes"/>
      <point x="245" y="1681"/>
      <point x="327" y="1761"/>
      <point x="388" y="1761" type="qcurve" smooth="yes"/>
      <point x="433" y="1761"/>
      <point x="517" y="1697"/>
      <point x="560" y="1642" type="qcurve" smooth="yes"/>
      <point x="770" y="1384" type="line"/>
      <point x="666" y="1270" type="line"/>
      <point x="337" y="1490" type="line" smooth="yes"/>
      <point x="287" y="1523"/>
      <point x="245" y="1595"/>
    </contour>
  </outline>
</glyph>
<glyph name="a" format="2">
  <advance width="1367"/>
  <unicode hex="0061"/>
  <anchor x="684" y="0" name="bottom"/>
  <anchor x="942" y="0" name="ogonek"/>
  <anchor x="656" y="1083" name="top"/>
  <outline>
    <contour>
      <point x="15" y="287" type="qcurve" smooth="yes"/>
      <point x="15" y="450"/>
      <point x="346" y="659"/>
      <point x="931" y="654" type="qcurve"/>
      <point x="940" y="520" type="line"/>
      <point x="606" y="526"/>
      <point x="419" y="421"/>
      <point x="420" y="324" type="qcurve" smooth="yes"/>
      <point x="420" y="241"/>
      <point x="514" y="164"/>
      <point x="587" y="164" type="qcurve" smooth="yes"/>
      <point x="658" y="164"/>
      <point x="748" y="238"/>
      <point x="764" y="280" type="qcurve"/>
      <point x="767" y="691" type="line" smooth="yes"/>
      <point x="768" y="818"/>
      <point x="669" y="933"/>
      <point x="555" y="933" type="qcurve" smooth="yes"/>
      <point x="493" y="933"/>
      <point x="391" y="913"/>
      <point x="373" y="897" type="qcurve"/>
      <point x="399" y="885"/>
      <point x="429" y="836"/>
      <point x="429" y="797" type="qcurve" smooth="yes"/>
      <point x="428" y="751"/>
      <point x="354" y="679"/>
      <point x="284" y="675" type="qcurve" smooth="yes"/>
      <point x="212" y="672"/>
      <point x="118" y="743"/>
      <point x="118" y="817" type="qcurve" smooth="yes"/>
      <point x="118" y="948"/>
      <point x="394" y="1108"/>
      <point x="657" y="1108" type="qcurve" smooth="yes"/>
      <point x="916" y="1108"/>
      <point x="1179" y="913"/>
      <point x="1182" y="700" type="qcurve" smooth="yes"/>
      <point x="1189" y="199" type="line"/>
      <point x="1336" y="164" type="line"/>
      <point x="1336" y="0" type="line"/>
      <point x="832" y="0" type="line"/>
      <point x="787" y="51" type="line"/>
      <point x="779" y="141" type="line"/>
      <point x="747" y="88"/>
      <point x="561" y="-18"/>
      <point x="403" y="-18" type="qcurve" smooth="yes"/>
      <point x="224" y="-18"/>
      <point x="15" y="135"/>
    </contour>
  </outline>
</glyph>
<glyph name="b" format="2">
  <advance width="1558"/>
  <unicode hex="0062"/>
  <anchor x="779" y="0" name="bottom"/>
  <anchor x="779" y="1534" name="top"/>
  <outline>
    <contour>
      <point x="174" y="0" type="line"/>
      <point x="183" y="510" type="line"/>
      <point x="178" y="1298" type="line"/>
      <point x="23" y="1328" type="line"/>
      <point x="23" y="1500" type="line"/>
      <point x="522" y="1534" type="line"/>
      <point x="554" y="1534" type="line"/>
      <point x="601" y="1492" type="line"/>
      <point x="600" y="965" type="line"/>
      <point x="656" y="1025"/>
      <point x="844" y="1105"/>
      <point x="974" y="1105" type="qcurve" smooth="yes"/>
      <point x="1205" y="1105"/>
      <point x="1496" y="819"/>
      <point x="1496" y="574" type="qcurve" smooth="yes"/>
      <point x="1496" y="309"/>
      <point x="1194" y="-16"/>
      <point x="930" y="-16" type="qcurve" smooth="yes"/>
      <point x="809" y="-16"/>
      <point x="629" y="42"/>
      <point x="580" y="81" type="qcurve"/>
      <point x="501" y="0" type="line"/>
    </contour>
    <contour>
      <point x="596" y="446" type="line"/>
      <point x="600" y="292" type="line"/>
      <point x="628" y="248"/>
      <point x="743" y="181"/>
      <point x="819" y="181" type="qcurve" smooth="yes"/>
      <point x="926" y="181"/>
      <point x="1047" y="358"/>
      <point x="1047" y="531" type="qcurve" smooth="yes"/>
      <point x="1047" y="706"/>
      <point x="936" y="862"/>
      <point x="837" y="862" type="qcurve" smooth="yes"/>
      <point x="753" y="862"/>
      <point x="634" y="797"/>
      <point x="601" y="747" type="qcurve"/>
    </contour>
  </outline>
</glyph>
<glyph name="c" format="2">
  <advance width="1190"/>
  <unicode hex="0063"/>
  <anchor x="685" y="0" name="bottom"/>
  <anchor x="648" y="1083" name="top"/>
  <outline>
    <contour>
      <point x="56" y="517" type="qcurve" smooth="yes"/>
      <point x="56" y="808"/>
      <point x="405" y="1109"/>
      <point x="648" y="1109" type="qcurve" smooth="yes"/>
      <point x="770" y="1109"/>
      <point x="913" y="1063"/>
      <point x="958" y="1027" type="qcurve"/>
      <point x="990" y="1084" type="line"/>
      <point x="1145" y="1084" type="line"/>
      <point x="1145" y="660" type="line"/>
      <point x="978" y="658" type="line"/>
      <point x="941" y="791" type="line" smooth="yes"/>
      <point x="925" y="843"/>
      <point x="834" y="908"/>
      <point x="747" y="908" type="qcurve" smooth="yes"/>
      <point x="642" y="908"/>
      <point x="508" y="728"/>
      <point x="508" y="534" type="qcurve" smooth="yes"/>
      <point x="508" y="356"/>
      <point x="684" y="189"/>
      <point x="813" y="189" type="qcurve" smooth="yes"/>
      <point x="904" y="189"/>
      <point x="1032" y="254"/>
      <point x="1077" y="301" type="qcurve"/>
      <point x="1196" y="149" type="line"/>
      <point x="1135" y="76"/>
      <point x="877" y="-25"/>
      <point x="684" y="-25" type="qcurve" smooth="yes"/>
      <point x="401" y="-25"/>
      <point x="56" y="268"/>
    </contour>
  </outline>
</glyph>
<glyph name="d" format="2">
  <advance width="1569"/>
  <unicode hex="0064"/>
  <anchor x="784" y="0" name="bottom"/>
  <anchor x="1075" y="1213" name="center"/>
  <anchor x="784" y="1534" name="top"/>
  <anchor x="1366" y="1083" name="topright"/>
  <outline>
    <contour>
      <point x="59" y="526" type="qcurve" smooth="yes"/>
      <point x="59" y="801"/>
      <point x="390" y="1103"/>
      <point x="644" y="1103" type="qcurve" smooth="yes"/>
      <point x="738" y="1103"/>
      <point x="901" y="1063"/>
      <point x="956" y="1031" type="qcurve"/>
      <point x="955" y="1299" type="line"/>
      <point x="802" y="1329" type="line"/>
      <point x="802" y="1500" type="line"/>
      <point x="1301" y="1534" type="line"/>
      <point x="1333" y="1534" type="line"/>
      <point x="1380" y="1492" type="line"/>
      <point x="1377" y="536" type="line"/>
      <point x="1386" y="199" type="line"/>
      <point x="1536" y="164" type="line"/>
      <point x="1536" y="0" type="line"/>
      <point x="1031" y="0" type="line"/>
      <point x="980" y="60" type="line"/>
      <point x="969" y="104" type="line"/>
      <point x="913" y="43"/>
      <point x="703" y="-18"/>
      <point x="574" y="-18" type="qcurve" smooth="yes"/>
      <point x="364" y="-18"/>
      <point x="59" y="265"/>
    </contour>
    <contour>
      <point x="508" y="537" type="qcurve" smooth="yes"/>
      <point x="508" y="346"/>
      <point x="635" y="183"/>
      <point x="730" y="183" type="qcurve" smooth="yes"/>
      <point x="801" y="183"/>
      <point x="925" y="249"/>
      <point x="961" y="304" type="qcurve"/>
      <point x="960" y="544" type="line"/>
      <point x="954" y="814" type="line"/>
      <point x="930" y="844"/>
      <point x="834" y="888"/>
      <point x="764" y="888" type="qcurve" smooth="yes"/>
      <point x="649" y="888"/>
      <point x="508" y="729"/>
    </contour>
  </outline>
</glyph>
<glyph name="e" format="2">
  <advance width="1299"/>
  <unicode hex="0065"/>
  <anchor x="727" y="0" name="bottom"/>
  <anchor x="956" y="0" name="ogonek"/>
  <anchor x="687" y="1083" name="top"/>
  <outline>
    <contour>
      <point x="57" y="536" type="qcurve" smooth="yes"/>
      <point x="57" y="790"/>
      <point x="396" y="1109"/>
      <point x="687" y="1109" type="qcurve" smooth="yes"/>
      <point x="953" y="1109"/>
      <point x="1244" y="868"/>
      <point x="1263" y="638" type="qcurve"/>
      <point x="1263" y="500" type="line"/>
      <point x="440" y="500" type="line"/>
      <point x="440" y="668" type="line"/>
      <point x="907" y="668" type="line"/>
      <point x="898" y="809"/>
      <point x="801" y="919"/>
      <point x="706" y="919" type="qcurve" smooth="yes"/>
      <point x="606" y="919"/>
      <point x="493" y="770"/>
      <point x="494" y="572" type="qcurve" smooth="yes"/>
      <point x="495" y="380"/>
      <point x="667" y="191"/>
      <point x="809" y="191" type="qcurve" smooth="yes"/>
      <point x="922" y="191"/>
      <point x="1075" y="255"/>
      <point x="1129" y="300" type="qcurve"/>
      <point x="1226" y="163" type="line"/>
      <point x="1172" y="89"/>
      <point x="925" y="-25"/>
      <point x="727" y="-25" type="qcurve" smooth="yes"/>
      <point x="430" y="-25"/>
      <point x="57" y="282"/>
    </contour>
  </outline>
</glyph>
<glyph name="f" format="2">
  <advance width="863"/>
  <unicode hex="0066"/>
  <anchor x="431" y="0" name="bottom"/>
  <anchor x="431" y="1536" name="top"/>
  <outline>
    <contour>
      <point x="40" y="0" type="line"/>
      <point x="40" y="164" type="line"/>
      <point x="197" y="199" type="line"/>
      <point x="201" y="569" type="line"/>
      <point x="201" y="854" type="line"/>
      <point x="34" y="866" type="line"/>
      <point x="34" y="1014" type="line"/>
      <point x="202" y="1057" type="line"/>
      <point x="200" y="1186" type="line" smooth="yes"/>
      <point x="197" y="1339"/>
      <point x="400" y="1536"/>
      <point x="585" y="1536" type="qcurve" smooth="yes"/>
      <point x="679" y="1536"/>
      <point x="857" y="1498"/>
      <point x="910" y="1473" type="qcurve" smooth="yes"/>
      <point x="943" y="1457" type="line"/>
      <point x="914" y="1272" type="line"/>
      <point x="900" y="1278" type="line" smooth="yes"/>
      <point x="867" y="1288"/>
      <point x="770" y="1310"/>
      <point x="739" y="1310" type="qcurve" smooth="yes"/>
      <point x="688" y="1310"/>
      <point x="631" y="1249"/>
      <point x="631" y="1180" type="qcurve" smooth="yes"/>
      <point x="629" y="1050" type="line"/>
      <point x="863" y="1050" type="line"/>
      <point x="863" y="864" type="line"/>
      <point x="622" y="864" type="line"/>
      <point x="624" y="569" type="line"/>
      <point x="627" y="199" type="line"/>
      <point x="821" y="164" type="line"/>
      <point x="821" y="0" type="line"/>
    </contour>
  </outline>
</glyph>
<glyph name="g" format="2">
  <advance width="1297"/>
  <unicode hex="0067"/>
  <anchor x="649" y="-416" name="bottom"/>
  <anchor x="649" y="1083" name="top"/>
  <outline>
    <contour>
      <point x="13" y="-240" type="qcurve" smooth="yes"/>
      <point x="13" y="-142"/>
      <point x="190" y="-17"/>
      <point x="365" y="11" type="qcurve"/>
      <point x="423" y="-45" type="line"/>
      <point x="349" y="-76"/>
      <point x="268" y="-159"/>
      <point x="268" y="-213" type="qcurve" smooth="yes"/>
      <point x="268" y="-274"/>
      <point x="427" y="-346"/>
      <point x="589" y="-346" type="qcurve" smooth="yes"/>
      <point x="782" y="-346"/>
      <point x="918" y="-280"/>
      <point x="918" y="-216" type="qcurve" smooth="yes"/>
      <point x="918" y="-181"/>
      <point x="845" y="-154"/>
      <point x="609" y="-153" type="qcurve" smooth="yes"/>
      <point x="343" y="-151"/>
      <point x="59" y="16"/>
      <point x="59" y="148" type="qcurve" smooth="yes"/>
      <point x="59" y="252"/>
      <point x="197" y="379"/>
      <point x="296" y="401" type="qcurve"/>
      <point x="392" y="313" type="line"/>
      <point x="307" y="283"/>
      <point x="258" y="240"/>
      <point x="258" y="197" type="qcurve" smooth="yes"/>
      <point x="258" y="155"/>
      <point x="349" y="134"/>
      <point x="643" y="132" type="qcurve" smooth="yes"/>
      <point x="1015" y="130"/>
      <point x="1314" y="-11"/>
      <point x="1314" y="-154" type="qcurve" smooth="yes"/>
      <point x="1314" y="-308"/>
      <point x="1006" y="-503"/>
      <point x="618" y="-503" type="qcurve" smooth="yes"/>
      <point x="294" y="-503"/>
      <point x="13" y="-359"/>
    </contour>
    <contour>
      <point x="90" y="678" type="qcurve" smooth="yes"/>
      <point x="90" y="882"/>
      <point x="373" y="1110"/>
      <point x="634" y="1110" type="qcurve" smooth="yes"/>
      <point x="894" y="1110"/>
      <point x="1182" y="893"/>
      <point x="1183" y="683" type="qcurve" smooth="yes"/>
      <point x="1183" y="493"/>
      <point x="901" y="241"/>
      <point x="640" y="241" type="qcurve" smooth="yes"/>
      <point x="379" y="241"/>
      <point x="90" y="480"/>
    </contour>
    <contour>
      <point x="455" y="681" type="qcurve" smooth="yes"/>
      <point x="455" y="530"/>
      <point x="553" y="400"/>
      <point x="637" y="400" type="qcurve" smooth="yes"/>
      <point x="727" y="400"/>
      <point x="820" y="524"/>
      <point x="820" y="674" type="qcurve" smooth="yes"/>
      <point x="820" y="811"/>
      <point x="722" y="926"/>
      <point x="639" y="926" type="qcurve" smooth="yes"/>
      <point x="550" y="926"/>
      <point x="455" y="819"/>
    </contour>
    <contour>
      <point x="734" y="931" type="line"/>
      <point x="719" y="1084" type="line"/>
      <point x="1310" y="1084" type="line"/>
      <point x="1310" y="872" type="line"/>
    </contour>
  </outline>
</glyph>
<glyph name="h" format="2">
  <advance width="1621"/>
  <unicode hex="0068"/>
  <anchor x="810" y="0" name="bottom"/>
  <anchor x="469" y="1176" name="center"/>
  <anchor x="393" y="1534" name="top"/>
  <outline>
    <contour>
      <point x="47" y="0" type="line"/>
      <point x="47" y="164" type="line"/>
      <point x="193" y="199" type="line"/>
      <point x="195" y="575" type="line"/>
      <point x="193" y="1292" type="line"/>
      <point x="39" y="1322" type="line"/>
      <point x="39" y="1500" type="line"/>
      <point x="537" y="1534" type="line"/>
      <point x="569" y="1534" type="line"/>
      <point x="617" y="1492" type="line"/>
      <point x="615" y="947" type="line"/>
      <point x="689" y="1014"/>
      <point x="918" y="1105"/>
      <point x="1057" y="1105" type="qcurve" smooth="yes"/>
      <point x="1248" y="1105"/>
      <point x="1429" y="944"/>
      <point x="1429" y="814" type="qcurve" smooth="yes"/>
      <point x="1429" y="749"/>
      <point x="1428" y="575"/>
      <point x="1428" y="575" type="qcurve"/>
      <point x="1433" y="199" type="line"/>
      <point x="1583" y="164" type="line"/>
      <point x="1583" y="0" type="line"/>
      <point x="876" y="0" type="line"/>
      <point x="876" y="164" type="line"/>
      <point x="1005" y="199" type="line"/>
      <point x="1008" y="541" type="line"/>
      <point x="1008" y="693" type="line" smooth="yes"/>
      <point x="1008" y="765"/>
      <point x="921" y="850"/>
      <point x="846" y="850" type="qcurve" smooth="yes"/>
      <point x="780" y="850"/>
      <point x="655" y="783"/>
      <point x="616" y="734" type="qcurve"/>
      <point x="614" y="541" type="line"/>
      <point x="617" y="199" type="line"/>
      <point x="747" y="164" type="line"/>
      <point x="747" y="0" type="line"/>
    </contour>
  </outline>
</glyph>
<glyph name="i" format="2">
  <advance width="824"/>
  <unicode hex="0069"/>
  <anchor x="412" y="0" name="bottom"/>
  <anchor x="412" y="1083" name="top"/>
  <anchor x="173" y="0" name="ogonek"/>
  <outline>
    <contour>
      <point x="54" y="0" type="line"/>
      <point x="54" y="164" type="line"/>
      <point x="209" y="199" type="line"/>
      <point x="211" y="569" type="line"/>
      <point x="207" y="845" type="line"/>
      <point x="53" y="875" type="line"/>
      <point x="53" y="1053" type="line"/>
      <point x="536" y="1085" type="line"/>
      <point x="604" y="1085" type="line"/>
      <point x="640" y="1039" type="line"/>
      <point x="633" y="569" type="line"/>
      <point x="635" y="199" type="line"/>
      <point x="793" y="164" type="line"/>
      <point x="793" y="0" type="line"/>
    </contour>
    <contour>
      <point x="165" y="1352" type="qcurve" smooth="yes"/>
      <point x="165" y="1429"/>
      <point x="297" y="1531"/>
      <point x="418" y="1531" type="qcurve" smooth="yes"/>
      <point x="534" y="1531"/>
      <point x="675" y="1431"/>
      <point x="674" y="1352" type="qcurve" smooth="yes"/>
      <point x="674" y="1278"/>
      <point x="543" y="1184"/>
      <point x="420" y="1184" type="qcurve" smooth="yes"/>
      <point x="304" y="1184"/>
      <point x="165" y="1282"/>
    </contour>
  </outline>
</glyph>
<glyph name="j" format="2">
  <advance width="776"/>
  <unicode hex="006A"/>
  <anchor x="388" y="-436" name="bottom"/>
  <anchor x="388" y="1083" name="top"/>
  <outline>
    <contour>
      <point x="-40" y="-484" type="qcurve"/>
      <point x="-40" y="-300" type="line"/>
      <point x="99" y="-305"/>
      <point x="197" y="-175"/>
      <point x="196" y="-15" type="qcurve" smooth="yes"/>
      <point x="195" y="569" type="line"/>
      <point x="192" y="845" type="line"/>
      <point x="37" y="875" type="line"/>
      <point x="37" y="1052" type="line"/>
      <point x="521" y="1085" type="line"/>
      <point x="588" y="1085" type="line"/>
      <point x="624" y="1039" type="line"/>
      <point x="618" y="569" type="line"/>
      <point x="621" y="-14" type="line" smooth="yes"/>
      <point x="622" y="-258"/>
      <point x="330" y="-504"/>
    </contour>
    <contour>
      <point x="150" y="1361" type="qcurve" smooth="yes"/>
      <point x="150" y="1440"/>
      <point x="282" y="1541"/>
      <point x="403" y="1541" type="qcurve" smooth="yes"/>
      <point x="520" y="1541"/>
      <point x="660" y="1441"/>
      <point x="659" y="1361" type="qcurve" smooth="yes"/>
      <point x="659" y="1290"/>
      <point x="535" y="1184"/>
      <point x="405" y="1184" type="qcurve" smooth="yes"/>
      <point x="282" y="1184"/>
      <point x="150" y="1293"/>
    </contour>
  </outline>
</glyph>
<glyph name="k" format="2">
  <advance width="1436"/>
  <unicode hex="006B"/>
  <anchor x="750" y="0" name="bottom"/>
  <anchor x="718" y="1534" name="top"/>
  <outline>
    <contour>
      <point x="47" y="0" type="line"/>
      <point x="47" y="164" type="line"/>
      <point x="193" y="199" type="line"/>
      <point x="195" y="555" type="line"/>
      <point x="193" y="1292" type="line"/>
      <point x="39" y="1322" type="line"/>
      <point x="39" y="1500" type="line"/>
      <point x="537" y="1534" type="line"/>
      <point x="569" y="1534" type="line"/>
      <point x="617" y="1492" type="line"/>
      <point x="618" y="562" type="line"/>
      <point x="617" y="199" type="line"/>
      <point x="747" y="164" type="line"/>
      <point x="747" y="0" type="line"/>
    </contour>
    <contour>
      <point x="579" y="368" type="line"/>
      <point x="551" y="558" type="line"/>
      <point x="908" y="873" type="line"/>
      <point x="787" y="903" type="line"/>
      <point x="787" y="1083" type="line"/>
      <point x="1379" y="1083" type="line"/>
      <point x="1379" y="903" type="line"/>
      <point x="1173" y="868" type="line"/>
    </contour>
    <contour>
      <point x="678" y="567" type="line"/>
      <point x="982" y="841" type="line"/>
      <point x="1320" y="206" type="line"/>
      <point x="1486" y="164" type="line"/>
      <point x="1486" y="0" type="line"/>
      <point x="982" y="0" type="line"/>
      <point x="945" y="45" type="line"/>
      <point x="901" y="135" type="line"/>
    </contour>
  </outline>
</glyph>
<glyph name="l" format="2">
  <advance width="815"/>
  <unicode hex="006C"/>
  <anchor x="408" y="0" name="bottom"/>
  <anchor x="408" y="750" name="center"/>
  <anchor x="431" y="1534" name="top"/>
  <anchor x="712" y="1083" name="topright"/>
  <outline>
    <contour>
      <point x="59" y="0" type="line"/>
      <point x="59" y="164" type="line"/>
      <point x="208" y="199" type="line"/>
      <point x="210" y="527" type="line"/>
      <point x="208" y="1291" type="line"/>
      <point x="42" y="1321" type="line"/>
      <point x="42" y="1500" type="line"/>
      <point x="555" y="1534" type="line"/>
      <point x="592" y="1532" type="line"/>
      <point x="635" y="1491" type="line"/>
      <point x="633" y="527" type="line"/>
      <point x="635" y="199" type="line"/>
      <point x="779" y="164" type="line"/>
      <point x="779" y="0" type="line"/>
    </contour>
  </outline>
</glyph>
<glyph name="m" format="2">
  <advance width="2385"/>
  <unicode hex="006D"/>
  <anchor x="1192" y="0" name="bottom"/>
  <anchor x="1192" y="1083" name="top"/>
  <outline>
    <contour>
      <point x="47" y="0" type="line"/>
      <point x="47" y="164" type="line"/>
      <point x="195" y="199" type="line"/>
      <point x="197" y="569" type="line"/>
      <point x="195" y="845" type="line"/>
      <point x="47" y="875" type="line"/>
      <point x="47" y="1052" type="line"/>
      <point x="548" y="1091" type="line"/>
      <point x="583" y="1064" type="line"/>
      <point x="607" y="953" type="line"/>
      <point x="677" y="1024"/>
      <point x="897" y="1105"/>
      <point x="1037" y="1105" type="qcurve" smooth="yes"/>
      <point x="1180" y="1105"/>
      <point x="1352" y="1015"/>
      <point x="1384" y="936" type="qcurve"/>
      <point x="1453" y="1014"/>
      <point x="1678" y="1104"/>
      <point x="1820" y="1104" type="qcurve" smooth="yes"/>
      <point x="2013" y="1104"/>
      <point x="2194" y="944"/>
      <point x="2194" y="813" type="qcurve" smooth="yes"/>
      <point x="2193" y="744"/>
      <point x="2192" y="556"/>
      <point x="2192" y="575" type="qcurve" smooth="yes"/>
      <point x="2198" y="198" type="line"/>
      <point x="2347" y="164" type="line"/>
      <point x="2347" y="0" type="line"/>
      <point x="1648" y="0" type="line"/>
      <point x="1648" y="164" type="line"/>
      <point x="1770" y="199" type="line"/>
      <point x="1772" y="541" type="line"/>
      <point x="1772" y="694" type="line" smooth="yes"/>
      <point x="1772" y="771"/>
      <point x="1686" y="852"/>
      <point x="1613" y="852" type="qcurve" smooth="yes"/>
      <point x="1552" y="852"/>
      <point x="1441" y="794"/>
      <point x="1406" y="744" type="qcurve"/>
      <point x="1404" y="668"/>
      <point x="1403" y="561"/>
      <point x="1403" y="550" type="qcurve" smooth="yes"/>
      <point x="1407" y="199" type="line"/>
      <point x="1525" y="164" type="line"/>
      <point x="1525" y="0" type="line"/>
      <point x="861" y="0" type="line"/>
      <point x="861" y="164" type="line"/>
      <point x="983" y="199" type="line"/>
      <point x="985" y="569" type="line"/>
      <point x="985" y="716" type="line" smooth="yes"/>
      <point x="985" y="782"/>
      <point x="900" y="851"/>
      <point x="833" y="852" type="qcurve" smooth="yes"/>
      <point x="770" y="852"/>
      <point x="652" y="793"/>
      <point x="616" y="743" type="qcurve"/>
      <point x="615" y="569" type="line"/>
      <point x="617" y="199" type="line"/>
      <point x="733" y="164" type="line"/>
      <point x="733" y="0" type="line"/>
    </contour>
  </outline>
</glyph>
<glyph name="n" format="2">
  <advance width="1622"/>
  <unicode hex="006E"/>
  <anchor x="811" y="0" name="bottom"/>
  <anchor x="811" y="1083" name="top"/>
  <outline>
    <contour>
      <point x="47" y="0" type="line"/>
      <point x="47" y="164" type="line"/>
      <point x="195" y="199" type="line"/>
      <point x="197" y="575" type="line"/>
      <point x="195" y="845" type="line"/>
      <point x="47" y="875" type="line"/>
      <point x="47" y="1052" type="line"/>
      <point x="548" y="1091" type="line"/>
      <point x="583" y="1064" type="line"/>
      <point x="608" y="939" type="line"/>
      <point x="681" y="1009"/>
      <point x="915" y="1105"/>
      <point x="1058" y="1105" type="qcurve" smooth="yes"/>
      <point x="1250" y="1105"/>
      <point x="1436" y="944"/>
      <point x="1436" y="814" type="qcurve" smooth="yes"/>
      <point x="1436" y="761"/>
      <point x="1429" y="598"/>
      <point x="1429" y="575" type="qcurve" smooth="yes"/>
      <point x="1434" y="198" type="line"/>
      <point x="1584" y="164" type="line"/>
      <point x="1584" y="0" type="line"/>
      <point x="877" y="0" type="line"/>
      <point x="877" y="164" type="line"/>
      <point x="1006" y="199" type="line"/>
      <point x="1009" y="541" type="line"/>
      <point x="1009" y="692" type="line" smooth="yes"/>
      <point x="1009" y="771"/>
      <point x="920" y="851"/>
      <point x="847" y="851" type="qcurve" smooth="yes"/>
      <point x="779" y="851"/>
      <point x="655" y="781"/>
      <point x="617" y="735" type="qcurve"/>
      <point x="615" y="541" type="line"/>
      <point x="618" y="199" type="line"/>
      <point x="748" y="164" type="line"/>
      <point x="748" y="0" type="line"/>
    </contour>
  </outline>
</glyph>
<glyph name="o" format="2">
  <advance width="1506"/>
  <unicode hex="006F"/>
  <anchor x="753" y="0" name="bottom"/>
  <anchor x="753" y="542" name="center"/>
  <anchor x="979" y="0" name="ogonek"/>
  <anchor x="753" y="1083" name="top"/>
  <anchor x="986" y="1083" name="topright"/>
  <outline>
    <contour>
      <point x="56" y="542" type="qcurve" smooth="yes"/>
      <point x="56" y="791"/>
      <point x="439" y="1108"/>
      <point x="751" y="1108" type="qcurve" smooth="yes"/>
      <point x="1065" y="1108"/>
      <point x="1450" y="812"/>
      <point x="1450" y="548" type="qcurve" smooth="yes"/>
      <point x="1450" y="299"/>
      <point x="1071" y="-25"/>
      <point x="758" y="-25" type="qcurve" smooth="yes"/>
      <point x="445" y="-25"/>
      <point x="56" y="276"/>
    </contour>
    <contour>
      <point x="500" y="555" type="qcurve" smooth="yes"/>
      <point x="501" y="352"/>
      <point x="634" y="158"/>
      <point x="750" y="158" type="qcurve" smooth="yes"/>
      <point x="873" y="158"/>
      <point x="1001" y="333"/>
      <point x="1001" y="542" type="qcurve" smooth="yes"/>
      <point x="1001" y="739"/>
      <point x="867" y="910"/>
      <point x="751" y="910" type="qcurve" smooth="yes"/>
      <point x="626" y="910"/>
      <point x="499" y="757"/>
    </contour>
  </outline>
</glyph>
<glyph name="p" format="2">
  <advance width="1547"/>
  <unicode hex="0070"/>
  <anchor x="774" y="0" name="bottom"/>
  <anchor x="774" y="1083" name="top"/>
  <outline>
    <contour>
      <point x="30" y="-480" type="line"/>
      <point x="30" y="-317" type="line"/>
      <point x="173" y="-282" type="line"/>
      <point x="175" y="452" type="line"/>
      <point x="173" y="845" type="line"/>
      <point x="24" y="875" type="line"/>
      <point x="24" y="1052" type="line"/>
      <point x="528" y="1086" type="line"/>
      <point x="563" y="1059" type="line"/>
      <point x="594" y="951" type="line"/>
      <point x="649" y="1020"/>
      <point x="837" y="1105"/>
      <point x="970" y="1105" type="qcurve" smooth="yes"/>
      <point x="1197" y="1105"/>
      <point x="1488" y="819"/>
      <point x="1488" y="575" type="qcurve" smooth="yes"/>
      <point x="1488" y="311"/>
      <point x="1187" y="-12"/>
      <point x="923" y="-12" type="qcurve" smooth="yes"/>
      <point x="803" y="-12"/>
      <point x="642" y="44"/>
      <point x="592" y="83" type="qcurve"/>
      <point x="594" y="-282" type="line"/>
      <point x="760" y="-317" type="line"/>
      <point x="760" y="-480" type="line"/>
    </contour>
    <contour>
      <point x="592" y="305" type="line"/>
      <point x="618" y="256"/>
      <point x="734" y="184"/>
      <point x="811" y="184" type="qcurve" smooth="yes"/>
      <point x="918" y="184"/>
      <point x="1040" y="361"/>
      <point x="1040" y="534" type="qcurve" smooth="yes"/>
      <point x="1040" y="707"/>
      <point x="928" y="862"/>
      <point x="816" y="862" type="qcurve" smooth="yes"/>
      <point x="738" y="862"/>
      <point x="626" y="793"/>
      <point x="593" y="738" type="qcurve"/>
      <point x="589" y="467" type="line"/>
    </contour>
  </outline>
</glyph>
<glyph name="q" format="2">
  <advance width="1545"/>
  <unicode hex="0071"/>
  <anchor x="772" y="0" name="bottom"/>
  <anchor x="772" y="1083" name="top"/>
  <outline>
    <contour>
      <point x="59" y="526" type="qcurve" smooth="yes"/>
      <point x="59" y="800"/>
      <point x="390" y="1102"/>
      <point x="648" y="1102" type="qcurve" smooth="yes"/>
      <point x="744" y="1102"/>
      <point x="906" y="1059"/>
      <point x="966" y="1017" type="qcurve"/>
      <point x="1027" y="1089" type="line"/>
      <point x="1513" y="1055" type="line"/>
      <point x="1513" y="877" type="line"/>
      <point x="1381" y="852" type="line"/>
      <point x="1376" y="470" type="line"/>
      <point x="1376" y="-282" type="line"/>
      <point x="1522" y="-317" type="line"/>
      <point x="1522" y="-480" type="line"/>
      <point x="782" y="-480" type="line"/>
      <point x="782" y="-317" type="line"/>
      <point x="948" y="-283" type="line"/>
      <point x="955" y="111" type="line"/>
      <point x="894" y="55"/>
      <point x="707" y="-9"/>
      <point x="581" y="-9" type="qcurve" smooth="yes"/>
      <point x="364" y="-9"/>
      <point x="59" y="265"/>
    </contour>
    <contour>
      <point x="508" y="536" type="qcurve" smooth="yes"/>
      <point x="508" y="340"/>
      <point x="635" y="195"/>
      <point x="740" y="195" type="qcurve" smooth="yes"/>
      <point x="814" y="195"/>
      <point x="924" y="253"/>
      <point x="958" y="301" type="qcurve"/>
      <point x="959" y="805" type="line"/>
      <point x="931" y="841"/>
      <point x="832" y="884"/>
      <point x="761" y="884" type="qcurve" smooth="yes"/>
      <point x="649" y="884"/>
      <point x="508" y="727"/>
    </contour>
  </outline>
</glyph>
<glyph name="r" format="2">
  <advance width="1115"/>
  <unicode hex="0072"/>
  <anchor x="558" y="0" name="bottom"/>
  <anchor x="588" y="1083" name="top"/>
  <outline>
    <contour>
      <point x="49" y="0" type="line"/>
      <point x="49" y="164" type="line"/>
      <point x="195" y="199" type="line"/>
      <point x="197" y="562" type="line"/>
      <point x="195" y="845" type="line"/>
      <point x="47" y="875" type="line"/>
      <point x="47" y="1052" type="line"/>
      <point x="548" y="1091" type="line"/>
      <point x="583" y="1064" type="line"/>
      <point x="606" y="919" type="line"/>
      <point x="661" y="990"/>
      <point x="885" y="1088"/>
      <point x="1009" y="1088" type="qcurve" smooth="yes"/>
      <point x="1096" y="1088" type="line"/>
      <point x="1096" y="681" type="line"/>
      <point x="912" y="681" type="line"/>
      <point x="882" y="824" type="line"/>
      <point x="826" y="829"/>
      <point x="670" y="779"/>
      <point x="621" y="728" type="qcurve"/>
      <point x="619" y="562" type="line"/>
      <point x="621" y="199" type="line"/>
      <point x="794" y="164" type="line"/>
      <point x="794" y="0" type="line"/>
    </contour>
  </outline>
</glyph>
<glyph name="s" format="2">
  <advance width="1137"/>
  <unicode hex="0073"/>
  <anchor x="603" y="0" name="bottom"/>
  <anchor x="551" y="1083" name="top"/>
  <outline>
    <contour>
      <point x="50" y="0" type="line"/>
      <point x="50" y="357" type="line"/>
      <point x="236" y="357" type="line"/>
      <point x="267" y="209" type="line" smooth="yes"/>
      <point x="313" y="179"/>
      <point x="459" y="144"/>
      <point x="529" y="144" type="qcurve" smooth="yes"/>
      <point x="619" y="144"/>
      <point x="705" y="197"/>
      <point x="705" y="245" type="qcurve" smooth="yes"/>
      <point x="705" y="300"/>
      <point x="584" y="341"/>
      <point x="438" y="386" type="qcurve" smooth="yes"/>
      <point x="229" y="448"/>
      <point x="73" y="635"/>
      <point x="73" y="782" type="qcurve" smooth="yes"/>
      <point x="73" y="915"/>
      <point x="307" y="1109"/>
      <point x="551" y="1109" type="qcurve" smooth="yes"/>
      <point x="646" y="1109"/>
      <point x="797" y="1084"/>
      <point x="851" y="1065" type="qcurve"/>
      <point x="866" y="1083" type="line"/>
      <point x="1017" y="1083" type="line"/>
      <point x="1017" y="787" type="line"/>
      <point x="828" y="787" type="line"/>
      <point x="802" y="885" type="line" smooth="yes"/>
      <point x="758" y="911"/>
      <point x="640" y="936"/>
      <point x="583" y="936" type="qcurve" smooth="yes"/>
      <point x="496" y="936"/>
      <point x="425" y="883"/>
      <point x="425" y="849" type="qcurve" smooth="yes"/>
      <point x="425" y="816"/>
      <point x="508" y="777"/>
      <point x="678" y="728" type="qcurve" smooth="yes"/>
      <point x="878" y="668"/>
      <point x="1083" y="489"/>
      <point x="1083" y="341" type="qcurve" smooth="yes"/>
      <point x="1083" y="181"/>
      <point x="824" y="-24"/>
      <point x="602" y="-24" type="qcurve" smooth="yes"/>
      <point x="481" y="-24"/>
      <point x="292" y="13"/>
      <point x="226" y="38" type="qcurve"/>
      <point x="199" y="0" type="line"/>
    </contour>
  </outline>
</glyph>
<glyph name="t" format="2">
  <advance width="857"/>
  <unicode hex="0074"/>
  <anchor x="444" y="0" name="bottom"/>
  <anchor x="429" y="661" name="center"/>
  <anchor x="428" y="1332" name="top"/>
  <anchor x="716" y="1083" name="topright"/>
  <outline>
    <contour>
      <point x="13" y="866" type="line"/>
      <point x="13" y="1036" type="line"/>
      <point x="137" y="1065"/>
      <point x="288" y="1210"/>
      <point x="321" y="1332" type="qcurve"/>
      <point x="566" y="1332" type="line"/>
      <point x="605" y="1289" type="line"/>
      <point x="600" y="1057" type="line"/>
      <point x="816" y="1057" type="line"/>
      <point x="816" y="865" type="line"/>
      <point x="594" y="865" type="line"/>
      <point x="588" y="569" type="line"/>
      <point x="597" y="309" type="line" smooth="yes"/>
      <point x="599" y="254"/>
      <point x="643" y="204"/>
      <point x="693" y="204" type="qcurve" smooth="yes"/>
      <point x="850" y="204" type="line"/>
      <point x="850" y="31" type="line"/>
      <point x="390" y="-13" type="line"/>
      <point x="275" y="-13"/>
      <point x="153" y="86"/>
      <point x="155" y="200" type="qcurve" smooth="yes"/>
      <point x="166" y="569" type="line"/>
      <point x="166" y="850" type="line"/>
    </contour>
  </outline>
</glyph>
<glyph name="u" format="2">
  <advance width="1609"/>
  <unicode hex="0075"/>
  <anchor x="804" y="0" name="bottom"/>
  <anchor x="1210" y="20" name="ogonek"/>
  <anchor x="805" y="1083" name="top"/>
  <anchor x="1505" y="1083" name="topright"/>
  <outline>
    <contour>
      <point x="33" y="875" type="line"/>
      <point x="33" y="1052" type="line"/>
      <point x="504" y="1085" type="line"/>
      <point x="568" y="1085" type="line"/>
      <point x="605" y="1040" type="line"/>
      <point x="603" y="515" type="line"/>
      <point x="603" y="375" type="line" smooth="yes"/>
      <point x="603" y="312"/>
      <point x="684" y="237"/>
      <point x="756" y="237" type="qcurve" smooth="yes"/>
      <point x="819" y="237"/>
      <point x="954" y="287"/>
      <point x="992" y="333" type="qcurve"/>
      <point x="993" y="515" type="line"/>
      <point x="991" y="845" type="line"/>
      <point x="854" y="875" type="line"/>
      <point x="854" y="1052" type="line"/>
      <point x="1317" y="1085" type="line"/>
      <point x="1381" y="1085" type="line"/>
      <point x="1418" y="1040" type="line"/>
      <point x="1416" y="515" type="line"/>
      <point x="1418" y="232" type="line"/>
      <point x="1563" y="202" type="line"/>
      <point x="1563" y="29" type="line"/>
      <point x="1065" y="-5" type="line"/>
      <point x="1016" y="35" type="line"/>
      <point x="992" y="132" type="line"/>
      <point x="920" y="62"/>
      <point x="685" y="-22"/>
      <point x="550" y="-22" type="qcurve" smooth="yes"/>
      <point x="361" y="-22"/>
      <point x="177" y="138"/>
      <point x="177" y="270" type="qcurve" smooth="yes"/>
      <point x="177" y="343"/>
      <point x="181" y="517"/>
      <point x="181" y="533" type="qcurve" smooth="yes"/>
      <point x="177" y="845" type="line"/>
    </contour>
  </outline>
</glyph>
<glyph name="v" format="2">
  <advance width="1377"/>
  <unicode hex="0076"/>
  <anchor x="689" y="0" name="bottom"/>
  <anchor x="689" y="1083" name="top"/>
  <outline>
    <contour>
      <point x="-3" y="909" type="line"/>
      <point x="-3" y="1083" type="line"/>
      <point x="724" y="1083" type="line"/>
      <point x="724" y="919" type="line"/>
      <point x="593" y="883" type="line"/>
      <point x="698" y="601" type="line"/>
      <point x="810" y="325" type="line"/>
      <point x="924" y="615" type="line"/>
      <point x="1013" y="886" type="line"/>
      <point x="884" y="919" type="line"/>
      <point x="884" y="1083" type="line"/>
      <point x="1361" y="1083" type="line"/>
      <point x="1361" y="909" type="line"/>
      <point x="1213" y="874" type="line"/>
      <point x="1090" y="568" type="line"/>
      <point x="882" y="-3" type="line"/>
      <point x="498" y="-3" type="line"/>
      <point x="294" y="507" type="line"/>
      <point x="140" y="874" type="line"/>
    </contour>
  </outline>
</glyph>
<glyph name="w" format="2">
  <advance width="1996"/>
  <unicode hex="0077"/>
  <anchor x="998" y="0" name="bottom"/>
  <anchor x="998" y="1083" name="top"/>
  <outline>
    <contour>
      <point x="-3" y="910" type="line"/>
      <point x="-3" y="1083" type="line"/>
      <point x="645" y="1083" type="line"/>
      <point x="645" y="923" type="line"/>
      <point x="549" y="877" type="line"/>
      <point x="625" y="600" type="line"/>
      <point x="718" y="305" type="line"/>
      <point x="806" y="564" type="line"/>
      <point x="931" y="961" type="line"/>
      <point x="1061" y="855" type="line"/>
      <point x="942" y="499" type="line"/>
      <point x="783" y="-3" type="line"/>
      <point x="417" y="-3" type="line"/>
      <point x="242" y="535" type="line"/>
      <point x="127" y="875" type="line"/>
    </contour>
    <contour>
      <point x="807" y="923" type="line"/>
      <point x="807" y="1083" type="line"/>
      <point x="1432" y="1083" type="line"/>
      <point x="1432" y="923" type="line"/>
      <point x="1318" y="877" type="line"/>
      <point x="1408" y="575" type="line"/>
      <point x="1486" y="316" type="line"/>
      <point x="1575" y="599" type="line"/>
      <point x="1657" y="881" type="line"/>
      <point x="1541" y="923" type="line"/>
      <point x="1541" y="1083" type="line"/>
      <point x="1979" y="1083" type="line"/>
      <point x="1979" y="910" type="line"/>
      <point x="1835" y="875" type="line"/>
      <point x="1738" y="568" type="line"/>
      <point x="1567" y="-3" type="line"/>
      <point x="1194" y="-3" type="line"/>
      <point x="1025" y="533" type="line"/>
      <point x="914" y="878" type="line"/>
    </contour>
  </outline>
</glyph>
<glyph name="y" format="2">
  <advance width="1373"/>
  <unicode hex="0079"/>
  <anchor x="1053" y="0" name="bottom"/>
  <anchor x="694" y="1083" name="top"/>
  <outline>
    <contour>
      <point x="-3" y="907" type="line"/>
      <point x="-3" y="1083" type="line"/>
      <point x="723" y="1083" type="line"/>
      <point x="723" y="913" type="line"/>
      <point x="591" y="877" type="line"/>
      <point x="696" y="599" type="line"/>
      <point x="805" y="321" type="line"/>
      <point x="919" y="612" type="line"/>
      <point x="1008" y="880" type="line"/>
      <point x="879" y="913" type="line"/>
      <point x="879" y="1083" type="line"/>
      <point x="1357" y="1083" type="line"/>
      <point x="1357" y="907" type="line"/>
      <point x="1209" y="872" type="line"/>
      <point x="1086" y="566" type="line"/>
      <point x="810" y="-146" type="line" smooth="yes"/>
      <point x="731" y="-340"/>
      <point x="421" y="-500"/>
      <point x="250" y="-500" type="qcurve"/>
      <point x="50" y="-445" type="line"/>
      <point x="50" y="-279" type="line"/>
      <point x="235" y="-279" type="line" smooth="yes"/>
      <point x="344" y="-279"/>
      <point x="531" y="-212"/>
      <point x="591" y="-102" type="qcurve" smooth="yes"/>
      <point x="641" y="12" type="line"/>
      <point x="499" y="12" type="line"/>
      <point x="295" y="506" type="line"/>
      <point x="140" y="872" type="line"/>
    </contour>
  </outline>
</glyph>
<glyph name="z" format="2">
  <advance width="1138"/>
  <unicode hex="007A"/>
  <anchor x="569" y="0" name="bottom"/>
  <anchor x="569" y="1083" name="top"/>
  <outline>
    <contour>
      <point x="39" y="0" type="line"/>
      <point x="39" y="159" type="line"/>
      <point x="609" y="884" type="line"/>
      <point x="269" y="884" type="line"/>
      <point x="239" y="723" type="line"/>
      <point x="64" y="723" type="line"/>
      <point x="64" y="1083" type="line"/>
      <point x="1088" y="1083" type="line"/>
      <point x="1088" y="925" type="line"/>
      <point x="534" y="192" type="line"/>
      <point x="894" y="192" type="line"/>
      <point x="924" y="351" type="line"/>
      <point x="1105" y="351" type="line"/>
      <point x="1105" y="0" type="line"/>
    </contour>
  </outline>
</glyph>
<glyph name="braceleft" format="2">
  <advance width="788"/>
  <unicode hex="007B"/>
  <outline>
    <contour>
      <point x="49" y="448" type="line"/>
      <point x="49" y="622" type="line"/>
      <point x="152" y="632" type="line" smooth="yes"/>
      <point x="180" y="636"/>
      <point x="277" y="665"/>
      <point x="277" y="733" type="qcurve" smooth="yes"/>
      <point x="277" y="837"/>
      <point x="110" y="1066"/>
      <point x="110" y="1184" type="qcurve" smooth="yes"/>
      <point x="110" y="1343"/>
      <point x="334" y="1510"/>
      <point x="474" y="1510" type="qcurve" smooth="yes"/>
      <point x="535" y="1510"/>
      <point x="721" y="1503"/>
      <point x="753" y="1500" type="qcurve"/>
      <point x="753" y="1341" type="line"/>
      <point x="708" y="1343"/>
      <point x="665" y="1343"/>
      <point x="622" y="1343" type="qcurve" smooth="yes"/>
      <point x="548" y="1343"/>
      <point x="467" y="1301"/>
      <point x="467" y="1204" type="qcurve" smooth="yes"/>
      <point x="467" y="1103"/>
      <point x="653" y="883"/>
      <point x="653" y="792" type="qcurve" smooth="yes"/>
      <point x="653" y="697"/>
      <point x="527" y="574"/>
      <point x="401" y="553" type="qcurve"/>
      <point x="534" y="526"/>
      <point x="653" y="400"/>
      <point x="653" y="325" type="qcurve" smooth="yes"/>
      <point x="653" y="228"/>
      <point x="451" y="-82"/>
      <point x="451" y="-183" type="qcurve" smooth="yes"/>
      <point x="451" y="-279"/>
      <point x="534" y="-318"/>
      <point x="609" y="-318" type="qcurve" smooth="yes"/>
      <point x="652" y="-318"/>
      <point x="704" y="-318"/>
      <point x="749" y="-316" type="qcurve"/>
      <point x="749" y="-483" type="line"/>
      <point x="717" y="-486"/>
      <point x="536" y="-495"/>
      <point x="475" y="-495" type="qcurve" smooth="yes"/>
      <point x="313" y="-495"/>
      <point x="93" y="-327"/>
      <point x="93" y="-168" type="qcurve" smooth="yes"/>
      <point x="93" y="-50"/>
      <point x="276" y="246"/>
      <point x="276" y="364" type="qcurve"/>
      <point x="276" y="448" type="line"/>
    </contour>
  </outline>
</glyph>
<glyph name="bar" format="2">
  <advance width="698"/>
  <unicode hex="007C"/>
  <outline>
    <contour>
      <point x="162" y="-517" type="line"/>
      <point x="180" y="-58" type="line"/>
      <point x="190" y="250" type="line"/>
      <point x="188" y="830" type="line"/>
      <point x="182" y="1138" type="line"/>
      <point x="163" y="1503" type="line"/>
      <point x="532" y="1527" type="line"/>
      <point x="516" y="1138" type="line"/>
      <point x="508" y="830" type="line"/>
      <point x="510" y="250" type="line"/>
      <point x="515" y="-58" type="line"/>
      <point x="534" y="-493" type="line"/>
    </contour>
  </outline>
</glyph>
<glyph name="braceright" format="2">
  <advance width="788"/>
  <unicode hex="007D"/>
  <outline>
    <contour>
      <point x="38" y="-483" type="qcurve"/>
      <point x="38" y="-316" type="line"/>
      <point x="84" y="-318"/>
      <point x="149" y="-318"/>
      <point x="192" y="-318" type="qcurve" smooth="yes"/>
      <point x="267" y="-318"/>
      <point x="350" y="-256"/>
      <point x="350" y="-183" type="qcurve" smooth="yes"/>
      <point x="350" y="-82"/>
      <point x="135" y="228"/>
      <point x="135" y="325" type="qcurve" smooth="yes"/>
      <point x="135" y="400"/>
      <point x="253" y="526"/>
      <point x="387" y="553" type="qcurve"/>
      <point x="261" y="574"/>
      <point x="135" y="697"/>
      <point x="135" y="792" type="qcurve" smooth="yes"/>
      <point x="135" y="883"/>
      <point x="307" y="1103"/>
      <point x="307" y="1204" type="qcurve" smooth="yes"/>
      <point x="307" y="1284"/>
      <point x="226" y="1343"/>
      <point x="152" y="1343" type="qcurve" smooth="yes"/>
      <point x="109" y="1343"/>
      <point x="80" y="1343"/>
      <point x="35" y="1341" type="qcurve"/>
      <point x="35" y="1500" type="line"/>
      <point x="67" y="1503"/>
      <point x="239" y="1510"/>
      <point x="301" y="1510" type="qcurve" smooth="yes"/>
      <point x="441" y="1510"/>
      <point x="664" y="1343"/>
      <point x="664" y="1184" type="qcurve" smooth="yes"/>
      <point x="664" y="1066"/>
      <point x="512" y="837"/>
      <point x="512" y="733" type="qcurve" smooth="yes"/>
      <point x="512" y="675"/>
      <point x="608" y="636"/>
      <point x="635" y="632" type="qcurve" smooth="yes"/>
      <point x="739" y="622" type="line"/>
      <point x="739" y="448" type="line"/>
      <point x="513" y="448" type="line"/>
      <point x="513" y="364" type="line"/>
      <point x="513" y="246"/>
      <point x="708" y="-50"/>
      <point x="708" y="-168" type="qcurve" smooth="yes"/>
      <point x="708" y="-327"/>
      <point x="488" y="-495"/>
      <point x="326" y="-495" type="qcurve" smooth="yes"/>
      <point x="265" y="-495"/>
      <point x="71" y="-486"/>
    </contour>
  </outline>
</glyph>
<glyph name="asciitilde" format="2">
  <advance width="1037"/>
  <unicode hex="007E"/>
  <outline>
    <contour>
      <point x="9" y="614" type="line"/>
      <point x="62" y="705"/>
      <point x="271" y="849"/>
      <point x="357" y="849" type="qcurve"/>
      <point x="706" y="743" type="line"/>
      <point x="771" y="743"/>
      <point x="844" y="813"/>
      <point x="877" y="862" type="qcurve"/>
      <point x="1022" y="749" type="line"/>
      <point x="975" y="646"/>
      <point x="791" y="480"/>
      <point x="676" y="480" type="qcurve"/>
      <point x="344" y="582" type="line"/>
      <point x="280" y="582"/>
      <point x="171" y="519"/>
      <point x="115" y="472" type="qcurve"/>
    </contour>
  </outline>
</glyph>
<glyph name="exclamdown" format="2">
  <advance width="733"/>
  <unicode hex="00A1"/>
  <outline>
    <contour>
      <point x="574" y="1158" type="qcurve" smooth="yes"/>
      <point x="574" y="1074"/>
      <point x="457" y="956"/>
      <point x="366" y="956" type="qcurve" smooth="yes"/>
      <point x="275" y="956"/>
      <point x="159" y="1074"/>
      <point x="159" y="1158" type="qcurve" smooth="yes"/>
      <point x="159" y="1240"/>
      <point x="275" y="1359"/>
      <point x="366" y="1359" type="qcurve" smooth="yes"/>
      <point x="457" y="1359"/>
      <point x="574" y="1240"/>
    </contour>
    <contour>
      <point x="575" y="54" type="line" smooth="yes"/>
      <point x="599" y="-76"/>
      <point x="477" y="-195"/>
      <point x="371" y="-195" type="qcurve" smooth="yes"/>
      <point x="265" y="-195"/>
      <point x="133" y="-74"/>
      <point x="158" y="48" type="qcurve" smooth="yes"/>
      <point x="187" y="228" type="line"/>
      <point x="252" y="536" type="line"/>
      <point x="292" y="831" type="line"/>
      <point x="446" y="831" type="line"/>
      <point x="485" y="536" type="line"/>
      <point x="549" y="228" type="line"/>
    </contour>
  </outline>
</glyph>
<glyph name="sterling" format="2">
  <advance width="1151"/>
  <unicode hex="00A3"/>
  <outline>
    <contour>
      <point x="775" y="570" type="qcurve" smooth="yes"/>
      <point x="775" y="472"/>
      <point x="633" y="301"/>
      <point x="533" y="249" type="qcurve"/>
      <point x="541" y="236" type="line"/>
      <point x="904" y="225" type="line"/>
      <point x="1025" y="405" type="line"/>
      <point x="1177" y="405" type="line"/>
      <point x="1078" y="0" type="line"/>
      <point x="70" y="0" type="line"/>
      <point x="1" y="137" type="line"/>
      <point x="77" y="242" type="line"/>
      <point x="265" y="231"/>
      <point x="430" y="375"/>
      <point x="430" y="498" type="qcurve" smooth="yes"/>
      <point x="430" y="609"/>
      <point x="321" y="737"/>
      <point x="260" y="793" type="qcurve" smooth="yes"/>
      <point x="184" y="866"/>
      <point x="105" y="1013"/>
      <point x="105" y="1140" type="qcurve" smooth="yes"/>
      <point x="105" y="1316"/>
      <point x="375" y="1531"/>
      <point x="595" y="1531" type="qcurve" smooth="yes"/>
      <point x="749" y="1531"/>
      <point x="982" y="1439"/>
      <point x="1063" y="1373" type="qcurve"/>
      <point x="957" y="1177" type="line"/>
      <point x="906" y="1215"/>
      <point x="768" y="1268"/>
      <point x="684" y="1268" type="qcurve" smooth="yes"/>
      <point x="591" y="1268"/>
      <point x="498" y="1191"/>
      <point x="498" y="1126" type="qcurve" smooth="yes"/>
      <point x="498" y="1067"/>
      <point x="553" y="961"/>
      <point x="632" y="876" type="qcurve" smooth="yes"/>
      <point x="723" y="779"/>
      <point x="775" y="643"/>
    </contour>
    <contour>
      <point x="161" y="551" type="line"/>
      <point x="120" y="754" type="line"/>
      <point x="1018" y="754" type="line"/>
      <point x="981" y="551" type="line"/>
    </contour>
  </outline>
</glyph>
<glyph name="currency" format="2">
  <advance width="1500"/>
  <unicode hex="00A4"/>
  <outline>
    <contour>
      <point x="205" y="749" type="qcurve" smooth="yes"/>
      <point x="205" y="972"/>
      <point x="499" y="1286"/>
      <point x="736" y="1286" type="qcurve" smooth="yes"/>
      <point x="975" y="1286"/>
      <point x="1273" y="993"/>
      <point x="1273" y="755" type="qcurve" smooth="yes"/>
      <point x="1273" y="533"/>
      <point x="981" y="210"/>
      <point x="741" y="210" type="qcurve" smooth="yes"/>
      <point x="504" y="210"/>
      <point x="205" y="509"/>
    </contour>
    <contour>
      <point x="465" y="762" type="qcurve" smooth="yes"/>
      <point x="466" y="634"/>
      <point x="614" y="460"/>
      <point x="736" y="460" type="qcurve" smooth="yes"/>
      <point x="868" y="460"/>
      <point x="1008" y="618"/>
      <point x="1008" y="750" type="qcurve" smooth="yes"/>
      <point x="1008" y="872"/>
      <point x="860" y="1031"/>
      <point x="737" y="1031" type="qcurve" smooth="yes"/>
      <point x="605" y="1031"/>
      <point x="464" y="886"/>
    </contour>
    <contour>
      <point x="395" y="970" type="line"/>
      <point x="81" y="1270" type="line"/>
      <point x="243" y="1441" type="line"/>
      <point x="541" y="1122" type="line"/>
    </contour>
    <contour>
      <point x="1104" y="971" type="line"/>
      <point x="960" y="1121" type="line"/>
      <point x="1257" y="1440" type="line"/>
      <point x="1416" y="1271" type="line"/>
    </contour>
    <contour>
      <point x="396" y="506" type="line"/>
      <point x="540" y="355" type="line"/>
      <point x="241" y="37" type="line"/>
      <point x="83" y="205" type="line"/>
    </contour>
    <contour>
      <point x="1105" y="507" type="line"/>
      <point x="1418" y="206" type="line"/>
      <point x="1255" y="36" type="line"/>
      <point x="959" y="354" type="line"/>
    </contour>
  </outline>
</glyph>
<glyph name="yen" format="2">
  <advance width="1477"/>
  <unicode hex="00A5"/>
  <outline>
    <contour>
      <point x="186" y="679" type="line"/>
      <point x="153" y="865" type="line"/>
      <point x="1344" y="865" type="line"/>
      <point x="1307" y="679" type="line"/>
    </contour>
    <contour>
      <point x="553" y="598" type="line"/>
      <point x="327" y="990" type="line"/>
      <point x="149" y="1289" type="line"/>
      <point x="-10" y="1321" type="line"/>
      <point x="-10" y="1500" type="line"/>
      <point x="782" y="1500" type="line"/>
      <point x="782" y="1321" type="line"/>
      <point x="625" y="1286" type="line"/>
      <point x="739" y="1070" type="line"/>
      <point x="880" y="812" type="line"/>
      <point x="1018" y="1055" type="line"/>
      <point x="1135" y="1289" type="line"/>
      <point x="976" y="1321" type="line"/>
      <point x="976" y="1500" type="line"/>
      <point x="1514" y="1500" type="line"/>
      <point x="1514" y="1321" type="line"/>
      <point x="1350" y="1289" type="line"/>
      <point x="1195" y="1017" type="line"/>
      <point x="966" y="596" type="line"/>
      <point x="968" y="199" type="line"/>
      <point x="1169" y="165" type="line"/>
      <point x="1169" y="0" type="line"/>
      <point x="347" y="0" type="line"/>
      <point x="347" y="165" type="line"/>
      <point x="551" y="199" type="line"/>
    </contour>
    <contour>
      <point x="239" y="319" type="line"/>
      <point x="207" y="505" type="line"/>
      <point x="1289" y="505" type="line"/>
      <point x="1252" y="319" type="line"/>
    </contour>
  </outline>
</glyph>
<glyph name="brokenbar" format="2">
  <advance width="698"/>
  <unicode hex="00A6"/>
  <outline>
    <contour>
      <point x="186" y="705" type="line"/>
      <point x="186" y="907" type="line"/>
      <point x="185" y="1215" type="line"/>
      <point x="173" y="1503" type="line"/>
      <point x="525" y="1527" type="line"/>
      <point x="513" y="1215" type="line"/>
      <point x="517" y="907" type="line"/>
      <point x="517" y="728" type="line"/>
    </contour>
    <contour>
      <point x="173" y="-517" type="line"/>
      <point x="185" y="-101" type="line"/>
      <point x="182" y="207" type="line"/>
      <point x="180" y="428" type="line"/>
      <point x="512" y="445" type="line"/>
      <point x="519" y="207" type="line"/>
      <point x="513" y="-101" type="line"/>
      <point x="525" y="-505" type="line"/>
    </contour>
  </outline>
</glyph>
<glyph name="section" format="2">
  <advance width="1235"/>
  <unicode hex="00A7"/>
  <outline>
    <contour>
      <point x="1158" y="115" type="qcurve" smooth="yes"/>
      <point x="1158" y="-51"/>
      <point x="892" y="-253"/>
      <point x="695" y="-253" type="qcurve" smooth="yes"/>
      <point x="534" y="-253"/>
      <point x="342" y="-187"/>
      <point x="280" y="-135" type="qcurve"/>
      <point x="232" y="-235" type="line"/>
      <point x="110" y="-235" type="line"/>
      <point x="110" y="229" type="line"/>
      <point x="264" y="229" type="line"/>
      <point x="281" y="154" type="line" smooth="yes"/>
      <point x="306" y="40"/>
      <point x="516" y="-77"/>
      <point x="637" y="-77" type="qcurve" smooth="yes"/>
      <point x="755" y="-77"/>
      <point x="875" y="-2"/>
      <point x="875" y="71" type="qcurve" smooth="yes"/>
      <point x="875" y="146"/>
      <point x="704" y="245"/>
      <point x="500" y="312" type="qcurve" smooth="yes"/>
      <point x="286" y="383"/>
      <point x="92" y="585"/>
      <point x="92" y="727" type="qcurve" smooth="yes"/>
      <point x="92" y="827"/>
      <point x="201" y="964"/>
      <point x="275" y="1007" type="qcurve"/>
      <point x="220" y="1044"/>
      <point x="152" y="1164"/>
      <point x="153" y="1231" type="qcurve" smooth="yes"/>
      <point x="155" y="1366"/>
      <point x="410" y="1512"/>
      <point x="594" y="1512" type="qcurve" smooth="yes"/>
      <point x="681" y="1512"/>
      <point x="826" y="1477"/>
      <point x="874" y="1449" type="qcurve"/>
      <point x="891" y="1480" type="line"/>
      <point x="1006" y="1480" type="line"/>
      <point x="1006" y="1143" type="line"/>
      <point x="853" y="1143" type="line"/>
      <point x="835" y="1238" type="line" smooth="yes"/>
      <point x="825" y="1286"/>
      <point x="702" y="1342"/>
      <point x="610" y="1342" type="qcurve" smooth="yes"/>
      <point x="530" y="1342"/>
      <point x="441" y="1293"/>
      <point x="441" y="1244" type="qcurve" smooth="yes"/>
      <point x="441" y="1193"/>
      <point x="537" y="1122"/>
      <point x="702" y="1082" type="qcurve" smooth="yes"/>
      <point x="906" y="1033"/>
      <point x="1118" y="882"/>
      <point x="1118" y="742" type="qcurve" smooth="yes"/>
      <point x="1118" y="643"/>
      <point x="959" y="487"/>
      <point x="833" y="477" type="qcurve"/>
      <point x="989" y="421"/>
      <point x="1158" y="248"/>
    </contour>
    <contour>
      <point x="350" y="772" type="qcurve" smooth="yes"/>
      <point x="350" y="699"/>
      <point x="475" y="628"/>
      <point x="638" y="573" type="qcurve"/>
      <point x="731" y="566"/>
      <point x="851" y="629"/>
      <point x="851" y="700" type="qcurve" smooth="yes"/>
      <point x="851" y="769"/>
      <point x="747" y="838"/>
      <point x="584" y="883" type="qcurve" smooth="yes"/>
      <point x="553" y="892"/>
      <point x="474" y="915"/>
      <point x="451" y="924" type="qcurve"/>
      <point x="404" y="904"/>
      <point x="350" y="828"/>
    </contour>
  </outline>
</glyph>
<glyph name="dieresis" format="2">
  <advance width="1024"/>
  <unicode hex="00A8"/>
  <outline>
    <contour>
      <point x="589" y="1424" type="qcurve" smooth="yes"/>
      <point x="589" y="1498"/>
      <point x="669" y="1578"/>
      <point x="745" y="1578" type="qcurve" smooth="yes"/>
      <point x="816" y="1578"/>
      <point x="900" y="1492"/>
      <point x="900" y="1424" type="qcurve" smooth="yes"/>
      <point x="900" y="1349"/>
      <point x="822" y="1270"/>
      <point x="745" y="1270" type="qcurve" smooth="yes"/>
      <point x="673" y="1270"/>
      <point x="589" y="1353"/>
    </contour>
    <contour>
      <point x="124" y="1424" type="qcurve" smooth="yes"/>
      <point x="124" y="1498"/>
      <point x="203" y="1578"/>
      <point x="279" y="1578" type="qcurve" smooth="yes"/>
      <point x="351" y="1578"/>
      <point x="435" y="1492"/>
      <point x="435" y="1424" type="qcurve" smooth="yes"/>
      <point x="435" y="1349"/>
      <point x="356" y="1270"/>
      <point x="279" y="1270" type="qcurve" smooth="yes"/>
      <point x="208" y="1270"/>
      <point x="124" y="1353"/>
    </contour>
  </outline>
</glyph>
<glyph name="copyright" format="2">
  <advance width="2066"/>
  <unicode hex="00A9"/>
  <outline>
    <contour>
      <point x="526" y="647" type="qcurve" smooth="yes"/>
      <point x="526" y="894"/>
      <point x="830" y="1192"/>
      <point x="1078" y="1192" type="qcurve" smooth="yes"/>
      <point x="1156" y="1192"/>
      <point x="1270" y="1156"/>
      <point x="1300" y="1134" type="qcurve"/>
      <point x="1322" y="1181" type="line"/>
      <point x="1434" y="1155" type="line"/>
      <point x="1445" y="842" type="line"/>
      <point x="1303" y="824" type="line"/>
      <point x="1285" y="891" type="line"/>
      <point x="1264" y="940"/>
      <point x="1178" y="999"/>
      <point x="1117" y="999" type="qcurve" smooth="yes"/>
      <point x="1002" y="999"/>
      <point x="868" y="829"/>
      <point x="868" y="661" type="qcurve" smooth="yes"/>
      <point x="868" y="520"/>
      <point x="1016" y="361"/>
      <point x="1141" y="361" type="qcurve" smooth="yes"/>
      <point x="1228" y="361"/>
      <point x="1369" y="422"/>
      <point x="1412" y="465" type="qcurve"/>
      <point x="1498" y="349" type="line"/>
      <point x="1444" y="266"/>
      <point x="1220" y="147"/>
      <point x="1046" y="147" type="qcurve" smooth="yes"/>
      <point x="860" y="147"/>
      <point x="526" y="398"/>
    </contour>
    <contour>
      <point x="72" y="686" type="qcurve" smooth="yes"/>
      <point x="72" y="1074"/>
      <point x="615" y="1599"/>
      <point x="1035" y="1599" type="qcurve" smooth="yes"/>
      <point x="1454" y="1599"/>
      <point x="1994" y="1100"/>
      <point x="1994" y="707" type="qcurve" smooth="yes"/>
      <point x="1994" y="276"/>
      <point x="1461" y="-271"/>
      <point x="1048" y="-271" type="qcurve" smooth="yes"/>
      <point x="622" y="-271"/>
      <point x="72" y="264"/>
    </contour>
    <contour>
      <point x="305" y="680" type="qcurve" smooth="yes"/>
      <point x="305" y="348"/>
      <point x="744" y="-87"/>
      <point x="1062" y="-87" type="qcurve" smooth="yes"/>
      <point x="1370" y="-87"/>
      <point x="1761" y="372"/>
      <point x="1761" y="697" type="qcurve" smooth="yes"/>
      <point x="1761" y="993"/>
      <point x="1348" y="1415"/>
      <point x="1016" y="1415" type="qcurve" smooth="yes"/>
      <point x="701" y="1415"/>
      <point x="305" y="985"/>
    </contour>
  </outline>
</glyph>
<glyph name="ordfeminine" format="2">
  <advance width="1241"/>
  <unicode hex="00AA"/>
  <outline>
    <contour>
      <point x="73" y="840" type="qcurve" smooth="yes"/>
      <point x="73" y="974"/>
      <point x="390" y="1142"/>
      <point x="741" y="1168" type="qcurve"/>
      <point x="749" y="1038" type="line"/>
      <point x="579" y="1023"/>
      <point x="425" y="924"/>
      <point x="426" y="850" type="qcurve" smooth="yes"/>
      <point x="427" y="812"/>
      <point x="472" y="764"/>
      <point x="530" y="764" type="qcurve" smooth="yes"/>
      <point x="586" y="764"/>
      <point x="690" y="813"/>
      <point x="719" y="859" type="qcurve"/>
      <point x="711" y="1149" type="line" smooth="yes"/>
      <point x="712" y="1239"/>
      <point x="625" y="1346"/>
      <point x="523" y="1346" type="qcurve" smooth="yes"/>
      <point x="464" y="1346"/>
      <point x="381" y="1330"/>
      <point x="359" y="1323" type="qcurve"/>
      <point x="367" y="1309"/>
      <point x="378" y="1276"/>
      <point x="378" y="1252" type="qcurve" smooth="yes"/>
      <point x="378" y="1211"/>
      <point x="322" y="1154"/>
      <point x="265" y="1154" type="qcurve" smooth="yes"/>
      <point x="211" y="1154"/>
      <point x="134" y="1220"/>
      <point x="134" y="1293" type="qcurve" smooth="yes"/>
      <point x="134" y="1397"/>
      <point x="385" y="1527"/>
      <point x="616" y="1527" type="qcurve" smooth="yes"/>
      <point x="838" y="1527"/>
      <point x="1058" y="1360"/>
      <point x="1060" y="1175" type="qcurve" smooth="yes"/>
      <point x="1065" y="778" type="line"/>
      <point x="1201" y="748" type="line"/>
      <point x="1201" y="608" type="line"/>
      <point x="790" y="608" type="line"/>
      <point x="742" y="661" type="line"/>
      <point x="733" y="706" type="line"/>
      <point x="690" y="660"/>
      <point x="515" y="594"/>
      <point x="399" y="594" type="qcurve" smooth="yes"/>
      <point x="238" y="594"/>
      <point x="73" y="732"/>
    </contour>
  </outline>
</glyph>
<glyph name="guillemetleft" format="2">
  <advance width="1538"/>
  <unicode hex="00AB"/>
  <outline>
    <contour>
      <point x="39" y="648" type="line"/>
      <point x="104" y="704"/>
      <point x="510" y="1009"/>
      <point x="585" y="1066" type="qcurve" smooth="yes"/>
      <point x="706" y="1159"/>
      <point x="815" y="980"/>
      <point x="724" y="898" type="qcurve" smooth="yes"/>
      <point x="626" y="811"/>
      <point x="427" y="640"/>
      <point x="398" y="614" type="qcurve"/>
      <point x="433" y="582"/>
      <point x="643" y="394"/>
      <point x="728" y="320" type="qcurve" smooth="yes"/>
      <point x="826" y="234"/>
      <point x="710" y="69"/>
      <point x="598" y="149" type="qcurve" smooth="yes"/>
      <point x="530" y="196"/>
      <point x="112" y="519"/>
      <point x="39" y="574" type="qcurve"/>
    </contour>
    <contour>
      <point x="685" y="648" type="line"/>
      <point x="751" y="704"/>
      <point x="1157" y="1009"/>
      <point x="1232" y="1066" type="qcurve" smooth="yes"/>
      <point x="1353" y="1159"/>
      <point x="1462" y="980"/>
      <point x="1371" y="898" type="qcurve" smooth="yes"/>
      <point x="1273" y="811"/>
      <point x="1074" y="640"/>
      <point x="1044" y="614" type="qcurve"/>
      <point x="1080" y="582"/>
      <point x="1290" y="394"/>
      <point x="1375" y="320" type="qcurve" smooth="yes"/>
      <point x="1473" y="234"/>
      <point x="1357" y="69"/>
      <point x="1244" y="149" type="qcurve" smooth="yes"/>
      <point x="1177" y="196"/>
      <point x="759" y="519"/>
      <point x="686" y="574" type="qcurve"/>
    </contour>
  </outline>
</glyph>
<glyph name="logicalnot" format="2">
  <advance width="1063"/>
  <unicode hex="00AC"/>
  <outline>
    <contour>
      <point x="64" y="794" type="line"/>
      <point x="976" y="794" type="line"/>
      <point x="976" y="208" type="line"/>
      <point x="696" y="208" type="line"/>
      <point x="696" y="537" type="line"/>
      <point x="64" y="537" type="line"/>
    </contour>
  </outline>
</glyph>
<glyph name="registered" format="2">
  <advance width="2066"/>
  <unicode hex="00AE"/>
  <outline>
    <contour>
      <point x="72" y="685" type="qcurve" smooth="yes"/>
      <point x="72" y="1074"/>
      <point x="615" y="1600"/>
      <point x="1035" y="1600" type="qcurve" smooth="yes"/>
      <point x="1453" y="1600"/>
      <point x="1994" y="1100"/>
      <point x="1994" y="706" type="qcurve" smooth="yes"/>
      <point x="1994" y="274"/>
      <point x="1461" y="-274"/>
      <point x="1048" y="-274" type="qcurve" smooth="yes"/>
      <point x="622" y="-274"/>
      <point x="72" y="262"/>
    </contour>
    <contour>
      <point x="260" y="681" type="qcurve" smooth="yes"/>
      <point x="260" y="334"/>
      <point x="726" y="-121"/>
      <point x="1063" y="-121" type="qcurve" smooth="yes"/>
      <point x="1391" y="-121"/>
      <point x="1806" y="359"/>
      <point x="1806" y="699" type="qcurve" smooth="yes"/>
      <point x="1806" y="1008"/>
      <point x="1367" y="1449"/>
      <point x="1014" y="1449" type="qcurve" smooth="yes"/>
      <point x="681" y="1449"/>
      <point x="260" y="999"/>
    </contour>
    <contour>
      <point x="597" y="176" type="line"/>
      <point x="594" y="276" type="line"/>
      <point x="688" y="300" type="line"/>
      <point x="690" y="723" type="line"/>
      <point x="688" y="1075" type="line"/>
      <point x="584" y="1098" type="line"/>
      <point x="584" y="1209" type="line"/>
      <point x="1070" y="1209" type="line" smooth="yes"/>
      <point x="1228" y="1209"/>
      <point x="1411" y="1069"/>
      <point x="1411" y="941" type="qcurve" smooth="yes"/>
      <point x="1411" y="798"/>
      <point x="1194" y="621"/>
      <point x="1068" y="621" type="qcurve" smooth="yes"/>
      <point x="1017" y="621"/>
      <point x="897" y="630"/>
      <point x="873" y="630" type="qcurve"/>
      <point x="873" y="755" type="line"/>
      <point x="980" y="755" type="line" smooth="yes"/>
      <point x="1082" y="755"/>
      <point x="1183" y="841"/>
      <point x="1183" y="912" type="qcurve" smooth="yes"/>
      <point x="1183" y="996"/>
      <point x="1098" y="1058"/>
      <point x="995" y="1058" type="qcurve" smooth="yes"/>
      <point x="931" y="1058" type="line"/>
      <point x="910" y="1045" type="line"/>
      <point x="906" y="710" type="line"/>
      <point x="908" y="300" type="line"/>
      <point x="1020" y="276" type="line"/>
      <point x="1020" y="176" type="line"/>
    </contour>
    <contour>
      <point x="955" y="697" type="line"/>
      <point x="1182" y="725" type="line"/>
      <point x="1379" y="413" type="line" smooth="yes"/>
      <point x="1444" y="311"/>
      <point x="1512" y="296"/>
      <point x="1554" y="296" type="qcurve"/>
      <point x="1554" y="176" type="line"/>
      <point x="1329" y="176" type="line"/>
      <point x="1277" y="190" type="line"/>
    </contour>
  </outline>
</glyph>
<glyph name="degree" format="2">
  <advance width="1004"/>
  <unicode hex="00B0"/>
  <outline>
    <contour>
      <point x="124" y="1193" type="qcurve" smooth="yes"/>
      <point x="124" y="1343"/>
      <point x="337" y="1562"/>
      <point x="502" y="1562" type="qcurve" smooth="yes"/>
      <point x="667" y="1562"/>
      <point x="880" y="1343"/>
      <point x="880" y="1193" type="qcurve" smooth="yes"/>
      <point x="880" y="1046"/>
      <point x="667" y="826"/>
      <point x="502" y="826" type="qcurve" smooth="yes"/>
      <point x="337" y="826"/>
      <point x="124" y="1046"/>
    </contour>
    <contour>
      <point x="318" y="1193" type="qcurve" smooth="yes"/>
      <point x="318" y="1122"/>
      <point x="422" y="1011"/>
      <point x="502" y="1011" type="qcurve" smooth="yes"/>
      <point x="583" y="1011"/>
      <point x="686" y="1122"/>
      <point x="686" y="1193" type="qcurve" smooth="yes"/>
      <point x="686" y="1268"/>
      <point x="583" y="1377"/>
      <point x="502" y="1377" type="qcurve" smooth="yes"/>
      <point x="422" y="1377"/>
      <point x="318" y="1268"/>
    </contour>
  </outline>
</glyph>
<glyph name="plusminus" format="2">
  <advance width="1063"/>
  <unicode hex="00B1"/>
  <outline>
    <contour>
      <point x="69" y="619" type="line"/>
      <point x="69" y="872" type="line"/>
      <point x="995" y="872" type="line"/>
      <point x="995" y="619" type="line"/>
    </contour>
    <contour>
      <point x="388" y="314" type="line"/>
      <point x="388" y="1189" type="line"/>
      <point x="675" y="1189" type="line"/>
      <point x="675" y="314" type="line"/>
    </contour>
    <contour>
      <point x="69" y="-11" type="line"/>
      <point x="69" y="231" type="line"/>
      <point x="995" y="231" type="line"/>
      <point x="995" y="-11" type="line"/>
    </contour>
  </outline>
</glyph>
<glyph name="twosuperior" format="2">
  <advance width="842"/>
  <unicode hex="00B2"/>
  <outline>
    <contour>
      <point x="59" y="620" type="line"/>
      <point x="58" y="737" type="line"/>
      <point x="56" y="842"/>
      <point x="219" y="1040"/>
      <point x="336" y="1095" type="qcurve" smooth="yes"/>
      <point x="446" y="1148"/>
      <point x="486" y="1215"/>
      <point x="486" y="1257" type="qcurve" smooth="yes"/>
      <point x="486" y="1299"/>
      <point x="436" y="1349"/>
      <point x="372" y="1349" type="qcurve" smooth="yes"/>
      <point x="303" y="1349"/>
      <point x="182" y="1275"/>
      <point x="140" y="1236" type="qcurve"/>
      <point x="40" y="1349" type="line"/>
      <point x="94" y="1421"/>
      <point x="310" y="1520"/>
      <point x="453" y="1520" type="qcurve" smooth="yes"/>
      <point x="600" y="1520"/>
      <point x="769" y="1398"/>
      <point x="769" y="1284" type="qcurve" smooth="yes"/>
      <point x="769" y="1174"/>
      <point x="644" y="1022"/>
      <point x="499" y="977" type="qcurve" smooth="yes"/>
      <point x="359" y="934"/>
      <point x="277" y="872"/>
      <point x="268" y="821" type="qcurve"/>
      <point x="269" y="814" type="line"/>
      <point x="791" y="814" type="line"/>
      <point x="791" y="620" type="line"/>
    </contour>
  </outline>
</glyph>
<glyph name="threesuperior" format="2">
  <advance width="726"/>
  <unicode hex="00B3"/>
  <outline>
    <contour>
      <point x="19" y="705" type="qcurve"/>
      <point x="71" y="845" type="line"/>
      <point x="102" y="818"/>
      <point x="221" y="769"/>
      <point x="287" y="769" type="qcurve" smooth="yes"/>
      <point x="350" y="769"/>
      <point x="424" y="826"/>
      <point x="424" y="890" type="qcurve" smooth="yes"/>
      <point x="424" y="957"/>
      <point x="327" y="1013"/>
      <point x="221" y="1013" type="qcurve" smooth="yes"/>
      <point x="193" y="1013" type="line"/>
      <point x="178" y="1147" type="line"/>
      <point x="235" y="1151" type="line" smooth="yes"/>
      <point x="325" y="1158"/>
      <point x="409" y="1213"/>
      <point x="409" y="1272" type="qcurve" smooth="yes"/>
      <point x="409" y="1322"/>
      <point x="354" y="1360"/>
      <point x="301" y="1360" type="qcurve" smooth="yes"/>
      <point x="243" y="1360"/>
      <point x="159" y="1340"/>
      <point x="112" y="1314" type="qcurve"/>
      <point x="63" y="1414" type="line"/>
      <point x="118" y="1464"/>
      <point x="277" y="1520"/>
      <point x="388" y="1520" type="qcurve" smooth="yes"/>
      <point x="522" y="1520"/>
      <point x="673" y="1409"/>
      <point x="675" y="1321" type="qcurve" smooth="yes"/>
      <point x="676" y="1225"/>
      <point x="559" y="1120"/>
      <point x="445" y="1094" type="qcurve"/>
      <point x="445" y="1090" type="line"/>
      <point x="564" y="1087"/>
      <point x="700" y="978"/>
      <point x="700" y="874" type="qcurve" smooth="yes"/>
      <point x="700" y="741"/>
      <point x="486" y="607"/>
      <point x="320" y="607" type="qcurve" smooth="yes"/>
      <point x="234" y="607"/>
      <point x="71" y="659"/>
    </contour>
  </outline>
</glyph>
<glyph name="acute" format="2">
  <advance width="1024"/>
  <unicode hex="00B4"/>
  <outline>
    <contour>
      <point x="808" y="1641" type="qcurve" smooth="yes"/>
      <point x="808" y="1596"/>
      <point x="766" y="1524"/>
      <point x="716" y="1491" type="qcurve" smooth="yes"/>
      <point x="394" y="1270" type="line"/>
      <point x="291" y="1384" type="line"/>
      <point x="498" y="1638" type="line" smooth="yes"/>
      <point x="542" y="1692"/>
      <point x="625" y="1757"/>
      <point x="671" y="1757" type="qcurve" smooth="yes"/>
      <point x="731" y="1757"/>
      <point x="808" y="1682"/>
    </contour>
  </outline>
</glyph>
<glyph name="micro" format="2">
  <advance width="1486"/>
  <unicode hex="00B5"/>
  <outline>
    <contour>
      <point x="-70" y="-290" type="line"/>
      <point x="-41" y="-266" type="line"/>
      <point x="-5" y="-126"/>
      <point x="112" y="292"/>
      <point x="135" y="399" type="qcurve" smooth="yes"/>
      <point x="237" y="864" type="line"/>
      <point x="71" y="873" type="line"/>
      <point x="79" y="1039" type="line"/>
      <point x="506" y="1093" type="line"/>
      <point x="610" y="1093" type="line"/>
      <point x="672" y="971" type="line"/>
      <point x="542" y="391" type="line" smooth="yes"/>
      <point x="522" y="302"/>
      <point x="539" y="195"/>
      <point x="601" y="195" type="qcurve" smooth="yes"/>
      <point x="668" y="195"/>
      <point x="791" y="248"/>
      <point x="852" y="301" type="qcurve"/>
      <point x="1015" y="916" type="line"/>
      <point x="975" y="1058" type="line"/>
      <point x="1412" y="1087" type="line"/>
      <point x="1449" y="971" type="line"/>
      <point x="1305" y="438" type="line"/>
      <point x="1269" y="227" type="line"/>
      <point x="1432" y="230" type="line"/>
      <point x="1433" y="79" type="line"/>
      <point x="958" y="-18" type="line"/>
      <point x="869" y="66" type="line"/>
      <point x="856" y="147" type="line"/>
      <point x="780" y="77"/>
      <point x="620" y="0"/>
      <point x="534" y="0" type="qcurve" smooth="yes"/>
      <point x="507" y="0"/>
      <point x="447" y="13"/>
      <point x="419" y="20" type="qcurve"/>
      <point x="377" y="-204" type="line"/>
      <point x="553" y="-212" type="line"/>
      <point x="548" y="-371" type="line"/>
      <point x="-50" y="-399" type="line"/>
    </contour>
  </outline>
</glyph>
<glyph name="paragraph" format="2">
  <advance width="1286"/>
  <unicode hex="00B6"/>
  <outline>
    <contour>
      <point x="1191" y="169" type="line"/>
      <point x="1191" y="0" type="line"/>
      <point x="257" y="0" type="line"/>
      <point x="257" y="170" type="line"/>
      <point x="856" y="200" type="line"/>
      <point x="858" y="687" type="line"/>
      <point x="819" y="681"/>
      <point x="615" y="673"/>
      <point x="556" y="673" type="qcurve" smooth="yes"/>
      <point x="317" y="673"/>
      <point x="69" y="913"/>
      <point x="69" y="1091" type="qcurve" smooth="yes"/>
      <point x="69" y="1306"/>
      <point x="351" y="1500"/>
      <point x="543" y="1500" type="qcurve" smooth="yes"/>
      <point x="1244" y="1500" type="line"/>
      <point x="1244" y="1313" type="line"/>
      <point x="1063" y="1279" type="line"/>
      <point x="1061" y="694" type="line"/>
      <point x="1063" y="201" type="line"/>
    </contour>
    <contour>
      <point x="673" y="71" type="line"/>
      <point x="482" y="66" type="line"/>
      <point x="484" y="687" type="line"/>
      <point x="671" y="694" type="line"/>
    </contour>
  </outline>
</glyph>
<glyph name="cedilla" format="2">
  <advance width="1024"/>
  <unicode hex="00B8"/>
  <outline>
    <contour>
      <point x="556" y="0" type="line"/>
      <point x="505" y="-128" type="line"/>
      <point x="523" y="-116"/>
      <point x="593" y="-110"/>
      <point x="629" y="-110" type="qcurve" smooth="yes"/>
      <point x="723" y="-110"/>
      <point x="866" y="-202"/>
      <point x="866" y="-303" type="qcurve" smooth="yes"/>
      <point x="866" y="-414"/>
      <point x="678" y="-552"/>
      <point x="514" y="-552" type="qcurve" smooth="yes"/>
      <point x="431" y="-552"/>
      <point x="261" y="-507"/>
      <point x="191" y="-470" type="qcurve"/>
      <point x="246" y="-357" type="line"/>
      <point x="289" y="-380"/>
      <point x="424" y="-415"/>
      <point x="500" y="-415" type="qcurve" smooth="yes"/>
      <point x="558" y="-415"/>
      <point x="633" y="-371"/>
      <point x="633" y="-324" type="qcurve" smooth="yes"/>
      <point x="633" y="-282"/>
      <point x="584" y="-239"/>
      <point x="534" y="-239" type="qcurve" smooth="yes"/>
      <point x="508" y="-239"/>
      <point x="450" y="-246"/>
      <point x="432" y="-254" type="qcurve"/>
      <point x="345" y="-167" type="line"/>
      <point x="411" y="0" type="line"/>
    </contour>
  </outline>
</glyph>
<glyph name="onesuperior" format="2">
  <advance width="813"/>
  <unicode hex="00B9"/>
  <outline>
    <contour>
      <point x="84" y="620" type="line"/>
      <point x="84" y="767" type="line"/>
      <point x="277" y="797" type="line"/>
      <point x="285" y="1081" type="line"/>
      <point x="287" y="1295" type="line"/>
      <point x="82" y="1323" type="line"/>
      <point x="82" y="1477" type="line"/>
      <point x="528" y="1510" type="line"/>
      <point x="560" y="1475" type="line"/>
      <point x="554" y="1104" type="line"/>
      <point x="556" y="797" type="line"/>
      <point x="753" y="767" type="line"/>
      <point x="753" y="620" type="line"/>
    </contour>
  </outline>
</glyph>
<glyph name="ordmasculine" format="2">
  <advance width="1227"/>
  <unicode hex="00BA"/>
  <outline>
    <contour>
      <point x="73" y="1060" type="qcurve" smooth="yes"/>
      <point x="73" y="1265"/>
      <point x="357" y="1528"/>
      <point x="611" y="1528" type="qcurve" smooth="yes"/>
      <point x="867" y="1528"/>
      <point x="1154" y="1283"/>
      <point x="1154" y="1066" type="qcurve" smooth="yes"/>
      <point x="1154" y="863"/>
      <point x="871" y="594"/>
      <point x="617" y="594" type="qcurve" smooth="yes"/>
      <point x="362" y="594"/>
      <point x="73" y="842"/>
    </contour>
    <contour>
      <point x="434" y="1073" type="qcurve" smooth="yes"/>
      <point x="435" y="909"/>
      <point x="528" y="744"/>
      <point x="609" y="744" type="qcurve" smooth="yes"/>
      <point x="696" y="744"/>
      <point x="787" y="893"/>
      <point x="787" y="1062" type="qcurve" smooth="yes"/>
      <point x="787" y="1221"/>
      <point x="692" y="1367"/>
      <point x="611" y="1367" type="qcurve" smooth="yes"/>
      <point x="522" y="1367"/>
      <point x="433" y="1237"/>
    </contour>
  </outline>
</glyph>
<glyph name="guillemetright" format="2">
  <advance width="1538"/>
  <unicode hex="00BB"/>
  <outline>
    <contour>
      <point x="1493" y="580" type="line"/>
      <point x="1428" y="524"/>
      <point x="1021" y="218"/>
      <point x="946" y="162" type="qcurve" smooth="yes"/>
      <point x="825" y="69"/>
      <point x="717" y="248"/>
      <point x="807" y="329" type="qcurve" smooth="yes"/>
      <point x="906" y="416"/>
      <point x="1105" y="587"/>
      <point x="1134" y="614" type="qcurve"/>
      <point x="1099" y="645"/>
      <point x="888" y="834"/>
      <point x="803" y="908" type="qcurve" smooth="yes"/>
      <point x="706" y="994"/>
      <point x="822" y="1159"/>
      <point x="934" y="1078" type="qcurve" smooth="yes"/>
      <point x="1001" y="1031"/>
      <point x="1420" y="709"/>
      <point x="1492" y="654" type="qcurve"/>
    </contour>
    <contour>
      <point x="846" y="580" type="line"/>
      <point x="781" y="524"/>
      <point x="375" y="218"/>
      <point x="300" y="162" type="qcurve" smooth="yes"/>
      <point x="179" y="69"/>
      <point x="70" y="248"/>
      <point x="161" y="329" type="qcurve" smooth="yes"/>
      <point x="259" y="416"/>
      <point x="458" y="587"/>
      <point x="487" y="614" type="qcurve"/>
      <point x="452" y="645"/>
      <point x="242" y="834"/>
      <point x="157" y="908" type="qcurve" smooth="yes"/>
      <point x="59" y="994"/>
      <point x="175" y="1159"/>
      <point x="287" y="1078" type="qcurve" smooth="yes"/>
      <point x="355" y="1031"/>
      <point x="773" y="709"/>
      <point x="846" y="654" type="qcurve"/>
    </contour>
  </outline>
</glyph>
<glyph name="questiondown" format="2">
  <advance width="1166"/>
  <unicode hex="00BF"/>
  <outline>
    <contour>
      <point x="912" y="1169" type="qcurve" smooth="yes"/>
      <point x="912" y="1089"/>
      <point x="796" y="974"/>
      <point x="703" y="974" type="qcurve" smooth="yes"/>
      <point x="611" y="974"/>
      <point x="495" y="1089"/>
      <point x="495" y="1169" type="qcurve" smooth="yes"/>
      <point x="495" y="1248"/>
      <point x="611" y="1363"/>
      <point x="703" y="1363" type="qcurve" smooth="yes"/>
      <point x="796" y="1363"/>
      <point x="912" y="1248"/>
    </contour>
    <contour>
      <point x="1119" y="191" type="qcurve" smooth="yes"/>
      <point x="1119" y="46"/>
      <point x="855" y="-183"/>
      <point x="600" y="-183" type="qcurve" smooth="yes"/>
      <point x="330" y="-183"/>
      <point x="50" y="9"/>
      <point x="50" y="178" type="qcurve" smooth="yes"/>
      <point x="50" y="324"/>
      <point x="207" y="530"/>
      <point x="330" y="586" type="qcurve" smooth="yes"/>
      <point x="453" y="641"/>
      <point x="645" y="746"/>
      <point x="645" y="816" type="qcurve" smooth="yes"/>
      <point x="645" y="866" type="line"/>
      <point x="814" y="866" type="line"/>
      <point x="821" y="782" type="line" smooth="yes"/>
      <point x="834" y="664"/>
      <point x="732" y="472"/>
      <point x="610" y="407" type="qcurve" smooth="yes"/>
      <point x="524" y="363"/>
      <point x="446" y="261"/>
      <point x="446" y="175" type="qcurve" smooth="yes"/>
      <point x="446" y="96"/>
      <point x="557" y="3"/>
      <point x="673" y="3" type="qcurve" smooth="yes"/>
      <point x="798" y="3"/>
      <point x="914" y="68"/>
      <point x="914" y="119" type="qcurve" smooth="yes"/>
      <point x="914" y="159"/>
      <point x="789" y="234"/>
      <point x="789" y="301" type="qcurve" smooth="yes"/>
      <point x="789" y="355"/>
      <point x="860" y="431"/>
      <point x="930" y="431" type="qcurve" smooth="yes"/>
      <point x="1015" y="431"/>
      <point x="1119" y="293"/>
    </contour>
  </outline>
</glyph>
<glyph name="AE" format="2">
  <advance width="2182"/>
  <unicode hex="00C6"/>
  <anchor x="1148" y="1500" name="top"/>
  <outline>
    <contour>
      <point x="-68" y="0" type="line"/>
      <point x="-68" y="176" type="line"/>
      <point x="128" y="205" type="line"/>
      <point x="346" y="540" type="line"/>
      <point x="806" y="1288" type="line"/>
      <point x="622" y="1317" type="line"/>
      <point x="622" y="1500" type="line"/>
      <point x="2077" y="1500" type="line"/>
      <point x="2077" y="1122" type="line"/>
      <point x="1894" y="1122" type="line"/>
      <point x="1859" y="1305" type="line"/>
      <point x="1537" y="1305" type="line"/>
      <point x="1451" y="1283" type="line"/>
      <point x="1449" y="783" type="line"/>
      <point x="1451" y="216" type="line"/>
      <point x="1533" y="191" type="line"/>
      <point x="1915" y="191" type="line"/>
      <point x="1988" y="414" type="line"/>
      <point x="2171" y="414" type="line"/>
      <point x="2132" y="0" type="line"/>
      <point x="825" y="0" type="line"/>
      <point x="825" y="170" type="line"/>
      <point x="1013" y="206" type="line"/>
      <point x="1015" y="783" type="line"/>
      <point x="1013" y="1277" type="line"/>
      <point x="1000" y="1284" type="line"/>
      <point x="541" y="503" type="line"/>
      <point x="368" y="204" type="line"/>
      <point x="561" y="176" type="line"/>
      <point x="561" y="0" type="line"/>
    </contour>
    <contour>
      <point x="403" y="481" type="line"/>
      <point x="483" y="658" type="line"/>
      <point x="738" y="643" type="line"/>
      <point x="738" y="481" type="line"/>
    </contour>
    <contour>
      <point x="738" y="643" type="line"/>
      <point x="1082" y="659" type="line"/>
      <point x="1082" y="481" type="line"/>
      <point x="738" y="481" type="line"/>
    </contour>
    <contour>
      <point x="1232" y="700" type="line"/>
      <point x="1232" y="868" type="line"/>
      <point x="1769" y="878" type="line"/>
      <point x="1799" y="1026" type="line"/>
      <point x="1967" y="1026" type="line"/>
      <point x="1967" y="542" type="line"/>
      <point x="1799" y="542" type="line"/>
      <point x="1769" y="690" type="line"/>
    </contour>
  </outline>
</glyph>
<glyph name="multiply" format="2">
  <advance width="1063"/>
  <unicode hex="00D7"/>
  <outline>
    <contour>
      <point x="285" y="201" type="line"/>
      <point x="101" y="386" type="line"/>
      <point x="779" y="1063" type="line"/>
      <point x="963" y="879" type="line"/>
    </contour>
    <contour>
      <point x="777" y="200" type="line"/>
      <point x="100" y="877" type="line"/>
      <point x="287" y="1065" type="line"/>
      <point x="964" y="387" type="line"/>
    </contour>
  </outline>
</glyph>
<glyph name="Thorn" format="2">
  <advance width="1606"/>
  <unicode hex="00DE"/>
  <outline>
    <contour>
      <point x="55" y="0" type="line"/>
      <point x="55" y="170" type="line"/>
      <point x="243" y="206" type="line"/>
      <point x="245" y="754" type="line"/>
      <point x="243" y="1282" type="line"/>
      <point x="55" y="1316" type="line"/>
      <point x="55" y="1500" type="line"/>
      <point x="865" y="1500" type="line"/>
      <point x="865" y="1320" type="line"/>
      <point x="682" y="1290" type="line"/>
      <point x="681" y="1222" type="line"/>
      <point x="1031" y="1222" type="line" smooth="yes"/>
      <point x="1295" y="1222"/>
      <point x="1559" y="999"/>
      <point x="1559" y="783" type="qcurve" smooth="yes"/>
      <point x="1559" y="534"/>
      <point x="1241" y="271"/>
      <point x="939" y="270" type="qcurve" smooth="yes"/>
      <point x="833" y="271"/>
      <point x="674" y="286"/>
      <point x="599" y="299" type="qcurve"/>
      <point x="608" y="475" type="line"/>
      <point x="663" y="466"/>
      <point x="757" y="457"/>
      <point x="836" y="456" type="qcurve" smooth="yes"/>
      <point x="968" y="457"/>
      <point x="1111" y="606"/>
      <point x="1108" y="760" type="qcurve" smooth="yes"/>
      <point x="1106" y="906"/>
      <point x="963" y="1018"/>
      <point x="838" y="1021" type="qcurve" smooth="yes"/>
      <point x="682" y="1021" type="line"/>
      <point x="679" y="294" type="line"/>
      <point x="681" y="191" type="line"/>
      <point x="877" y="157" type="line"/>
      <point x="877" y="0" type="line"/>
    </contour>
  </outline>
</glyph>
<glyph name="germandbls" format="2">
  <advance width="1712"/>
  <unicode hex="00DF"/>
  <outline>
    <contour>
      <point x="1348" y="1241" type="qcurve" smooth="yes"/>
      <point x="1348" y="1142"/>
      <point x="1258" y="1020"/>
      <point x="1180" y="964" type="qcurve" smooth="yes"/>
      <point x="1106" y="912"/>
      <point x="1052" y="868"/>
      <point x="1052" y="842" type="qcurve" smooth="yes"/>
      <point x="1052" y="812"/>
      <point x="1107" y="773"/>
      <point x="1300" y="714" type="qcurve" smooth="yes"/>
      <point x="1502" y="650"/>
      <point x="1675" y="466"/>
      <point x="1675" y="341" type="qcurve" smooth="yes"/>
      <point x="1675" y="174"/>
      <point x="1433" y="-23"/>
      <point x="1213" y="-23" type="qcurve" smooth="yes"/>
      <point x="1102" y="-23"/>
      <point x="947" y="8"/>
      <point x="886" y="38" type="qcurve"/>
      <point x="861" y="0" type="line"/>
      <point x="703" y="0" type="line"/>
      <point x="703" y="387" type="line"/>
      <point x="886" y="387" type="line"/>
      <point x="912" y="251" type="line" smooth="yes"/>
      <point x="931" y="218"/>
      <point x="1032" y="165"/>
      <point x="1138" y="165" type="qcurve" smooth="yes"/>
      <point x="1239" y="165"/>
      <point x="1305" y="211"/>
      <point x="1305" y="258" type="qcurve" smooth="yes"/>
      <point x="1305" y="305"/>
      <point x="1221" y="359"/>
      <point x="1064" y="407" type="qcurve" smooth="yes"/>
      <point x="900" y="458"/>
      <point x="706" y="630"/>
      <point x="706" y="737" type="qcurve" smooth="yes"/>
      <point x="706" y="831"/>
      <point x="807" y="942"/>
      <point x="870" y="985" type="qcurve" smooth="yes"/>
      <point x="930" y="1027"/>
      <point x="999" y="1120"/>
      <point x="999" y="1186" type="qcurve" smooth="yes"/>
      <point x="999" y="1245"/>
      <point x="908" y="1320"/>
      <point x="818" y="1320" type="qcurve" smooth="yes"/>
      <point x="721" y="1320"/>
      <point x="621" y="1223"/>
      <point x="622" y="1133" type="qcurve"/>
      <point x="626" y="552" type="line"/>
      <point x="626" y="54" type="line"/>
      <point x="565" y="-20" type="line"/>
      <point x="41" y="0" type="line"/>
      <point x="41" y="164" type="line"/>
      <point x="192" y="199" type="line"/>
      <point x="200" y="552" type="line"/>
      <point x="195" y="1093" type="line" smooth="yes"/>
      <point x="194" y="1271"/>
      <point x="443" y="1529"/>
      <point x="769" y="1529" type="qcurve" smooth="yes"/>
      <point x="1083" y="1529"/>
      <point x="1348" y="1369"/>
    </contour>
  </outline>
</glyph>
<glyph name="ae" format="2">
  <advance width="1990"/>
  <unicode hex="00E6"/>
  <anchor x="1001" y="1083" name="top"/>
  <outline>
    <contour>
      <point x="15" y="291" type="qcurve" smooth="yes"/>
      <point x="15" y="453"/>
      <point x="344" y="656"/>
      <point x="911" y="655" type="qcurve"/>
      <point x="921" y="520" type="line"/>
      <point x="605" y="521"/>
      <point x="419" y="425"/>
      <point x="420" y="333" type="qcurve" smooth="yes"/>
      <point x="420" y="244"/>
      <point x="515" y="163"/>
      <point x="582" y="163" type="qcurve" smooth="yes"/>
      <point x="652" y="163"/>
      <point x="775" y="239"/>
      <point x="808" y="280" type="qcurve"/>
      <point x="791" y="316"/>
      <point x="773" y="403"/>
      <point x="773" y="462" type="qcurve" smooth="yes"/>
      <point x="772" y="672" type="line" smooth="yes"/>
      <point x="771" y="804"/>
      <point x="667" y="930"/>
      <point x="555" y="930" type="qcurve" smooth="yes"/>
      <point x="476" y="930"/>
      <point x="388" y="912"/>
      <point x="370" y="896" type="qcurve"/>
      <point x="396" y="883"/>
      <point x="428" y="833"/>
      <point x="428" y="794" type="qcurve" smooth="yes"/>
      <point x="427" y="746"/>
      <point x="352" y="673"/>
      <point x="281" y="669" type="qcurve" smooth="yes"/>
      <point x="208" y="666"/>
      <point x="116" y="738"/>
      <point x="116" y="814" type="qcurve" smooth="yes"/>
      <point x="116" y="950"/>
      <point x="395" y="1105"/>
      <point x="615" y="1105" type="qcurve" smooth="yes"/>
      <point x="800" y="1105"/>
      <point x="981" y="1024"/>
      <point x="1014" y="976" type="qcurve"/>
      <point x="1020" y="976" type="line"/>
      <point x="1059" y="1028"/>
      <point x="1272" y="1109"/>
      <point x="1412" y="1109" type="qcurve" smooth="yes"/>
      <point x="1644" y="1109"/>
      <point x="1936" y="868"/>
      <point x="1954" y="638" type="qcurve"/>
      <point x="1954" y="507" type="line"/>
      <point x="1131" y="507" type="line"/>
      <point x="1131" y="661" type="line"/>
      <point x="1598" y="661" type="line"/>
      <point x="1589" y="796"/>
      <point x="1492" y="921"/>
      <point x="1397" y="921" type="qcurve" smooth="yes"/>
      <point x="1298" y="921"/>
      <point x="1185" y="770"/>
      <point x="1186" y="572" type="qcurve" smooth="yes"/>
      <point x="1187" y="380"/>
      <point x="1358" y="191"/>
      <point x="1500" y="191" type="qcurve" smooth="yes"/>
      <point x="1613" y="191"/>
      <point x="1766" y="255"/>
      <point x="1821" y="300" type="qcurve"/>
      <point x="1918" y="163" type="line"/>
      <point x="1863" y="89"/>
      <point x="1616" y="-25"/>
      <point x="1418" y="-25" type="qcurve" smooth="yes"/>
      <point x="1239" y="-25"/>
      <point x="944" y="102"/>
      <point x="891" y="173" type="qcurve"/>
      <point x="846" y="110"/>
      <point x="604" y="-18"/>
      <point x="414" y="-18" type="qcurve" smooth="yes"/>
      <point x="219" y="-18"/>
      <point x="15" y="139"/>
    </contour>
  </outline>
</glyph>
<glyph name="eth" format="2">
  <advance width="1481"/>
  <unicode hex="00F0"/>
  <outline>
    <contour>
      <point x="56" y="515" type="qcurve" smooth="yes"/>
      <point x="56" y="761"/>
      <point x="427" y="1053"/>
      <point x="734" y="1053" type="qcurve" smooth="yes"/>
      <point x="931" y="1053"/>
      <point x="1175" y="754"/>
      <point x="1188" y="550" type="qcurve"/>
      <point x="981" y="548" type="line"/>
      <point x="954" y="735"/>
      <point x="835" y="859"/>
      <point x="741" y="861" type="qcurve" smooth="yes"/>
      <point x="619" y="863"/>
      <point x="495" y="714"/>
      <point x="496" y="529" type="qcurve" smooth="yes"/>
      <point x="497" y="335"/>
      <point x="627" y="163"/>
      <point x="740" y="162" type="qcurve" smooth="yes"/>
      <point x="872" y="161"/>
      <point x="979" y="349"/>
      <point x="979" y="548" type="qcurve" smooth="yes"/>
      <point x="979" y="879"/>
      <point x="567" y="1367"/>
      <point x="284" y="1435" type="qcurve"/>
      <point x="374" y="1587" type="line"/>
      <point x="892" y="1480"/>
      <point x="1415" y="951"/>
      <point x="1415" y="618" type="qcurve" smooth="yes"/>
      <point x="1415" y="286"/>
      <point x="1045" y="-25"/>
      <point x="733" y="-25" type="qcurve" smooth="yes"/>
      <point x="423" y="-25"/>
      <point x="56" y="254"/>
    </contour>
    <contour>
      <point x="318" y="1234" type="line"/>
      <point x="1012" y="1585" type="line"/>
      <point x="1112" y="1425" type="line"/>
      <point x="417" y="1073" type="line"/>
    </contour>
  </outline>
</glyph>
<glyph name="divide" format="2">
  <advance width="1063"/>
  <unicode hex="00F7"/>
  <outline>
    <contour>
      <point x="69" y="503" type="line"/>
      <point x="69" y="761" type="line"/>
      <point x="995" y="761" type="line"/>
      <point x="995" y="503" type="line"/>
    </contour>
    <contour>
      <point x="341" y="241" type="qcurve" smooth="yes"/>
      <point x="341" y="316"/>
      <point x="447" y="430"/>
      <point x="531" y="430" type="qcurve" smooth="yes"/>
      <point x="614" y="430"/>
      <point x="720" y="316"/>
      <point x="720" y="241" type="qcurve" smooth="yes"/>
      <point x="720" y="166"/>
      <point x="614" y="52"/>
      <point x="531" y="52" type="qcurve" smooth="yes"/>
      <point x="447" y="52"/>
      <point x="341" y="166"/>
    </contour>
    <contour>
      <point x="341" y="1023" type="qcurve" smooth="yes"/>
      <point x="341" y="1099"/>
      <point x="447" y="1213"/>
      <point x="531" y="1213" type="qcurve" smooth="yes"/>
      <point x="614" y="1213"/>
      <point x="720" y="1099"/>
      <point x="720" y="1023" type="qcurve" smooth="yes"/>
      <point x="720" y="949"/>
      <point x="614" y="834"/>
      <point x="531" y="834" type="qcurve" smooth="yes"/>
      <point x="447" y="834"/>
      <point x="341" y="949"/>
    </contour>
  </outline>
</glyph>
<glyph name="thorn" format="2">
  <advance width="1545"/>
  <unicode hex="00FE"/>
  <outline>
    <contour>
      <point x="28" y="-480" type="line"/>
      <point x="28" y="-317" type="line"/>
      <point x="171" y="-282" type="line"/>
      <point x="173" y="452" type="line"/>
      <point x="164" y="1297" type="line"/>
      <point x="4" y="1327" type="line"/>
      <point x="4" y="1500" type="line"/>
      <point x="512" y="1534" type="line"/>
      <point x="543" y="1534" type="line"/>
      <point x="591" y="1492" type="line"/>
      <point x="585" y="935" type="line"/>
      <point x="637" y="1010"/>
      <point x="835" y="1105"/>
      <point x="968" y="1105" type="qcurve" smooth="yes"/>
      <point x="1195" y="1105"/>
      <point x="1486" y="819"/>
      <point x="1486" y="575" type="qcurve" smooth="yes"/>
      <point x="1486" y="311"/>
      <point x="1185" y="-18"/>
      <point x="921" y="-18" type="qcurve" smooth="yes"/>
      <point x="801" y="-18"/>
      <point x="640" y="44"/>
      <point x="590" y="83" type="qcurve"/>
      <point x="592" y="-282" type="line"/>
      <point x="758" y="-317" type="line"/>
      <point x="758" y="-480" type="line"/>
    </contour>
    <contour>
      <point x="590" y="312" type="line"/>
      <point x="616" y="263"/>
      <point x="732" y="185"/>
      <point x="809" y="185" type="qcurve" smooth="yes"/>
      <point x="916" y="185"/>
      <point x="1038" y="368"/>
      <point x="1038" y="534" type="qcurve" smooth="yes"/>
      <point x="1038" y="700"/>
      <point x="926" y="855"/>
      <point x="814" y="855" type="qcurve" smooth="yes"/>
      <point x="736" y="855"/>
      <point x="624" y="786"/>
      <point x="591" y="732" type="qcurve"/>
      <point x="587" y="467" type="line"/>
    </contour>
  </outline>
</glyph>
<glyph name="idotless" format="2">
  <advance width="824"/>
  <unicode hex="0131"/>
  <anchor x="412" y="1083" name="top"/>
  <outline>
    <contour>
      <point x="54" y="0" type="line"/>
      <point x="54" y="164" type="line"/>
      <point x="209" y="199" type="line"/>
      <point x="211" y="569" type="line"/>
      <point x="207" y="845" type="line"/>
      <point x="53" y="875" type="line"/>
      <point x="53" y="1053" type="line"/>
      <point x="536" y="1085" type="line"/>
      <point x="604" y="1085" type="line"/>
      <point x="640" y="1039" type="line"/>
      <point x="633" y="569" type="line"/>
      <point x="635" y="199" type="line"/>
      <point x="793" y="164" type="line"/>
      <point x="793" y="0" type="line"/>
    </contour>
  </outline>
</glyph>
<glyph name="kgreenlandic" format="2">
  <advance width="1449"/>
  <unicode hex="0138"/>
  <outline>
    <contour>
      <point x="48" y="0" type="line"/>
      <point x="48" y="164" type="line"/>
      <point x="196" y="199" type="line"/>
      <point x="198" y="555" type="line"/>
      <point x="196" y="870" type="line"/>
      <point x="48" y="910" type="line"/>
      <point x="48" y="1083" type="line"/>
      <point x="714" y="1083" type="line"/>
      <point x="714" y="906" type="line"/>
      <point x="621" y="871" type="line"/>
      <point x="621" y="562" type="line"/>
      <point x="619" y="199" type="line"/>
      <point x="740" y="164" type="line"/>
      <point x="740" y="0" type="line"/>
    </contour>
    <contour>
      <point x="582" y="384" type="line"/>
      <point x="562" y="554" type="line"/>
      <point x="923" y="869" type="line"/>
      <point x="825" y="903" type="line"/>
      <point x="825" y="1083" type="line"/>
      <point x="1389" y="1083" type="line"/>
      <point x="1389" y="903" type="line"/>
      <point x="1169" y="868" type="line"/>
    </contour>
    <contour>
      <point x="679" y="575" type="line"/>
      <point x="975" y="843" type="line"/>
      <point x="1323" y="206" type="line"/>
      <point x="1468" y="164" type="line"/>
      <point x="1468" y="0" type="line"/>
      <point x="859" y="0" type="line"/>
      <point x="852" y="162" type="line"/>
      <point x="893" y="191" type="line"/>
    </contour>
  </outline>
</glyph>
<glyph name="OE" format="2">
  <advance width="2376"/>
  <unicode hex="0152"/>
  <outline>
    <contour>
      <point x="70" y="741" type="qcurve" smooth="yes"/>
      <point x="70" y="1072"/>
      <point x="555" y="1510"/>
      <point x="960" y="1510" type="qcurve" smooth="yes"/>
      <point x="1049" y="1510"/>
      <point x="1202" y="1500"/>
      <point x="1257" y="1500" type="qcurve" smooth="yes"/>
      <point x="2272" y="1500" type="line"/>
      <point x="2272" y="1122" type="line"/>
      <point x="2088" y="1122" type="line"/>
      <point x="2053" y="1305" type="line"/>
      <point x="1698" y="1305" type="line"/>
      <point x="1645" y="1283" type="line"/>
      <point x="1643" y="783" type="line"/>
      <point x="1645" y="216" type="line"/>
      <point x="1695" y="191" type="line"/>
      <point x="2109" y="191" type="line"/>
      <point x="2182" y="414" type="line"/>
      <point x="2365" y="414" type="line"/>
      <point x="2326" y="0" type="line"/>
      <point x="1270" y="0" type="line" smooth="yes"/>
      <point x="1201" y="0"/>
      <point x="1047" y="-12"/>
      <point x="958" y="-12" type="qcurve" smooth="yes"/>
      <point x="556" y="-12"/>
      <point x="70" y="400"/>
    </contour>
    <contour>
      <point x="545" y="767" type="qcurve" smooth="yes"/>
      <point x="545" y="467"/>
      <point x="795" y="186"/>
      <point x="995" y="186" type="qcurve" smooth="yes"/>
      <point x="1073" y="186"/>
      <point x="1163" y="203"/>
      <point x="1207" y="216" type="qcurve"/>
      <point x="1209" y="764" type="line"/>
      <point x="1207" y="1277" type="line"/>
      <point x="1157" y="1293"/>
      <point x="1063" y="1310"/>
      <point x="981" y="1310" type="qcurve" smooth="yes"/>
      <point x="778" y="1309"/>
      <point x="545" y="1046"/>
    </contour>
    <contour>
      <point x="1426" y="700" type="line"/>
      <point x="1426" y="868" type="line"/>
      <point x="1964" y="878" type="line"/>
      <point x="1993" y="1026" type="line"/>
      <point x="2161" y="1026" type="line"/>
      <point x="2161" y="542" type="line"/>
      <point x="1993" y="542" type="line"/>
      <point x="1964" y="690" type="line"/>
    </contour>
  </outline>
</glyph>
<glyph name="oe" format="2">
  <advance width="2209"/>
  <unicode hex="0153"/>
  <outline>
    <contour>
      <point x="56" y="542" type="qcurve" smooth="yes"/>
      <point x="56" y="791"/>
      <point x="434" y="1108"/>
      <point x="746" y="1108" type="qcurve" smooth="yes"/>
      <point x="880" y="1108"/>
      <point x="1123" y="1018"/>
      <point x="1187" y="954" type="qcurve"/>
      <point x="1196" y="954" type="line"/>
      <point x="1259" y="1027"/>
      <point x="1475" y="1109"/>
      <point x="1603" y="1109" type="qcurve" smooth="yes"/>
      <point x="1868" y="1109"/>
      <point x="2155" y="868"/>
      <point x="2173" y="638" type="qcurve"/>
      <point x="2173" y="500" type="line"/>
      <point x="1361" y="500" type="line"/>
      <point x="1361" y="668" type="line"/>
      <point x="1817" y="668" type="line"/>
      <point x="1808" y="809"/>
      <point x="1717" y="919"/>
      <point x="1622" y="919" type="qcurve" smooth="yes"/>
      <point x="1522" y="919"/>
      <point x="1414" y="770"/>
      <point x="1415" y="572" type="qcurve" smooth="yes"/>
      <point x="1416" y="380"/>
      <point x="1579" y="191"/>
      <point x="1721" y="191" type="qcurve" smooth="yes"/>
      <point x="1831" y="191"/>
      <point x="1986" y="255"/>
      <point x="2040" y="300" type="qcurve"/>
      <point x="2137" y="163" type="line"/>
      <point x="2082" y="89"/>
      <point x="1835" y="-25"/>
      <point x="1647" y="-25" type="qcurve" smooth="yes"/>
      <point x="1475" y="-25"/>
      <point x="1244" y="83"/>
      <point x="1199" y="132" type="qcurve"/>
      <point x="1186" y="132" type="line"/>
      <point x="1141" y="79"/>
      <point x="918" y="-25"/>
      <point x="753" y="-25" type="qcurve" smooth="yes"/>
      <point x="440" y="-25"/>
      <point x="56" y="276"/>
    </contour>
    <contour>
      <point x="500" y="555" type="qcurve" smooth="yes"/>
      <point x="501" y="359"/>
      <point x="629" y="165"/>
      <point x="745" y="165" type="qcurve" smooth="yes"/>
      <point x="868" y="165"/>
      <point x="991" y="339"/>
      <point x="991" y="542" type="qcurve" smooth="yes"/>
      <point x="991" y="732"/>
      <point x="862" y="903"/>
      <point x="746" y="903" type="qcurve" smooth="yes"/>
      <point x="621" y="903"/>
      <point x="499" y="750"/>
    </contour>
  </outline>
</glyph>
<glyph name="Schwa" format="2">
  <advance width="1685"/>
  <unicode hex="018F"/>
  <outline>
    <contour>
      <point x="79" y="1219" type="line"/>
      <point x="163" y="1333"/>
      <point x="506" y="1523"/>
      <point x="751" y="1523" type="qcurve" smooth="yes"/>
      <point x="1134" y="1523"/>
      <point x="1615" y="1129"/>
      <point x="1615" y="770" type="qcurve" smooth="yes"/>
      <point x="1615" y="418"/>
      <point x="1147" y="-27"/>
      <point x="791" y="-27" type="qcurve" smooth="yes"/>
      <point x="445" y="-27"/>
      <point x="72" y="282"/>
      <point x="72" y="579" type="qcurve" smooth="yes"/>
      <point x="72" y="717" type="line"/>
      <point x="1383" y="717" type="line"/>
      <point x="1383" y="525" type="line"/>
      <point x="752" y="533" type="line"/>
      <point x="461" y="527" type="line"/>
      <point x="461" y="482" type="line" smooth="yes"/>
      <point x="461" y="331"/>
      <point x="608" y="183"/>
      <point x="765" y="183" type="qcurve" smooth="yes"/>
      <point x="941" y="183"/>
      <point x="1148" y="433"/>
      <point x="1147" y="737" type="qcurve" smooth="yes"/>
      <point x="1146" y="1053"/>
      <point x="891" y="1305"/>
      <point x="697" y="1305" type="qcurve" smooth="yes"/>
      <point x="546" y="1305"/>
      <point x="315" y="1181"/>
      <point x="247" y="1087" type="qcurve"/>
    </contour>
  </outline>
</glyph>
<glyph name="florin" format="2">
  <advance width="932"/>
  <unicode hex="0192"/>
  <outline>
    <contour>
      <point x="682" y="-4" type="line" smooth="yes"/>
      <point x="684" y="-141"/>
      <point x="479" y="-310"/>
      <point x="313" y="-310" type="qcurve" smooth="yes"/>
      <point x="234" y="-310"/>
      <point x="100" y="-291"/>
      <point x="61" y="-276" type="qcurve" smooth="yes"/>
      <point x="38" y="-268" type="line"/>
      <point x="43" y="-98" type="line"/>
      <point x="59" y="-104" type="line" smooth="yes"/>
      <point x="72" y="-109"/>
      <point x="123" y="-118"/>
      <point x="144" y="-118" type="qcurve" smooth="yes"/>
      <point x="203" y="-118"/>
      <point x="267" y="-48"/>
      <point x="266" y="15" type="qcurve" smooth="yes"/>
      <point x="255" y="816" type="line"/>
      <point x="69" y="844" type="line"/>
      <point x="66" y="1004" type="line"/>
      <point x="253" y="1017" type="line"/>
      <point x="247" y="1228" type="line" smooth="yes"/>
      <point x="243" y="1365"/>
      <point x="432" y="1527"/>
      <point x="597" y="1527" type="qcurve" smooth="yes"/>
      <point x="676" y="1527"/>
      <point x="813" y="1515"/>
      <point x="850" y="1494" type="qcurve" smooth="yes"/>
      <point x="873" y="1486" type="line"/>
      <point x="867" y="1306" type="line"/>
      <point x="851" y="1312" type="line" smooth="yes"/>
      <point x="839" y="1316"/>
      <point x="788" y="1325"/>
      <point x="766" y="1325" type="qcurve" smooth="yes"/>
      <point x="707" y="1325"/>
      <point x="665" y="1262"/>
      <point x="667" y="1199" type="qcurve" smooth="yes"/>
      <point x="673" y="1011" type="line"/>
      <point x="866" y="1011" type="line"/>
      <point x="866" y="836" type="line"/>
      <point x="673" y="827" type="line"/>
    </contour>
  </outline>
</glyph>
<glyph name="schwa" format="2">
  <advance width="1299"/>
  <unicode hex="0259"/>
  <outline>
    <contour>
      <point x="1242" y="548" type="qcurve" smooth="yes"/>
      <point x="1242" y="293"/>
      <point x="903" y="-25"/>
      <point x="612" y="-25" type="qcurve" smooth="yes"/>
      <point x="346" y="-25"/>
      <point x="54" y="215"/>
      <point x="36" y="445" type="qcurve"/>
      <point x="36" y="583" type="line"/>
      <point x="859" y="583" type="line"/>
      <point x="859" y="415" type="line"/>
      <point x="392" y="415" type="line"/>
      <point x="401" y="274"/>
      <point x="498" y="164"/>
      <point x="593" y="164" type="qcurve" smooth="yes"/>
      <point x="692" y="164"/>
      <point x="805" y="314"/>
      <point x="804" y="511" type="qcurve" smooth="yes"/>
      <point x="803" y="703"/>
      <point x="635" y="892"/>
      <point x="494" y="892" type="qcurve" smooth="yes"/>
      <point x="383" y="892"/>
      <point x="224" y="828"/>
      <point x="169" y="783" type="qcurve"/>
      <point x="72" y="921" type="line"/>
      <point x="127" y="994"/>
      <point x="372" y="1109"/>
      <point x="556" y="1109" type="qcurve" smooth="yes"/>
      <point x="874" y="1109"/>
      <point x="1242" y="802"/>
    </contour>
  </outline>
</glyph>
<glyph name="primemod" format="2">
  <advance width="688"/>
  <unicode hex="02B9"/>
  <outline>
    <contour>
      <point x="276" y="1502" type="line"/>
      <point x="619" y="1502" type="line"/>
      <point x="424" y="884" type="line"/>
      <point x="205" y="899" type="line"/>
    </contour>
  </outline>
</glyph>
<glyph name="doubleprimemod" format="2">
  <advance width="1273"/>
  <unicode hex="02BA"/>
  <outline>
    <contour>
      <point x="276" y="1502" type="line"/>
      <point x="619" y="1502" type="line"/>
      <point x="423" y="875" type="line"/>
      <point x="204" y="890" type="line"/>
    </contour>
    <contour>
      <point x="786" y="1502" type="line"/>
      <point x="1129" y="1502" type="line"/>
      <point x="933" y="875" type="line"/>
      <point x="714" y="890" type="line"/>
    </contour>
  </outline>
</glyph>
<glyph name="apostrophemod" format="2">
  <advance width="649"/>
  <unicode hex="02BC"/>
  <outline>
    <contour>
      <point x="105" y="878" type="line"/>
      <point x="158" y="910"/>
      <point x="290" y="1032"/>
      <point x="320" y="1111" type="qcurve"/>
      <point x="202" y="1122"/>
      <point x="106" y="1234"/>
      <point x="106" y="1314" type="qcurve" smooth="yes"/>
      <point x="106" y="1396"/>
      <point x="239" y="1529"/>
      <point x="337" y="1529" type="qcurve" smooth="yes"/>
      <point x="437" y="1529"/>
      <point x="564" y="1418"/>
      <point x="564" y="1296" type="qcurve" smooth="yes"/>
      <point x="564" y="1144"/>
      <point x="313" y="844"/>
      <point x="187" y="785" type="qcurve"/>
    </contour>
  </outline>
</glyph>
<glyph name="circumflex" format="2">
  <advance width="1024"/>
  <unicode hex="02C6"/>
  <outline>
    <contour>
      <point x="512" y="1704" type="qcurve" smooth="yes"/>
      <point x="565" y="1704"/>
      <point x="633" y="1669"/>
      <point x="695" y="1600" type="qcurve" smooth="yes"/>
      <point x="907" y="1352" type="line"/>
      <point x="778" y="1249" type="line"/>
      <point x="512" y="1467" type="line"/>
      <point x="246" y="1249" type="line"/>
      <point x="117" y="1352" type="line"/>
      <point x="329" y="1600" type="line" smooth="yes"/>
      <point x="394" y="1674"/>
      <point x="454" y="1704"/>
    </contour>
  </outline>
</glyph>
<glyph name="caron" format="2">
  <advance width="1024"/>
  <unicode hex="02C7"/>
  <outline>
    <contour>
      <point x="512" y="1250" type="qcurve" smooth="yes"/>
      <point x="454" y="1250"/>
      <point x="398" y="1277"/>
      <point x="329" y="1354" type="qcurve" smooth="yes"/>
      <point x="117" y="1602" type="line"/>
      <point x="246" y="1705" type="line"/>
      <point x="512" y="1486" type="line"/>
      <point x="778" y="1705" type="line"/>
      <point x="907" y="1602" type="line"/>
      <point x="695" y="1354" type="line" smooth="yes"/>
      <point x="637" y="1286"/>
      <point x="565" y="1250"/>
    </contour>
  </outline>
</glyph>
<glyph name="breve" format="2">
  <advance width="1024"/>
  <unicode hex="02D8"/>
  <outline>
    <contour>
      <point x="771" y="1633" type="qcurve"/>
      <point x="935" y="1586" type="line"/>
      <point x="910" y="1476"/>
      <point x="695" y="1270"/>
      <point x="519" y="1270" type="qcurve" smooth="yes"/>
      <point x="333" y="1270"/>
      <point x="113" y="1452"/>
      <point x="89" y="1583" type="qcurve"/>
      <point x="254" y="1634" type="line"/>
      <point x="289" y="1574"/>
      <point x="404" y="1476"/>
      <point x="512" y="1477" type="qcurve" smooth="yes"/>
      <point x="616" y="1476"/>
      <point x="734" y="1567"/>
    </contour>
  </outline>
</glyph>
<glyph name="dotaccent" format="2">
  <advance width="1024"/>
  <unicode hex="02D9"/>
  <outline>
    <contour>
      <point x="312" y="1440" type="qcurve" smooth="yes"/>
      <point x="312" y="1521"/>
      <point x="415" y="1616"/>
      <point x="513" y="1616" type="qcurve" smooth="yes"/>
      <point x="606" y="1616"/>
      <point x="715" y="1518"/>
      <point x="715" y="1440" type="qcurve" smooth="yes"/>
      <point x="715" y="1362"/>
      <point x="613" y="1270"/>
      <point x="513" y="1270" type="qcurve" smooth="yes"/>
      <point x="419" y="1270"/>
      <point x="312" y="1365"/>
    </contour>
  </outline>
</glyph>
<glyph name="ring" format="2">
  <advance width="1024"/>
  <unicode hex="02DA"/>
  <outline>
    <contour>
      <point x="245" y="1528" type="qcurve" smooth="yes"/>
      <point x="245" y="1640"/>
      <point x="396" y="1786"/>
      <point x="512" y="1786" type="qcurve" smooth="yes"/>
      <point x="628" y="1786"/>
      <point x="779" y="1640"/>
      <point x="779" y="1528" type="qcurve" smooth="yes"/>
      <point x="779" y="1416"/>
      <point x="628" y="1270"/>
      <point x="512" y="1270" type="qcurve" smooth="yes"/>
      <point x="396" y="1270"/>
      <point x="245" y="1416"/>
    </contour>
    <contour>
      <point x="397" y="1528" type="qcurve" smooth="yes"/>
      <point x="397" y="1479"/>
      <point x="462" y="1412"/>
      <point x="512" y="1412" type="qcurve" smooth="yes"/>
      <point x="565" y="1412"/>
      <point x="626" y="1474"/>
      <point x="626" y="1528" type="qcurve" smooth="yes"/>
      <point x="626" y="1577"/>
      <point x="562" y="1644"/>
      <point x="512" y="1644" type="qcurve" smooth="yes"/>
      <point x="459" y="1644"/>
      <point x="397" y="1582"/>
    </contour>
  </outline>
</glyph>
<glyph name="ogonek" format="2">
  <advance width="1024"/>
  <unicode hex="02DB"/>
  <outline>
    <contour>
      <point x="450" y="-236" type="qcurve" smooth="yes"/>
      <point x="450" y="-290"/>
      <point x="521" y="-346"/>
      <point x="577" y="-346" type="qcurve" smooth="yes"/>
      <point x="630" y="-346"/>
      <point x="739" y="-300"/>
      <point x="806" y="-254" type="qcurve"/>
      <point x="873" y="-366" type="line"/>
      <point x="819" y="-421"/>
      <point x="619" y="-502"/>
      <point x="514" y="-502" type="qcurve" smooth="yes"/>
      <point x="402" y="-502"/>
      <point x="240" y="-402"/>
      <point x="240" y="-304" type="qcurve" smooth="yes"/>
      <point x="240" y="-202"/>
      <point x="391" y="-28"/>
      <point x="482" y="38" type="qcurve" smooth="yes"/>
      <point x="509" y="57" type="line"/>
      <point x="618" y="0" type="line"/>
      <point x="604" y="-12" type="line" smooth="yes"/>
      <point x="534" y="-75"/>
      <point x="450" y="-192"/>
    </contour>
  </outline>
</glyph>
<glyph name="tilde" format="2">
  <advance width="1024"/>
  <unicode hex="02DC"/>
  <outline>
    <contour>
      <point x="91" y="1445" type="line"/>
      <point x="128" y="1510"/>
      <point x="260" y="1621"/>
      <point x="334" y="1621" type="qcurve" smooth="yes"/>
      <point x="393" y="1621"/>
      <point x="482" y="1589"/>
      <point x="520" y="1565" type="qcurve" smooth="yes"/>
      <point x="553" y="1543"/>
      <point x="645" y="1492"/>
      <point x="688" y="1492" type="qcurve" smooth="yes"/>
      <point x="731" y="1492"/>
      <point x="800" y="1533"/>
      <point x="835" y="1581" type="qcurve"/>
      <point x="942" y="1447" type="line"/>
      <point x="904" y="1379"/>
      <point x="767" y="1270"/>
      <point x="697" y="1270" type="qcurve" smooth="yes"/>
      <point x="636" y="1270"/>
      <point x="541" y="1305"/>
      <point x="503" y="1331" type="qcurve" smooth="yes"/>
      <point x="470" y="1354"/>
      <point x="390" y="1397"/>
      <point x="349" y="1397" type="qcurve" smooth="yes"/>
      <point x="304" y="1397"/>
      <point x="227" y="1348"/>
      <point x="198" y="1308" type="qcurve"/>
    </contour>
  </outline>
</glyph>
